SplineFontDB: 3.2
FontName: NotoSansTagalog-Regular
FullName: Noto Sans Tagalog Regular
FamilyName: Noto Sans Tagalog
Weight: Book
Copyright: Copyright 2017 Google Inc. All Rights Reserved.
Version: 2.000
ItalicAngle: 0
UnderlinePosition: -125
UnderlineWidth: 50
Ascent: 800
Descent: 200
InvalidEm: 0
sfntRevision: 0x00020000
LayerCount: 3
Layer: 0 1 "Back" 1
Layer: 1 1 "Fore" 0
Layer: 2 1 "ORIGINAL" 1
XUID: [1021 597 -233719944 16015]
StyleMap: 0x0040
FSType: 0
OS2Version: 4
OS2_WeightWidthSlopeOnly: 1
OS2_UseTypoMetrics: 0
CreationTime: 1493842294
ModificationTime: 1586568901
PfmFamily: 17
TTFWeight: 400
TTFWidth: 5
LineGap: 0
VLineGap: 0
Panose: 2 11 5 2 4 5 4 2 2 4
OS2TypoAscent: 1069
OS2TypoAOffset: 0
OS2TypoDescent: -293
OS2TypoDOffset: 0
OS2TypoLinegap: 0
OS2WinAscent: 1069
OS2WinAOffset: 0
OS2WinDescent: 293
OS2WinDOffset: 0
HheadAscent: 1069
HheadAOffset: 0
HheadDescent: -293
HheadDOffset: 0
OS2SubXSize: 650
OS2SubYSize: 600
OS2SubXOff: 0
OS2SubYOff: 75
OS2SupXSize: 650
OS2SupYSize: 600
OS2SupXOff: 0
OS2SupYOff: 350
OS2StrikeYSize: 50
OS2StrikeYPos: 322
OS2CapHeight: 714
OS2XHeight: 536
OS2Vendor: 'GOOG'
OS2CodePages: 00000001.00000000
OS2UnicodeRanges: 80000003.00002000.00100000.00000000
Lookup: 260 0 0 "'mark' Mark Positioning in Tagalog lookup 0" { "'mark' Mark Positioning in Tagalog lookup 0 subtable"  } ['mark' ('tglg' <'dflt' > ) ]
Lookup: 260 0 0 "'mark' Mark Positioning in Tagalog lookup 1" { "'mark' Mark Positioning in Tagalog lookup 1 subtable"  } ['mark' ('tglg' <'dflt' > ) ]
DEI: 91125
ShortTable: maxp 16
  1
  0
  31
  128
  16
  0
  0
  1
  0
  0
  0
  0
  0
  0
  0
  0
EndShort

StartChar: .notdef
Encoding: 34 -1 0
Width: 600
Flags: W
LayerCount: 3
Fore
SplineSet
94 0 m 1,0,-1
 94 714 l 1,1,-1
 505 714 l 1,2,-1
 505 0 l 1,3,-1
 94 0 l 1,0,-1
145 51 m 1,4,-1
 454 51 l 1,5,-1
 454 663 l 1,6,-1
 145 663 l 1,7,-1
 145 51 l 1,4,-1
EndSplineSet
EndChar

StartChar: uni1700
Encoding: 4 5888 5
Width: 1014
GlyphClass: 2
InSpiro: 1
Flags: W
LayerCount: 3
Back
SplineSet
84 408 m 1,0,-1
 258 408 l 1025
  Spiro
    84 408 {
    258 408 v
    0 0 z
  EndSpiro
84 553 m 1,2,-1
 454 553 l 1025
  Spiro
    84 553 {
    454 553 v
    0 0 z
  EndSpiro
97 745 m 0,4,5
 177.744386961 733.029774669 177.744386961 733.029774669 227.407402737 665.068792883 c 0,6,7
 229.950404354 661.588841377 229.950404354 661.588841377 233 657 c 0,8,9
 272.184352026 597.321223531 272.184352026 597.321223531 272.439839937 509.924632254 c 0,0,0
 272.439839937 501.521942893 272.439839937 501.521942893 272 492 c 0,1,2
 269.515292418 440.98824908 269.515292418 440.98824908 239.17643045 317.383338845 c 0,3,4
 236.316059864 305.729775507 236.316059864 305.729775507 233.922098535 295.539012161 c 0,5,6
 220.178525122 236.870379409 220.178525122 236.870379409 218.499714619 196.661394514 c 0,7,8
 218.297374388 191.423397385 218.297374388 191.423397385 218.27748423 185.320449629 c 0,0,0
 218.27748423 135.930098977 218.27748423 135.930098977 236 99 c 0,1,2
 247.462470291 75.5286912466 247.462470291 75.5286912466 266.338499985 58.8495577516 c 0,3,4
 285.697703287 42.1260985292 285.697703287 42.1260985292 311 36 c 0,5,6
 321.709253437 33.5345949386 321.709253437 33.5345949386 334.131848629 33.4246664846 c 0,0,0
 354.378231984 33.4246664846 354.378231984 33.4246664846 375.418504172 40.9531345888 c 0,1,2
 402.675247809 50.9466809717 402.675247809 50.9466809717 431 75 c 0,3,4
 473.269321455 111.213920027 473.269321455 111.213920027 524 192 c 2,5,-1
 635 369 l 2,6,7
 644.11249619 383.530737169 644.11249619 383.530737169 661.778190223 412.97538982 c 0,8,9
 702.190708884 480.333772265 702.190708884 480.333772265 726.45849658 512.666413246 c 0,10,11
 755.100438423 550.662455102 755.100438423 550.662455102 786.588947336 572.458485423 c 0,12,13
 824.337088187 598.177775426 824.337088187 598.177775426 866 600 c 0,14,15
 868.196034062 600.077659243 868.196034062 600.077659243 870.394418923 600.077607231 c 0,0,0
 906.922262135 600.077607231 906.922262135 600.077607231 937.463450584 580.328065383 c 0,1,2
 969.50250898 559.188542601 969.50250898 559.188542601 983 522 c 1024
  Spiro
    97 745 {
    233 657 o
    272 492 o
    236 99 o
    311 36 o
    431 75 o
    524 192 [
    635 369 ]
    866 600 o
    983 522 o
    0 0 z
  EndSpiro
EndSplineSet
Fore
SplineSet
84 303 m 1,0,-1
 84 442.971679688 l 1,1,-1
 258 442.971679688 l 1,2,-1
 258 303 l 1,3,-1
 84 303 l 1,0,-1
  Spiro
    84 303 v
    84 442.972 v
    258 442.972 v
    258 303 v
    0 0 z
  EndSpiro
84 483.013726262 m 1,4,-1
 84 622.986273738 l 1,5,-1
 454 622.986273738 l 1,6,-1
 454 483.013726262 l 1,7,-1
 84 483.013726262 l 1,4,-1
  Spiro
    84 483.014 v
    84 622.986 v
    454 622.986 v
    454 483.014 v
    0 0 z
  EndSpiro
86.6679610475 675.77505679 m 1,8,-1
 107.195925192 814.245121856 l 1,9,10
 194.124875552 800.664885436 194.124875552 800.664885436 254.65917646 740.657235309 c 0,11,12
 270.668390244 724.363963268 270.668390244 724.363963268 283.971965648 706.319682961 c 0,13,14
 287.833852559 700.943180805 287.833852559 700.943180805 291.338124476 695.706928181 c 2,15,-1
 291.551108945 695.384503169 l 2,16,17
 341.84566157 617.681378143 341.84566157 617.681378143 342.426113675 509.924632254 c 0,18,19
 342.379721826 499.337558501 342.379721826 499.337558501 341.902777207 488.569368645 c 0,20,21
 338.769050116 429.665588434 338.769050116 429.665588434 307.137035276 300.612745915 c 0,22,23
 304.271127632 288.897731245 304.271127632 288.897731245 302.055643745 279.489465703 c 0,24,25
 289.937860088 227.178679136 289.937860088 227.178679136 288.433434525 193.93935755 c 0,26,27
 288.291227455 189.265141407 288.291227455 189.265141407 288.263757968 185.320449629 c 0,28,29
 288.609801994 151.864234203 288.609801994 151.864234203 299.005196836 129.533638052 c 0,30,31
 304.093863439 119.998456956 304.093863439 119.998456956 310.174977571 113.668282731 c 0,32,33
 311.762239746 112.163631554 311.762239746 112.163631554 312.346345565 111.612982192 c 0,34,35
 319.526758887 106.230062131 319.526758887 106.230062131 327.108463509 104.123243123 c 0,36,37
 330.979909515 103.545750859 330.979909515 103.545750859 334.428021822 103.411994472 c 0,38,39
 342.961745549 103.887085124 342.961745549 103.887085124 351.498719424 106.749222764 c 0,40,41
 367.72247468 113.354467931 367.72247468 113.354467931 385.504222641 128.202984975 c 0,42,43
 391.086309334 133.130801233 391.086309334 133.130801233 395.916696944 137.896219248 c 0,44,45
 427.13719878 169.626998478 427.13719878 169.626998478 464.665309202 229.16350771 c 2,46,-1
 575.6653092 406.163507707 l 2,47,48
 585.007869961 421.119312204 585.007869961 421.119312204 601.726859429 448.970703567 c 0,49,50
 644.13772146 519.481950587 644.13772146 519.481950587 670.512452893 554.750634823 c 0,51,52
 688.023045264 577.684996019 688.023045264 577.684996019 705.780695961 595.57752025 c 0,53,54
 726.137494334 615.612660109 726.137494334 615.612660109 746.792422599 630.057544519 c 0,55,-1
 801.916117947 666.932466778 801.916117947 666.932466778 862.918729298 669.918925572 c 2,58,-1
 863.507769173 669.942221872 l 2,59,60
 867.450882142 670.048832956 867.450882142 670.048832956 870.394418923 670.063880969 c 0,61,62
 927.935426731 669.491492423 927.935426731 669.491492423 975.441674785 639.143909434 c 2,63,-1
 975.710802738 638.969877118 l 2,64,65
 992.362343098 627.675374454 992.362343098 627.675374454 1005.31104753 614.909874575 c 0,66,67
 1034.25008582 585.264068644 1034.25008582 585.264068644 1048.78325515 545.952063021 c 1,68,-1
 917.216744846 498.047936979 l 1,69,70
 912.708385258 509.22864399 912.708385258 509.22864399 906.316098168 515.914925209 c 0,71,72
 902.495818325 519.367218126 902.495818325 519.367218126 899.203351697 521.693665394 c 0,73,74
 885.292876635 529.870771987 885.292876635 529.870771987 870.394418923 530.091333493 c 2,75,-1
 868.769973107 530.066878228 l 2,76,77
 846.686614747 528.330647118 846.686614747 528.330647118 826.175595583 514.713838878 c 0,78,79
 814.939613633 506.594626806 814.939613633 506.594626806 804.775645327 496.582570884 c 0,80,81
 793.087949994 484.613056367 793.087949994 484.613056367 782.404540267 470.582191669 c 0,82,83
 759.817453643 440.20894425 759.817453643 440.20894425 721.829521017 376.980076073 c 0,84,85
 703.76582879 346.903031763 703.76582879 346.903031763 694.3346908 331.836492293 c 2,86,-1
 583.334690798 154.83649229 l 2,87,88
 536.521951736 80.7460527481 536.521951736 80.7460527481 494.91164631 38.9012698822 c 0,89,90
 485.145599768 29.2767796684 485.145599768 29.2767796684 476.495777359 21.7970150254 c 0,91,92
 437.90652146 -10.4531232901 437.90652146 -10.4531232901 399.584164462 -24.752201329 c 2,93,-1
 399.328752179 -24.8458469432 l 2,94,95
 366.585997291 -36.5616072532 366.585997291 -36.5616072532 334.131848629 -36.5616072532 c 0,96,-1
 312.951849952 -36.1599876098 312.951849952 -36.1599876098 295.212464976 -32.1943932099 c 2,99,-1
 294.443573321 -32.0128148358 l 2,100,101
 252.481107714 -21.3200748019 252.481107714 -21.3200748019 220.624713108 5.83412431838 c 2,102,-1
 220.325894448 6.09225899403 l 2,103,104
 215.013574968 10.8930952691 215.013574968 10.8930952691 211.180028205 14.6733333646 c 0,105,106
 187.785346224 38.6281763166 187.785346224 38.6281763166 173.097779318 68.2563201454 c 2,107,-1
 172.890205195 68.6850858907 l 2,108,109
 148.493276677 120.58157921 148.493276677 120.58157921 148.291210492 185.320449629 c 0,110,111
 148.34951641 193.290530477 148.34951641 193.290530477 148.565994713 199.383431478 c 0,112,113
 150.777553456 247.199138468 150.777553456 247.199138468 165.788553325 311.588558619 c 0,114,115
 168.421413195 322.749824089 168.421413195 322.749824089 171.215825624 334.153931775 c 0,116,117
 199.758885321 450.798736024 199.758885321 450.798736024 202.097222793 495.430631355 c 0,118,119
 202.432016419 503.555137844 202.432016419 503.555137844 202.453566199 509.924632254 c 0,120,121
 201.783524961 576.333893676 201.783524961 576.333893676 174.552055737 618.458162711 c 0,122,123
 172.270246741 621.821652815 172.270246741 621.821652815 170.842839826 623.817902805 c 0,124,125
 163.13925943 634.049947831 163.13925943 634.049947831 155.664227094 641.662285942 c 0,126,127
 126.749385649 669.521875254 126.749385649 669.521875254 86.6679610475 675.77505679 c 1,8,-1
  Spiro
    86.668 675.775 v
    107.196 814.245 v
    187.151 789.46 o
    254.659 740.657 o
    269.6 724.46 o
    283.972 706.32 o
    287.395 701.503 o
    291.338 695.707 o
    291.551 695.385 ]
    329.415 610.723 o
    342.426 509.925 o
    342.295 499.805 o
    341.903 488.569 o
    331.81 412.801 o
    307.137 300.613 o
    304.543 289.94 o
    302.056 279.489 o
    292.607 232.304 o
    288.433 193.939 o
    288.323 190.019 o
    288.264 185.32 o
    290.949 155.013 o
    299.005 129.534 o
    303.945 121.205 o
    310.175 113.668 o
    311 112.872 o
    312.346 111.613 o
    319.012 107.212 o
    327.108 104.123 o
    330.209 103.674 o
    334.428 103.412 o
    342.349 104.272 o
    351.499 106.749 o
    367.498 114.899 o
    385.504 128.203 o
    390.366 132.561 o
    395.917 137.896 o
    428.281 175.89 o
    464.665 229.164 [
    575.665 406.164 ]
    586.446 423.667 o
    601.727 448.971 o
    639.861 510.314 o
    670.512 554.751 o
    687.628 575.966 o
    705.781 595.578 o
    725.683 613.847 o
    746.792 630.058 o
    747.216 630.348 ]
    802.952 658.508 o
    862.919 669.919 o
    863.508 669.942 ]
    866.701 670.025 o
    870.394 670.064 o
    924.981 662.334 o
    975.442 639.144 [
    975.711 638.97 ]
    991.042 627.722 o
    1005.31 614.91 o
    1030.44 583.405 o
    1048.78 545.952 ]
    917.217 498.048 v
    912.595 507.739 o
    906.316 515.915 o
    903.215 518.682 o
    899.203 521.694 o
    885.627 527.877 o
    870.394 530.091 [
    868.77 530.067 v
    847.631 525.731 o
    826.176 514.714 o
    815.726 506.636 o
    804.776 496.583 o
    793.779 484.679 o
    782.405 470.582 o
    756.387 432.694 o
    721.83 376.98 o
    706.143 351.005 o
    694.335 331.836 [
    583.335 154.836 ]
    538.21 89.1957 o
    494.912 38.9013 o
    485.933 30.2504 o
    476.496 21.797 o
    438.515 -5.7648 o
    399.584 -24.7522 [
    399.329 -24.8458 ]
    366.594 -33.6556 o
    334.132 -36.5616 o
    333.508 -36.5588 ]
    314.154 -35.3812 o
    295.212 -32.1944 o
    294.444 -32.0128 ]
    255.44 -17.5759 o
    220.625 5.83412 [
    220.326 6.09226 ]
    215.797 10.2187 o
    211.18 14.6733 o
    190.233 39.4951 o
    173.098 68.2563 o
    172.89 68.6851 ]
    154.543 123.261 o
    148.291 185.32 o
    148.371 192.343 o
    148.566 199.383 o
    153.846 250.782 o
    165.789 311.589 o
    168.332 322.282 o
    171.216 334.154 o
    193.196 432.571 o
    202.097 495.431 o
    202.353 502.661 o
    202.454 509.925 o
    195.382 569.895 o
    174.552 618.458 o
    172.754 621.106 o
    170.843 623.818 o
    163.628 632.96 o
    155.664 641.662 o
    124.58 664.026 o
    0 0 z
  EndSpiro
EndSplineSet
Layer: 2
SplineSet
318 0 m 4,0,1
 266 0 266 0 228 43 c 128,-1,2
 190 86 190 86 190 168 c 0,3,4
 190 223 190 223 201 276 c 128,-1,5
 212 329 212 329 222 375 c 1,6,-1
 84 375 l 1,7,-1
 84 443 l 1,8,-1
 233 443 l 1,9,10
 235 462 235 462 236 481 c 128,-1,11
 237 500 237 500 237 518 c 1,12,-1
 84 518 l 1,13,-1
 84 586 l 1,14,-1
 230 586 l 1,15,16
 218 631 218 631 187.5 663 c 128,-1,17
 157 695 157 695 90 712 c 1,18,-1
 106 779 l 1,19,20
 157 762 157 762 197 740 c 128,-1,21
 237 718 237 718 265 682 c 128,-1,22
 293 646 293 646 306 586 c 1,23,-1
 453 586 l 1,24,-1
 453 518 l 1,25,-1
 313 518 l 1,26,-1
 313 504 l 2,27,28
 313 462 313 462 306 416.5 c 128,-1,29
 299 371 299 371 290 327 c 128,-1,30
 281 283 281 283 274 244 c 128,-1,31
 267 205 267 205 267 176 c 0,32,33
 267 68 267 68 324 68 c 0,34,35
 358 68 358 68 392 93.5 c 128,-1,36
 426 119 426 119 459.5 162 c 128,-1,37
 493 205 493 205 526.5 258.5 c 128,-1,38
 560 312 560 312 594 368 c 2,39,-1
 640 444 l 2,40,41
 684 516 684 516 718 557.5 c 128,-1,42
 752 599 752 599 786.5 616.5 c 128,-1,43
 821 634 821 634 864 634 c 0,44,45
 916 634 916 634 953.5 607 c 128,-1,46
 991 580 991 580 1010 533 c 1,47,-1
 947 506 l 1,48,49
 934 540 934 540 912 553 c 128,-1,50
 890 566 890 566 862 566 c 0,51,52
 828 566 828 566 798.5 542 c 128,-1,53
 769 518 769 518 734 461 c 2,54,-1
 663 343 l 2,55,56
 630 289 630 289 594 229.5 c 128,-1,57
 558 170 558 170 516 117.5 c 128,-1,58
 474 65 474 65 425 32.5 c 128,-1,59
 376 -5.00008923154e-11 376 -5.00008923154e-11 318 0 c 4,0,1
  Spiro
    318 0 o
    269.5 10.75 o
    228 43 o
    199.5 95.75 o
    190 168 o
    192.75 222.5 o
    201 276 o
    211.75 327.25 o
    222 375 v
    84 375 v
    84 443 v
    233 443 v
    234.75 462 o
    236 481 o
    236.75 499.75 o
    237 518 v
    84 518 v
    84 586 v
    230 586 v
    213.375 627.75 o
    187.5 663 o
    147.875 691.25 o
    90 712 v
    106 779 v
    154.25 760.75 o
    197 740 o
    234 714.5 o
    265 682 o
    289.25 640 o
    306 586 v
    453 586 v
    453 518 v
    313 518 v
    313 504 ]
    311.25 461.125 o
    306 416.5 o
    298.5 371.375 o
    290 327 o
    281.5 284.25 o
    274 244 o
    268.75 207.5 o
    267 176 o
    281.25 95 o
    324 68 o
    358 74.375 o
    392 93.5 o
    425.875 123.375 o
    459.5 162 o
    493 207.625 o
    526.5 258.5 o
    560.125 312.625 o
    594 368 [
    640 444 ]
    681.5 508.375 o
    718 557.5 o
    752.125 593 o
    786.5 616.5 o
    823.125 629.625 o
    864 634 o
    912.375 627.25 o
    953.5 607 o
    986.375 575 o
    1010 533 v
    947 506 v
    931.75 534.75 o
    912 553 o
    888.5 562.75 o
    862 566 o
    829.125 560 o
    798.5 542 o
    767.625 509.75 o
    734 461 [
    663 343 ]
    629.25 287.625 o
    594 229.5 o
    556.5 171.75 o
    516 117.5 o
    472.25 70 o
    425 32.5 o
    373.75 8.125 o
    0 0 z
  EndSpiro
EndSplineSet
EndChar

StartChar: uni1701
Encoding: 5 5889 6
Width: 1011
GlyphClass: 2
InSpiro: 1
Flags: W
LayerCount: 3
Back
SplineSet
47 137 m 0,0,1
 105.616105534 107.958892483 105.616105534 107.958892483 170.086892848 110.865419838 c 0,2,3
 235.404277087 114.614173984 235.404277087 114.614173984 290 149 c 0,4,5
 343.817593303 184.019098234 343.817593303 184.019098234 374.202008296 239.233195496 c 0,6,7
 404.336564201 295.800146927 404.336564201 295.800146927 404 359 c 1,8,9
 407.593288913 291.391391183 407.593288913 291.391391183 440 233 c 0,10,11
 457.975282309 201.519073101 457.975282309 201.519073101 482 176 c 1,12,13
 524.554979248 204.60695078 524.554979248 204.60695078 554 245 c 0,14,15
 590.969643077 297.077797173 590.969643077 297.077797173 602 359 c 1,16,17
 601.099176882 282.227963182 601.099176882 282.227963182 638 218 c 0,18,19
 667.671376671 168.103817587 667.671376671 168.103817587 711.900000314 139.503212067 c 0,20,21
 761.089111007 108.87040932 761.089111007 108.87040932 815 110 c 0,22,23
 870.990845945 112.180892032 870.990845945 112.180892032 914 146 c 1024
  Spiro
    47 137 {
    290 149 o
    404 359 v
    440 233 o
    482 176 v
    554 245 o
    602 359 v
    638 218 o
    815 110 o
    914 146 v
    0 0 z
  EndSpiro
53 542 m 0,25,26
 137.074214389 466.286024653 137.074214389 466.286024653 254 458 c 0,27,28
 341.640444365 452.075562971 341.640444365 452.075562971 489.841136092 499.134678074 c 0,29,30
 494.933761002 500.754280752 494.933761002 500.754280752 499.594133359 502.24531948 c 0,31,32
 643.908587518 548.448250966 643.908587518 548.448250966 723.574417693 548.580195691 c 0,33,34
 734.915195886 548.542074443 734.915195886 548.542074443 745 548 c 0,35,36
 870.112889191 540.19761608 870.112889191 540.19761608 956 458 c 1024
  Spiro
    53 542 {
    254 458 o
    745 548 o
    956 458 o
    0 0 z
  EndSpiro
EndSplineSet
Fore
SplineSet
15.90088106 74.2726192273 m 1,0,-1
 78.0652407496 199.744165582 l 1,1,2
 120.985934045 179.044761836 120.985934045 179.044761836 166.480099649 180.76117419 c 0,3,4
 213.661346725 184.085605703 213.661346725 184.085605703 252.287054124 207.989556809 c 0,5,6
 269.418535356 219.495299363 269.418535356 219.495299363 282.529799452 232.424859288 c 0,7,8
 300.380062412 250.776725373 300.380062412 250.776725373 312.632910888 272.571875209 c 0,9,10
 334.017316777 313.995140439 334.017316777 313.995140439 334.014726248 358.624443438 c 1,11,-1
 473.88689845 362.74241853 l 1,12,13
 476.604539663 318.86304347 476.604539663 318.86304347 493.832626158 281.447116329 c 1,14,15
 495.505364107 283.613481345 495.505364107 283.613481345 497.130424548 285.833293747 c 0,16,17
 524.740431249 325.687060755 524.740431249 325.687060755 533.104472255 371.351107909 c 1,18,-1
 671.981419465 358.172564658 l 1,19,20
 671.834424786 300.42281279 671.834424786 300.42281279 698.456934052 253.315487369 c 0,21,22
 711.114745723 232.688459378 711.114745723 232.688459378 725.605447479 217.980560465 c 0,23,24
 737.232826133 206.718544815 737.232826133 206.718544815 749.387955888 198.637472173 c 0,25,26
 781.035865646 179.714860934 781.035865646 179.714860934 812.895911025 179.959246551 c 0,27,28
 846.15655673 182.064039703 846.15655673 182.064039703 870.785010124 201.075412536 c 1,29,-1
 957.328813354 91.0140895378 l 1,30,31
 895.795828389 43.4485303286 895.795828389 43.4485303286 817.744658217 40.0671575744 c 2,32,-1
 817.111168853 40.042482614 l 1,33,-1
 816.477307311 40.0292013622 l 2,34,35
 741.339680157 39.0376172486 741.339680157 39.0376172486 674.921365052 80.0529879852 c 2,36,-1
 674.41889957 80.365901266 l 1,37,-1
 673.92173255 80.6873961858 l 2,38,39
 648.035154954 97.7480775623 648.035154954 97.7480775623 626.610498113 118.985611098 c 0,40,41
 602.861237263 143.121045504 602.861237263 143.121045504 584.261547074 171.805332898 c 1,42,43
 579.246520369 166.470310048 579.246520369 166.470310048 575.065409892 162.256070535 c 0,44,45
 549.866218552 137.408233401 549.866218552 137.408233401 521.01347598 117.866770472 c 2,46,-1
 471.759491005 84.756512899 l 1,47,-1
 431.008526498 128.042217879 l 2,48,49
 416.699770676 143.452302577 416.699770676 143.452302577 404.726034125 159.333138257 c 1,50,51
 393.304359289 145.310198117 393.304359289 145.310198117 381.524748818 133.429909922 c 0,52,53
 356.829933298 109.111159721 356.829933298 109.111159721 328.144379099 90.2919363827 c 0,54,-1
 327.277708494 89.7370811625 l 1,55,56
 256.879003544 46.0115296103 256.879003544 46.0115296103 174.127156175 40.9949833817 c 0,57,-1
 173.262748642 40.9506947965 l 1,58,59
 90.2772703742 37.7135505644 90.2772703742 37.7135505644 15.90088106 74.2726192273 c 1,0,-1
6.19414953832 489.947819986 m 0,60,-1
 99.8058504617 594.052180014 l 1,61,62
 166.8530748 534.665344704 166.8530748 534.665344704 258.755468458 527.82574017 c 0,63,64
 333.996127438 523.258167931 333.996127438 523.258167931 468.491276509 565.804738937 c 2,65,-1
 478.171119309 568.892003963 l 2,66,67
 633.054715824 618.221836804 633.054715824 618.221836804 723.457615898 618.566372704 c 2,68,-1
 723.634545439 618.566665739 l 2,69,70
 737.364658005 618.472818225 737.364658005 618.472818225 748.784761013 617.884635245 c 0,71,-1
 749.388705189 617.849572655 l 1,72,73
 900.229443714 607.71509682 900.229443714 607.71509682 1004.38033479 508.590380693 c 0,74,-1
 907.619665212 407.409619307 l 1,75,76
 839.443179008 471.559706178 839.443179008 471.559706178 740.91626064 478.131278163 c 0,77,78
 732.205615782 478.538691447 732.205615782 478.538691447 723.522583866 478.593660098 c 0,79,80
 653.797791776 477.98006243 653.797791776 477.98006243 521.017147409 435.598634997 c 2,81,-1
 511.190995675 432.464617211 l 2,82,83
 350.214594543 381.348749252 350.214594543 381.348749252 249.244531542 388.17425983 c 0,84,85
 107.872236127 398.882374201 107.872236127 398.882374201 6.19414953832 489.947819986 c 0,60,-1
EndSplineSet
Layer: 2
SplineSet
283 425 m 0,0,1
 210 425 210 425 151.5 448.5 c 128,-1,2
 93 472 93 472 32 517 c 1,3,-1
 70 573 l 1,4,5
 110 545 110 545 143 527 c 128,-1,6
 176 509 176 509 209.5 501 c 128,-1,7
 243 493 243 493 285 493 c 0,8,9
 347 493 347 493 406.5 508 c 128,-1,10
 466 523 466 523 510 537 c 0,11,12
 555 551 555 551 610 565 c 128,-1,13
 665 579 665 579 725 579 c 0,14,15
 799 579 799 579 858 555.5 c 128,-1,16
 917 532 917 532 978 487 c 1,17,-1
 936 433 l 1,18,19
 902 459 902 459 869 476 c 128,-1,20
 836 493 836 493 799 502 c 128,-1,21
 762 511 762 511 712 511 c 0,22,23
 666 511 666 511 618 497.5 c 128,-1,24
 570 484 570 484 531 472 c 0,25,26
 482 456 482 456 415.5 440.5 c 128,-1,27
 349 425 349 425 283 425 c 0,0,1
  Spiro
    283 425 o
    213.625 430.875 o
    151.5 448.5 o
    92.375 477.375 o
    32 517 v
    70 573 v
    108.25 547.5 o
    143 527 o
    176.125 511.5 o
    209.5 501 o
    245.125 495 o
    285 493 o
    346.375 496.75 o
    406.5 508 o
    462.125 522.75 o
    510 537 o
    557.5 551 o
    610 565 o
    666.25 575.5 o
    725 579 o
    795.25 573.125 o
    858 555.5 o
    917.5 526.625 o
    978 487 v
    936 433 v
    902.25 456.75 o
    869 476 o
    835 491 o
    799 502 o
    758.75 508.75 o
    712 511 o
    665.5 507.625 o
    618 497.5 o
    572.25 484.375 o
    531 472 o
    477.625 456.125 o
    415.5 440.5 o
    349.125 428.875 o
    0 0 z
  EndSpiro
180 78 m 0,28,29
 91 78 91 78 35 114 c 1,30,-1
 71 172 l 1,31,32
 111 146 111 146 180 146 c 0,33,34
 248 146 248 146 302 200 c 128,-1,35
 356 254 356 254 382 362 c 1,36,-1
 428 362 l 1,37,38
 439 314 439 314 454.5 280.5 c 128,-1,39
 470 247 470 247 488 224 c 1,40,41
 505 236 505 236 523.5 261 c 128,-1,42
 542 286 542 286 557.5 314 c 128,-1,43
 573 342 573 342 581 362 c 1,44,-1
 627 362 l 1,45,46
 638 303 638 303 660.5 254 c 128,-1,47
 683 205 683 205 719 175.5 c 128,-1,48
 755 146 755 146 804 146 c 0,49,50
 837 146 837 146 856.5 154 c 128,-1,51
 876 162 876 162 901 175 c 1,52,-1
 933 115 l 1,53,54
 902 99 902 99 874.5 88.5 c 128,-1,55
 847 78 847 78 805 78 c 0,56,57
 748 78 748 78 707.5 101 c 128,-1,58
 667 124 667 124 639 161.5 c 128,-1,59
 611 199 611 199 591 240 c 1,60,61
 572 216 572 216 543.5 183.5 c 128,-1,62
 515 151 515 151 475 126 c 1,63,64
 457 147 457 147 437 176 c 128,-1,65
 417 205 417 205 406 229 c 1,66,67
 385 191 385 191 353 156 c 128,-1,68
 321 121 321 121 278 99.5 c 128,-1,69
 235 78 235 78 180 78 c 0,28,29
  Spiro
    180 78 o
    99.25 87 o
    35 114 v
    71 172 v
    118.25 152.5 o
    180 146 o
    244.5 159.5 o
    302 200 o
    349 267.5 o
    382 362 v
    428 362 v
    440.125 317.625 o
    454.5 280.5 o
    470.625 249.625 o
    488 224 v
    505.375 239.25 o
    523.5 261 o
    541.25 286.75 o
    557.5 314 o
    571.125 340 o
    581 362 v
    627 362 v
    640.875 305.5 o
    660.5 254 o
    686.375 209.875 o
    719 175.5 o
    758.25 153.375 o
    804 146 o
    833.625 148 o
    856.5 154 o
    877.375 163.25 o
    901 175 v
    933 115 v
    902.875 100.375 o
    874.5 88.5 o
    843.375 80.625 o
    805 78 o
    752.125 83.75 o
    707.5 101 o
    670.125 127.625 o
    639 161.5 o
    613 199.875 o
    591 240 v
    569.625 213.875 o
    543.5 183.5 o
    512.125 152.875 o
    475 126 v
    456.5 149 o
    437 176 o
    419.25 203.75 o
    406 229 v
    382.25 191.75 o
    353 156 o
    318.25 124.375 o
    278 99.5 o
    232 83.375 o
    0 0 z
  EndSpiro
EndSplineSet
EndChar

StartChar: uni1702
Encoding: 6 5890 7
Width: 535
GlyphClass: 2
Flags: W
LayerCount: 3
Back
SplineSet
126 562 m 0,0,1
 227.892891806 615.282309696 227.892891806 615.282309696 320 601 c 0,2,3
 372.36649869 591.976675192 372.36649869 591.976675192 403.407236426 561.391952758 c 0,4,5
 420.547071626 543.46657181 420.547071626 543.46657181 428.570732608 522.202925021 c 0,6,7
 436.431828945 499.278427557 436.431828945 499.278427557 434 476 c 0,8,9
 430.785217898 451.871256735 430.785217898 451.871256735 417.984995724 430.419721039 c 0,10,11
 405.160319428 410.171915017 405.160319428 410.171915017 386 394 c 0,12,13
 351.618142565 366.066480238 351.618142565 366.066480238 305.698284809 354.269095046 c 0,14,15
 271.994800299 346.039386824 271.994800299 346.039386824 216 346 c 2,16,-1
 198 346 l 1,17,-1
 246 346 l 2,18,19
 295.820178091 345.833560519 295.820178091 345.833560519 321.307978278 341.600181773 c 0,20,21
 362.027433603 334.223142659 362.027433603 334.223142659 391.483508933 315.158017875 c 0,22,23
 424.447718727 292.665934774 424.447718727 292.665934774 441.123354763 259.428004877 c 0,24,25
 457.724019359 224.228795025 457.724019359 224.228795025 454 186 c 0,26,27
 449.752916527 150.387892901 449.752916527 150.387892901 429.689870187 119.934137409 c 0,28,29
 409.601281292 90.8888560503 409.601281292 90.8888560503 379.050160304 70.7321990025 c 0,30,31
 323.687668328 35.4181802926 323.687668328 35.4181802926 244 32 c 0,32,33
 152.899308258 28.753779973 152.899308258 28.753779973 60 64 c 1024
  Spiro
    126 562 {
    320 601 o
    434 476 o
    386 394 o
    216 346 [
    198 346 v
    246 346 ]
    454 186 o
    244 32 o
    60 64 o
    0 0 z
  EndSpiro
EndSplineSet
Fore
SplineSet
158.438384237 499.954301964 m 1,0,-1
 93.5508675102 624.040077509 l 1,1,2
 216.279776958 687.542079144 216.279776958 687.542079144 330.795080301 670.154721452 c 0,3,-1
 331.96026187 669.96401187 l 1,4,5
 406.026262941 656.543056016 406.026262941 656.543056016 452.530155267 611.261222644 c 0,6,-1
 454.019815209 609.749082584 l 1,7,8
 480.992040092 580.865781738 480.992040092 580.865781738 494.047865821 546.982060474 c 2,9,-1
 494.422716584 545.988661796 l 1,10,-1
 494.767279472 544.983848892 l 2,11,12
 507.369016436 506.920326209 507.369016436 506.920326209 503.604851159 468.676104178 c 2,13,-1
 503.501100467 467.682961558 l 1,14,-1
 503.369262377 466.693442732 l 2,15,16
 497.785116113 427.938473065 497.785116113 427.938473065 478.121883741 394.567400106 c 2,17,-1
 477.648225716 393.773609819 l 1,18,-1
 477.153485874 392.992506568 l 2,19,20
 464.914448355 374.125242914 464.914448355 374.125242914 450.150236399 358.406440333 c 1,21,22
 457.868351436 351.748305195 457.868351436 351.748305195 464.075097093 345.617890566 c 0,23,24
 488.53803283 320.608796316 488.53803283 320.608796316 503.695432962 290.83861891 c 2,25,-1
 504.074148133 290.083762647 l 1,26,-1
 504.434444521 289.319808403 l 2,27,28
 528.919731754 236.164630071 528.919731754 236.164630071 523.654234021 179.16533804 c 2,29,-1
 523.580522207 178.408651897 l 1,30,-1
 523.49050901 177.653884628 l 2,31,32
 516.762958312 125.295639919 516.762958312 125.295639919 488.181864178 81.4597522426 c 0,33,-1
 487.303933139 80.1592973659 l 2,34,35
 473.854438852 61.1202269536 473.854438852 61.1202269536 458.349923547 45.453631796 c 0,36,37
 439.267883855 26.7347360348 439.267883855 26.7347360348 417.56358237 12.2659414858 c 2,38,-1
 417.116319124 11.9708514338 l 1,39,40
 344.824174561 -33.4837069173 344.824174561 -33.4837069173 247.022029319 -37.9214916731 c 0,41,-1
 246.511226746 -37.9415475478 l 2,42,43
 141.219622611 -41.6934368856 141.219622611 -41.6934368856 35.103451001 -1.43270725154 c 1,44,-1
 84.7720271082 129.479951155 l 1,45,46
 164.927055854 99.4702733012 164.927055854 99.4702733012 241.232026079 101.932489112 c 0,47,48
 301.788109984 105.013701257 301.788109984 105.013701257 340.979388813 129.491761302 c 0,49,50
 351.533574701 136.797632507 351.533574701 136.797632507 359.354974181 144.448581162 c 0,51,52
 366.412679334 151.818599884 366.412679334 151.818599884 371.623983303 159.060528686 c 0,53,54
 381.944328629 175.837816234 381.944328629 175.837816234 384.41594629 193.587462306 c 0,55,56
 385.520097672 212.300964784 385.520097672 212.300964784 378.179246736 228.749113169 c 0,57,58
 372.473220729 238.987727751 372.473220729 238.987727751 365.080147727 246.6229412 c 0,59,60
 358.993465502 252.36544272 358.993465502 252.36544272 352.784289919 256.80410263 c 0,61,62
 334.507787423 267.807257026 334.507787423 267.807257026 309.299334748 272.64145934 c 0,63,64
 288.119320101 275.805674745 288.119320101 275.805674745 245.764398172 276.014119811 c 0,65,66
 230.975514075 276.014119811 230.975514075 276.014119811 216.186629977 276.013876109 c 0,67,-1
 198 276.013726262 l 1,68,-1
 198 415.986273738 l 1,69,-1
 216 415.986273738 l 2,70,71
 262.952754224 416.157618793 262.952754224 416.157618793 288.623201053 422.15623478 c 0,72,73
 319.455979389 430.604567468 319.455979389 430.604567468 341.389295684 447.955114552 c 0,74,75
 344.759710765 450.959088205 344.759710765 450.959088205 346.979667856 453.116860738 c 0,76,77
 353.72202609 460.218494928 353.72202609 460.218494928 358.304174014 467.048025176 c 0,78,79
 363.057132899 476.000426121 363.057132899 476.000426121 364.485539213 484.288012902 c 0,80,81
 364.665035189 491.817093636 364.665035189 491.817093636 362.72757114 498.358552812 c 0,82,83
 359.077380435 505.997546555 359.077380435 505.997546555 353.54276281 512.240433101 c 0,84,85
 337.169918631 526.627944879 337.169918631 526.627944879 308.616119767 531.935627442 c 0,86,87
 238.94349108 541.73566454 238.94349108 541.73566454 158.438384237 499.954301964 c 1,0,-1
EndSplineSet
Layer: 2
SplineSet
243 0 m 0,0,1
 179 0 179 0 133.5 9 c 128,-1,2
 88 18 88 18 48 33 c 1,3,-1
 73 98 l 1,4,5
 110 82 110 82 157.5 75 c 128,-1,6
 205 68 205 68 242 68 c 0,7,8
 301 68 301 68 338 88 c 128,-1,9
 375 108 375 108 393 139 c 128,-1,10
 411 170 411 170 411 202 c 0,11,12
 411 254 411 254 375.5 282.5 c 128,-1,13
 340 311 340 311 267 311 c 2,14,-1
 198 311 l 1,15,-1
 198 379 l 1,16,-1
 244 379 l 2,17,18
 297 379 297 379 329.5 395.5 c 128,-1,19
 362 412 362 412 376.5 436.5 c 128,-1,20
 391 461 391 461 391 485 c 0,21,22
 391 518 391 518 365 542 c 128,-1,23
 339 566 339 566 278 566 c 0,24,25
 238 566 238 566 200 556.5 c 128,-1,26
 162 547 162 547 136 534 c 1,27,-1
 108 597 l 1,28,29
 153 618 153 618 192 626 c 128,-1,30
 231 634 231 634 282 634 c 0,31,32
 371 634 371 634 419.5 595 c 128,-1,33
 468 556 468 556 468 489 c 0,34,35
 468 444 468 444 446.5 410 c 128,-1,36
 425 376 425 376 380 356 c 1,37,38
 426 343 426 343 456.5 302.5 c 128,-1,39
 487 262 487 262 487 203 c 0,40,41
 487 139 487 139 455.5 93.5 c 128,-1,42
 424 48 424 48 369 24 c 128,-1,43
 314 0 314 0 243 0 c 0,0,1
  Spiro
    243 0 o
    183.625 2.25 o
    133.5 9 o
    89.375 19.5 o
    48 33 v
    73 98 v
    112.625 84.25 o
    157.5 75 o
    202.375 69.75 o
    242 68 o
    295.5 73 o
    338 88 o
    370.25 110.75 o
    393 139 o
    406.5 170.25 o
    411 202 o
    402.125 248.125 o
    375.5 282.5 o
    330.625 303.875 o
    267 311 [
    198 311 v
    198 379 v
    244 379 ]
    291.875 383.125 o
    329.5 395.5 o
    357.5 414 o
    376.5 436.5 o
    387.375 460.875 o
    391 485 o
    384.5 515.75 o
    365 542 o
    330.25 560 o
    278 566 o
    238.5 563.625 o
    200 556.5 o
    165 546.125 o
    136 534 v
    108 597 v
    151.5 614.75 o
    192 626 o
    234 632 o
    282 634 o
    360.875 624.25 o
    419.5 595 o
    455.875 549 o
    468 489 o
    462.625 446.75 o
    446.5 410 o
    419.125 379.5 o
    380 356 v
    422.125 336.125 o
    456.5 302.5 o
    479.375 257.375 o
    487 203 o
    479.125 143.625 o
    455.5 93.5 o
    418.125 53.375 o
    369 24 o
    310 6 o
    0 0 z
  EndSpiro
EndSplineSet
EndChar

StartChar: uni1703
Encoding: 7 5891 8
Width: 984
GlyphClass: 2
InSpiro: 1
Flags: W
AnchorPoint: "Anchor-1" 539 0 basechar 0
AnchorPoint: "Anchor-0" 488 693 basechar 0
LayerCount: 3
Back
SplineSet
498 482 m 1,0,-1
 498 134 l 1025
  Spiro
    498 482 {
    498 134 v
    0 0 z
  EndSpiro
71 132 m 0,2,3
 138.31078591 63.3764726048 138.31078591 63.3764726048 236 57 c 0,4,5
 283.336761518 54.445055461 283.336761518 54.445055461 333.147460938 67.6572265625 c 0,6,7
 367.635442973 77.0729457529 367.635442973 77.0729457529 425 102 c 2,8,-1
 563 162 l 2,9,10
 627.44986593 189.859624149 627.44986593 189.859624149 663.610351562 199.963867188 c 0,11,12
 719.270664063 215.037400641 719.270664063 215.037400641 770 213 c 0,13,14
 851.402709757 208.893094877 851.402709757 208.893094877 917 165 c 1024
  Spiro
    71 132 {
    236 57 o
    425 102 [
    563 162 ]
    770 213 o
    917 165 o
    0 0 z
  EndSpiro
71 488 m 0,16,17
 138.311365836 419.375888311 138.311365836 419.375888311 236 413 c 0,18,19
 283.334181496 410.445028072 283.334181496 410.445028072 333.147372607 423.657376467 c 0,20,21
 367.629693963 433.071215894 367.629693963 433.071215894 425 458 c 2,22,-1
 563 518 l 2,23,24
 627.446361998 545.858580933 627.446361998 545.858580933 663.610503929 555.963554804 c 0,25,26
 719.271513334 571.037274806 719.271513334 571.037274806 770 569 c 0,27,28
 851.402290005 564.893665719 851.402290005 564.893665719 917 521 c 1024
  Spiro
    71 488 {
    236 413 o
    425 458 [
    563 518 ]
    770 569 o
    917 521 o
    0 0 z
  EndSpiro
EndSplineSet
Fore
SplineSet
428.013726262 482 m 1,0,-1
 567.986273738 482 l 1,1,-1
 567.986273738 134 l 1,2,-1
 428.013726262 134 l 1,3,-1
 428.013726262 482 l 1,0,-1
21.0179865957 82.9917642577 m 1,4,-1
 120.982013404 181.008235742 l 1,5,6
 121.695960151 180.280365113 121.695960151 180.280365113 122.4115107 179.56483374 c 0,7,8
 171.299395977 131.819135014 171.299395977 131.819135014 240.193417531 126.862940277 c 0,9,10
 276.704102161 125.294666124 276.704102161 125.294666124 314.865554573 135.229587088 c 0,11,12
 345.423684178 143.824512599 345.423684178 143.824512599 397.042363212 166.187405462 c 2,13,-1
 535.177370116 226.245934301 l 2,14,15
 604.168584736 255.945532642 604.168584736 255.945532642 644.688024878 267.359935002 c 0,16,-1
 645.228139247 267.50852874 l 2,17,18
 711.750129694 285.218820864 711.750129694 285.218820864 772.82986513 282.929471938 c 0,19,-1
 773.553071804 282.8967066 l 1,20,21
 874.612204582 277.24896566 874.612204582 277.24896566 955.889702418 223.216242144 c 0,22,-1
 878.110297582 106.783757856 l 1,23,24
 827.935377663 139.657347386 827.935377663 139.657347386 766.811728084 143.084640934 c 0,25,26
 726.550486916 144.301910106 726.550486916 144.301910106 682.271093882 132.494518271 c 0,27,28
 649.7018315 123.144154063 649.7018315 123.144154063 590.822629884 97.7540656985 c 2,29,-1
 452.957636788 37.8125945378 l 2,30,31
 390.746247927 10.9147347736 390.746247927 10.9147347736 351.668061179 0.15019454219 c 2,32,-1
 351.423660396 0.0834695844825 l 2,33,34
 290.170462191 -15.8476427668 290.170462191 -15.8476427668 232.199644002 -12.8837952568 c 0,35,-1
 231.407412012 -12.8365613131 l 1,36,37
 108.632708658 -4.06663477749 108.632708658 -4.06663477749 23.4165613342 80.5698843742 c 0,38,39
 22.2119670735 81.7744786349 22.2119670735 81.7744786349 21.0179865957 82.9917642577 c 1,4,-1
21.0179891182 438.991761686 m 1,40,-1
 120.982010882 537.008238314 l 1,41,42
 121.695970228 536.280354913 121.695970228 536.280354913 122.411533113 535.564811205 c 0,43,44
 171.299901352 487.818624803 171.299901352 487.818624803 240.193364293 482.862941135 c 0,45,46
 276.701959697 481.294633608 276.701959697 481.294633608 314.866077105 491.22990149 c 0,47,48
 345.418901383 499.823119272 345.418901383 499.823119272 397.042363212 522.187405462 c 2,49,-1
 535.176976808 582.245764286 l 2,50,51
 604.165186518 611.944547525 604.165186518 611.944547525 644.688679691 623.359763013 c 0,52,-1
 645.22829408 623.508217024 l 2,53,54
 711.750903839 641.21867817 711.750903839 641.21867817 772.829737947 638.929477046 c 0,55,-1
 773.552597578 638.896730524 l 1,56,57
 874.611692291 633.249663036 874.611692291 633.249663036 955.889878976 579.216124003 c 0,58,-1
 878.110121024 462.783875997 l 1,59,60
 827.934991054 495.657820895 827.934991054 495.657820895 766.811998492 499.084629828 c 0,61,62
 726.551322554 500.301818691 726.551322554 500.301818691 682.270981502 488.494134401 c 0,63,64
 649.698727646 479.14323301 649.698727646 479.14323301 590.823023192 453.754235714 c 2,65,-1
 452.957636788 393.812594538 l 2,66,67
 390.739954003 366.912816544 390.739954003 366.912816544 351.667363947 356.150178211 c 2,68,-1
 351.422960842 356.083454989 l 2,69,70
 290.1674827 340.152319213 290.1674827 340.152319213 232.1993969 343.116218081 c 0,71,-1
 231.407803763 343.163413117 l 1,72,73
 108.633435911 351.932637742 108.633435911 351.932637742 23.416583747 436.569861839 c 0,74,75
 22.2119796021 437.774465984 22.2119796021 437.774465984 21.0179891182 438.991761686 c 1,40,-1
EndSplineSet
Layer: 2
SplineSet
253 21 m 0,0,1
 188 21 188 21 142.5 44 c 128,-1,2
 97 67 97 67 51 106 c 1,3,-1
 95 159 l 1,4,5
 129 127 129 127 166 108 c 128,-1,6
 203 89 203 89 255 89 c 0,7,8
 280 89 280 89 305 95 c 128,-1,9
 330 101 330 101 347 108 c 2,10,-1
 459 155 l 1,11,-1
 459 437 l 1,12,-1
 374 402 l 2,13,14
 351 392 351 392 318.5 384.5 c 128,-1,15
 286 377 286 377 253 377 c 0,16,17
 188 377 188 377 142.5 400 c 128,-1,18
 97 423 97 423 51 462 c 1,19,-1
 95 515 l 1,20,21
 129 483 129 483 166 464 c 128,-1,22
 203 445 203 445 255 445 c 0,23,24
 280 445 280 445 305 451 c 128,-1,25
 330 457 330 457 347 464 c 2,26,-1
 610 574 l 2,27,28
 633 584 633 584 671.5 594.5 c 128,-1,29
 710 605 710 605 743 605 c 0,30,31
 799 605 799 605 843 592.5 c 128,-1,32
 887 580 887 580 933 555 c 1,33,-1
 902 494 l 1,34,35
 862 515 862 515 826.5 526 c 128,-1,36
 791 537 791 537 747 537 c 0,37,38
 722 537 722 537 688 528.5 c 128,-1,39
 654 520 654 520 637 512 c 2,40,-1
 536 469 l 1,41,-1
 536 187 l 1,42,-1
 610 218 l 2,43,44
 633 228 633 228 671.5 238.5 c 128,-1,45
 710 249 710 249 743 249 c 0,46,47
 799 249 799 249 843 236.5 c 128,-1,48
 887 224 887 224 933 199 c 1,49,-1
 902 138 l 1,50,51
 862 159 862 159 826.5 170 c 128,-1,52
 791 181 791 181 747 181 c 0,53,54
 722 181 722 181 688 172.5 c 128,-1,55
 654 164 654 164 637 156 c 2,56,-1
 374 46 l 2,57,58
 351 36 351 36 318.5 28.5 c 128,-1,59
 286 21 286 21 253 21 c 0,0,1
  Spiro
    253 21 o
    192.875 26.75 o
    142.5 44 o
    96.875 71 o
    51 106 v
    95 159 v
    129.75 130.25 o
    166 108 o
    206.75 93.75 o
    255 89 o
    280 90.5 o
    305 95 o
    328 101.25 o
    347 108 [
    459 155 v
    459 437 v
    374 402 ]
    348.625 392.625 o
    318.5 384.5 o
    285.875 378.875 o
    253 377 o
    192.875 382.75 o
    142.5 400 o
    96.875 427 o
    51 462 v
    95 515 v
    129.75 486.25 o
    166 464 o
    206.75 449.75 o
    255 445 o
    280 446.5 o
    305 451 o
    328 457.25 o
    347 464 [
    610 574 ]
    636.875 584.125 o
    671.5 594.5 o
    708.625 602.375 o
    743 605 o
    796 601.875 o
    843 592.5 o
    887.5 576.875 o
    933 555 v
    902 494 v
    863.125 512.5 o
    826.5 526 o
    788.875 534.25 o
    747 537 o
    719.75 534.875 o
    688 528.5 o
    658.25 520.125 o
    637 512 [
    536 469 v
    536 187 v
    610 218 ]
    636.875 228.125 o
    671.5 238.5 o
    708.625 246.375 o
    743 249 o
    796 245.875 o
    843 236.5 o
    887.5 220.875 o
    933 199 v
    902 138 v
    863.125 156.5 o
    826.5 170 o
    788.875 178.25 o
    747 181 o
    719.75 178.875 o
    688 172.5 o
    658.25 164.125 o
    637 156 [
    374 46 ]
    348.625 36.625 o
    318.5 28.5 o
    285.875 22.875 o
    0 0 z
  EndSpiro
EndSplineSet
EndChar

StartChar: uni1704
Encoding: 8 5892 9
Width: 837
GlyphClass: 2
Flags: W
AnchorPoint: "Anchor-1" 545 0 basechar 0
AnchorPoint: "Anchor-0" 400 693 basechar 0
LayerCount: 3
Back
SplineSet
422 537 m 0,0,1
 448.412981557 556.554322584 448.412981557 556.554322584 478 566 c 0,2,3
 514.843023256 577.50039135 514.843023256 577.50039135 548.550277672 570.977982656 c 0,4,5
 585.611912498 563.10519544 585.611912498 563.10519544 610 537 c 0,6,7
 625.937110705 518.888521108 625.937110705 518.888521108 634.617182285 495.233739939 c 0,8,9
 641.92022829 474.052181015 641.92022829 474.052181015 644.44397298 447.562299585 c 0,10,11
 646.068719938 428.828921542 646.068719938 428.828921542 646 350 c 2,12,-1
 646 174 l 2,13,14
 646.267024777 135.97869824 646.267024777 135.97869824 651.61583942 116.176522751 c 0,15,16
 660.564636037 86.4251323864 660.564636037 86.4251323864 681.181406833 66.8047148438 c 0,17,18
 702.317835378 47.9146010845 702.317835378 47.9146010845 732.228208302 39.931541243 c 0,19,20
 752.601617634 34.8803985153 752.601617634 34.8803985153 790 33 c 2,21,-1
 810 32 l 1025
  Spiro
    422 537 {
    478 566 o
    610 537 o
    646 350 [
    646 174 ]
    790 33 [
    810 32 o
    0 0 z
  EndSpiro
126 562 m 0,23,24
 227.892891806 615.282309696 227.892891806 615.282309696 320 601 c 0,25,26
 372.36649869 591.976675192 372.36649869 591.976675192 403.407236426 561.391952758 c 0,27,28
 420.547071626 543.46657181 420.547071626 543.46657181 428.570732608 522.202925021 c 0,29,30
 436.431828945 499.278427557 436.431828945 499.278427557 434 476 c 0,30,31
 430.785217898 451.871256735 430.785217898 451.871256735 417.984995724 430.419721039 c 0,32,33
 405.160319428 410.171915017 405.160319428 410.171915017 386 394 c 0,33,34
 351.618142565 366.066480238 351.618142565 366.066480238 305.698284809 354.269095046 c 0,35,36
 271.994800299 346.039386824 271.994800299 346.039386824 216 346 c 2,36,-1
 198 346 l 1,37,-1
 246 346 l 2,38,39
 295.820178091 345.833560519 295.820178091 345.833560519 321.307978278 341.600181773 c 0,40,41
 362.027433603 334.223142659 362.027433603 334.223142659 391.483508933 315.158017875 c 0,42,43
 424.447718727 292.665934774 424.447718727 292.665934774 441.123354763 259.428004877 c 0,44,45
 457.724019359 224.228795025 457.724019359 224.228795025 454 186 c 0,43,44
 449.752916527 150.387892901 449.752916527 150.387892901 429.689870187 119.934137409 c 0,45,46
 409.601281292 90.8888560503 409.601281292 90.8888560503 379.050160304 70.7321990025 c 0,46,47
 323.687668328 35.4181802926 323.687668328 35.4181802926 244 32 c 0,48,49
 152.899308258 28.753779973 152.899308258 28.753779973 60 64 c 1024
  Spiro
    126 562 {
    320 601 o
    434 476 o
    386 394 o
    216 346 [
    198 346 v
    246 346 ]
    454 186 o
    244 32 o
    60 64 o
    0 0 z
  EndSpiro
EndSplineSet
Fore
SplineSet
735.986328125 174.258789062 m 6,0,1
 736.252929688 148.604492188 736.252929688 148.604492188 739.010742188 135.188476562 c 4,2,3
 742.909179688 124.380859375 742.909179688 124.380859375 748.673828125 118.262695312 c 4,4,5
 757.866210938 111.198242188 757.866210938 111.198242188 769.69921875 107.72265625 c 4,6,7
 784.974609375 104.419921875 784.974609375 104.419921875 813.521484375 102.8984375 c 6,8,-1
 833.521484375 101.8984375 l 5,9,-1
 826.53125 -37.9013671875 l 5,10,-1
 826.478515625 -37.8984375 l 5,11,-1
 806.478515625 -36.8984375 l 6,12,13
 761.973632812 -34.486328125 761.973632812 -34.486328125 735.298828125 -27.990234375 c 4,14,-1
 734.092773438 -27.6796875 l 6,15,16
 687.877929688 -14.80859375 687.877929688 -14.80859375 654.575195312 14.57421875 c 6,17,-1
 653.749023438 15.3115234375 l 5,18,-1
 652.9453125 16.076171875 l 6,19,20
 651.368164062 17.578125 651.368164062 17.578125 649.823242188 19.1220703125 c 4,21,22
 618.265625 51.45703125 618.265625 51.45703125 604.603515625 95.931640625 c 6,23,-1
 604.317382812 96.880859375 l 5,24,-1
 604.059570312 97.8388671875 l 6,25,26
 596.3984375 127.297851562 596.3984375 127.297851562 596.015625 173.504882812 c 4,27,-1
 596.013671875 174 l 5,28,-1
 596.013671875 350 l 6,29,30
 596.060546875 423.243164062 596.060546875 423.243164062 594.740234375 441.241210938 c 4,31,32
 592.836914062 458.955078125 592.836914062 458.955078125 588.682617188 471.685546875 c 4,33,34
 584.224609375 482.51171875 584.224609375 482.51171875 578.124023438 489.971679688 c 4,35,36
 567.80859375 499.205078125 567.80859375 499.205078125 554.564453125 502.387695312 c 4,37,38
 537.858398438 504.850585938 537.858398438 504.850585938 519.155273438 499.267578125 c 4,39,40
 500.185546875 492.758789062 500.185546875 492.758789062 483.599609375 480.692382812 c 5,41,-1
 400.288085938 593.225585938 l 5,42,43
 436.661132812 619.704101562 436.661132812 619.704101562 476.631835938 632.6640625 c 4,44,-1
 477.061523438 632.799804688 l 6,45,46
 531.250976562 649.211914062 531.250976562 649.211914062 581.926757812 639.682617188 c 6,47,-1
 582.552734375 639.561523438 l 5,48,-1
 583.176757812 639.4296875 l 6,49,50
 638.579101562 627.013671875 638.579101562 627.013671875 676.748046875 589.341796875 c 4,51,52
 679.4609375 586.5703125 679.4609375 586.5703125 681.177734375 584.758789062 c 6,53,-1
 681.897460938 583.989257812 l 5,54,-1
 682.591796875 583.19921875 l 6,55,56
 707.171875 554.630859375 707.171875 554.630859375 720.31640625 519.416992188 c 6,57,-1
 720.552734375 518.7734375 l 5,58,-1
 720.775390625 518.125 l 6,59,60
 730.748046875 488.450195312 730.748046875 488.450195312 734.112304688 454.248046875 c 4,61,-1
 734.166992188 453.654296875 l 6,62,63
 736.048828125 430.388671875 736.048828125 430.388671875 735.986328125 350 c 6,64,-1
 735.986328125 174.258789062 l 6,0,1
158.438384237 499.954301964 m 1,65,-1
 93.5508675102 624.040077509 l 1,66,67
 216.279776958 687.542079144 216.279776958 687.542079144 330.795080301 670.154721452 c 0,68,-1
 331.96026187 669.96401187 l 1,69,70
 406.026262941 656.543056016 406.026262941 656.543056016 452.530155267 611.261222644 c 0,71,-1
 454.019815209 609.749082584 l 1,72,73
 480.992040092 580.865781738 480.992040092 580.865781738 494.047865821 546.982060474 c 2,74,-1
 494.422716584 545.988661796 l 1,75,-1
 494.767279472 544.983848892 l 2,76,77
 507.369016436 506.920326209 507.369016436 506.920326209 503.604851159 468.676104178 c 2,78,-1
 503.501100467 467.682961558 l 1,79,-1
 503.369262377 466.693442732 l 2,80,81
 497.785116113 427.938473065 497.785116113 427.938473065 478.121883741 394.567400106 c 2,82,-1
 477.648225716 393.773609819 l 1,83,-1
 477.153485874 392.992506568 l 2,84,85
 464.914448355 374.125242914 464.914448355 374.125242914 450.150236399 358.406440333 c 1,86,87
 457.868351436 351.748305195 457.868351436 351.748305195 464.075097093 345.617890566 c 0,88,89
 488.53803283 320.608796316 488.53803283 320.608796316 503.695432962 290.83861891 c 2,90,-1
 504.074148133 290.083762647 l 1,91,-1
 504.434444521 289.319808403 l 2,92,93
 528.919731754 236.164630071 528.919731754 236.164630071 523.654234021 179.16533804 c 2,94,-1
 523.580522207 178.408651897 l 1,95,-1
 523.49050901 177.653884628 l 2,96,97
 516.762958312 125.295639919 516.762958312 125.295639919 488.181864178 81.4597522426 c 0,98,-1
 487.303933139 80.1592973659 l 2,99,100
 473.854438852 61.1202269536 473.854438852 61.1202269536 458.349923547 45.453631796 c 0,101,102
 439.267883855 26.7347360348 439.267883855 26.7347360348 417.56358237 12.2659414858 c 2,103,-1
 417.116319124 11.9708514338 l 1,104,105
 344.824174561 -33.4837069173 344.824174561 -33.4837069173 247.022029319 -37.9214916731 c 0,106,-1
 246.511226746 -37.9415475478 l 2,107,108
 141.219622611 -41.6934368856 141.219622611 -41.6934368856 35.103451001 -1.43270725154 c 1,109,-1
 84.7720271082 129.479951155 l 1,110,111
 164.927055854 99.4702733012 164.927055854 99.4702733012 241.232026079 101.932489112 c 0,112,113
 301.788109984 105.013701257 301.788109984 105.013701257 340.979388813 129.491761302 c 0,114,115
 351.533574701 136.797632507 351.533574701 136.797632507 359.354974181 144.448581162 c 0,116,117
 366.412679334 151.818599884 366.412679334 151.818599884 371.623983303 159.060528686 c 0,118,119
 381.944328629 175.837816234 381.944328629 175.837816234 384.41594629 193.587462306 c 0,120,121
 385.520097672 212.300964784 385.520097672 212.300964784 378.179246736 228.749113169 c 0,122,123
 372.473220729 238.987727751 372.473220729 238.987727751 365.080147727 246.6229412 c 0,124,125
 358.993465502 252.36544272 358.993465502 252.36544272 352.784289919 256.80410263 c 0,126,127
 334.507787423 267.807257026 334.507787423 267.807257026 309.299334748 272.64145934 c 0,128,129
 288.119320101 275.805674745 288.119320101 275.805674745 245.764398172 276.014119811 c 0,130,131
 230.975514075 276.014119811 230.975514075 276.014119811 216.186629977 276.013876109 c 0,132,-1
 198 276.013726262 l 1,133,-1
 198 415.986273738 l 1,134,-1
 216 415.986273738 l 2,135,136
 262.952754224 416.157618793 262.952754224 416.157618793 288.623201053 422.15623478 c 0,137,138
 319.455979389 430.604567468 319.455979389 430.604567468 341.389295684 447.955114552 c 0,139,140
 344.759710765 450.959088205 344.759710765 450.959088205 346.979667856 453.116860738 c 0,141,142
 353.72202609 460.218494928 353.72202609 460.218494928 358.304174014 467.048025176 c 0,143,144
 363.057132899 476.000426121 363.057132899 476.000426121 364.485539213 484.288012902 c 0,145,146
 364.665035189 491.817093636 364.665035189 491.817093636 362.72757114 498.358552812 c 0,147,148
 359.077380435 505.997546555 359.077380435 505.997546555 353.54276281 512.240433101 c 0,149,150
 337.169918631 526.627944879 337.169918631 526.627944879 308.616119767 531.935627442 c 0,151,152
 238.94349108 541.73566454 238.94349108 541.73566454 158.438384237 499.954301964 c 1,65,-1
EndSplineSet
Layer: 2
SplineSet
243 0 m 0,0,1
 179 0 179 0 133.5 9 c 128,-1,2
 88 18 88 18 48 33 c 1,3,-1
 73 98 l 1,4,5
 110 82 110 82 157.5 75 c 128,-1,6
 205 68 205 68 242 68 c 0,7,8
 301 68 301 68 338 88 c 128,-1,9
 375 108 375 108 393 139 c 128,-1,10
 411 170 411 170 411 202 c 0,11,12
 411 254 411 254 375.5 282.5 c 128,-1,13
 340 311 340 311 267 311 c 2,14,-1
 198 311 l 1,15,-1
 198 379 l 1,16,-1
 244 379 l 2,17,18
 297 379 297 379 329.5 395.5 c 128,-1,19
 362 412 362 412 376.5 436.5 c 128,-1,20
 391 461 391 461 391 485 c 0,21,22
 391 518 391 518 365 542 c 128,-1,23
 339 566 339 566 278 566 c 0,24,25
 238 566 238 566 200 556.5 c 128,-1,26
 162 547 162 547 136 534 c 1,27,-1
 108 597 l 1,28,29
 153 618 153 618 192 626 c 128,-1,30
 231 634 231 634 282 634 c 0,31,32
 388 634 388 634 436 578 c 1,33,34
 462 594 462 594 487.5 599.5 c 128,-1,35
 513 605 513 605 536 605 c 0,36,37
 619 605 619 605 653 542 c 128,-1,38
 687 479 687 479 687 351 c 2,39,-1
 687 207 l 2,40,41
 687 159 687 159 694.5 128 c 128,-1,42
 702 97 702 97 728.5 82.5 c 128,-1,43
 755 68 755 68 811 68 c 1,44,-1
 811 0 l 1,45,-1
 801 0 l 2,46,47
 719 0 719 0 678 26 c 128,-1,48
 637 52 637 52 623.5 99 c 128,-1,49
 610 146 610 146 610 207 c 2,50,-1
 610 351 l 2,51,52
 610 423 610 423 601 463.5 c 128,-1,53
 592 504 592 504 573.5 520.5 c 128,-1,54
 555 537 555 537 527 537 c 0,55,56
 513 537 513 537 496 532.5 c 128,-1,57
 479 528 479 528 465 520 c 1,58,59
 468 505 468 505 468 489 c 0,60,61
 468 444 468 444 446.5 410 c 128,-1,62
 425 376 425 376 380 356 c 1,63,64
 426 343 426 343 456.5 302.5 c 128,-1,65
 487 262 487 262 487 203 c 0,66,67
 487 139 487 139 455.5 93.5 c 128,-1,68
 424 48 424 48 369 24 c 128,-1,69
 314 0 314 0 243 0 c 0,0,1
  Spiro
    243 0 o
    183.625 2.25 o
    133.5 9 o
    89.375 19.5 o
    48 33 v
    73 98 v
    112.625 84.25 o
    157.5 75 o
    202.375 69.75 o
    242 68 o
    295.5 73 o
    338 88 o
    370.25 110.75 o
    393 139 o
    406.5 170.25 o
    411 202 o
    402.125 248.125 o
    375.5 282.5 o
    330.625 303.875 o
    267 311 [
    198 311 v
    198 379 v
    244 379 ]
    291.875 383.125 o
    329.5 395.5 o
    357.5 414 o
    376.5 436.5 o
    387.375 460.875 o
    391 485 o
    384.5 515.75 o
    365 542 o
    330.25 560 o
    278 566 o
    238.5 563.625 o
    200 556.5 o
    165 546.125 o
    136 534 v
    108 597 v
    151.5 614.75 o
    192 626 o
    234 632 o
    282 634 o
    373.5 620 o
    436 578 v
    461.875 591.375 o
    487.5 599.5 o
    512.375 603.625 o
    536 605 o
    606.75 589.25 o
    653 542 o
    678.5 462.75 o
    687 351 [
    687 207 ]
    688.875 163.25 o
    694.5 128 o
    706.75 101.125 o
    728.5 82.5 o
    762.375 71.625 o
    811 68 v
    811 0 v
    801 0 ]
    729.25 6.5 o
    678 26 o
    643.875 57.25 o
    623.5 99 o
    613.375 149.5 o
    610 207 [
    610 351 ]
    607.75 415.125 o
    601 463.5 o
    589.625 498 o
    573.5 520.5 o
    552.625 532.875 o
    527 537 o
    512.25 535.875 o
    496 532.5 o
    479.75 527.125 o
    465 520 v
    467.25 504.75 o
    468 489 o
    462.625 446.75 o
    446.5 410 o
    419.125 379.5 o
    380 356 v
    422.125 336.125 o
    456.5 302.5 o
    479.375 257.375 o
    487 203 o
    479.125 143.625 o
    455.5 93.5 o
    418.125 53.375 o
    369 24 o
    310 6 o
    0 0 z
  EndSpiro
EndSplineSet
EndChar

StartChar: uni1705
Encoding: 9 5893 10
Width: 1011
GlyphClass: 2
InSpiro: 1
Flags: W
AnchorPoint: "Anchor-1" 564 0 basechar 0
AnchorPoint: "Anchor-0" 488 693 basechar 0
LayerCount: 3
Back
SplineSet
740 84 m 0,0,1
 819.601780975 105.00063548 819.601780975 105.00063548 872 162 c 0,2,3
 901.46579922 195.047541365 901.46579922 195.047541365 914.655238103 232.0288359 c 0,4,5
 928.782930947 274.045464301 928.782930947 274.045464301 921.186310385 313.337475778 c 0,6,7
 911.835904286 356.25909134 911.835904286 356.25909134 881.159891413 383.873712327 c 0,8,9
 848.645491496 411.644603419 848.645491496 411.644603419 806 414 c 0,10,11
 770.645017271 415.143055941 770.645017271 415.143055941 735.841345543 398.690527084 c 0,12,13
 709.913324028 385.919950259 709.913324028 385.919950259 676 358 c 0,14,15
 627.281758137 318.193188928 627.281758137 318.193188928 603.146494059 307.005769833 c 0,16,17
 582.314949604 297.857058432 582.314949604 297.857058432 560.499804801 294.412966447 c 0,18,19
 543.672818032 292.017413196 543.672818032 292.017413196 516 292 c 2,20,-1
 478 292 l 1025
  Spiro
    740 84 {
    872 162 o
    806 414 o
    676 358 o
    516 292 [
    478 292 v
    0 0 z
  EndSpiro
180 612 m 1,22,-1
 148 594 l 2,23,24
 115.957584062 575.425866674 115.957584062 575.425866674 102.974402424 559.338540733 c 0,25,26
 84.6629694657 534.761604435 84.6629694657 534.761604435 86 506 c 0,27,28
 88.8517597789 472.952128127 88.8517597789 472.952128127 113.7319978 451.090329975 c 0,29,30
 138.268170372 431.065764608 138.268170372 431.065764608 172 430 c 0,31,32
 204.900191597 429.760547567 204.900191597 429.760547567 261.893570156 455.341508134 c 0,33,34
 318.26096608 480.177154673 318.26096608 480.177154673 352 480 c 0,35,36
 387.240445023 478.917675237 387.240445023 478.917675237 415.229950292 460.178306639 c 0,37,38
 442.178309714 440.972184968 442.178309714 440.972184968 458.137504964 409.376778552 c 0,39,40
 482.447372858 359.09515651 482.447372858 359.09515651 480 278 c 0,41,42
 478.284564153 232.556087473 478.284564153 232.556087473 468.46586045 200.392852617 c 0,43,44
 454.986323054 159.012705596 454.986323054 159.012705596 428 134 c 0,45,46
 396.964195212 106.671356504 396.964195212 106.671356504 353.793770884 101.450271521 c 0,47,48
 322.388081768 98.204519268 322.388081768 98.204519268 272 108 c 0,49,50
 219.967718661 118.164705015 219.967718661 118.164705015 197.655440135 117.784962419 c 0,51,52
 154.531585746 116.364739005 154.531585746 116.364739005 128 94 c 0,53,54
 111.694713015 79.0706602749 111.694713015 79.0706602749 104.990841852 60.0667564185 c 0,55,56
 98.601596822 39.1489132153 98.601596822 39.1489132153 103.772193395 19.1932523072 c 0,57,58
 110.230932137 -1.65368537935 110.230932137 -1.65368537935 126.004735512 -15.0647069444 c 0,59,60
 143.217250503 -28.3400020039 143.217250503 -28.3400020039 164 -30 c 1024
  Spiro
    180 612 {
    148 594 ]
    86 506 o
    172 430 o
    352 480 o
    480 278 o
    428 134 o
    272 108 o
    128 94 o
    164 -30 o
    0 0 z
  EndSpiro
EndSplineSet
Fore
SplineSet
757.941097029 16.3374222324 m 0,0,-1
 722.058902971 151.662577768 l 1,1,2
 777.907979345 166.976105805 777.907979345 166.976105805 814.729137904 203.389122516 c 0,3,4
 817.903904278 206.63460185 817.903904278 206.63460185 820.070704642 208.946070875 c 0,5,6
 839.904631543 231.884069962 839.904631543 231.884069962 848.529043147 255.027501235 c 0,7,8
 856.075833422 279.174908625 856.075833422 279.174908625 852.628982078 299.176874656 c 0,9,10
 847.75543419 318.182865729 847.75543419 318.182865729 836.640677164 329.653818181 c 2,11,-1
 835.012301087 331.220580797 l 1,12,13
 820.167938552 342.706216188 820.167938552 342.706216188 802.925842963 344.072275505 c 0,14,15
 784.536460211 343.935735548 784.536460211 343.935735548 766.316105637 335.653486014 c 0,16,17
 746.888370456 325.523547032 746.888370456 325.523547032 720.238837428 303.745296586 c 0,18,19
 690.495871658 279.563197125 690.495871658 279.563197125 668.850257531 264.727959419 c 0,20,21
 648.05835308 250.772754657 648.05835308 250.772754657 632.620536463 243.499348005 c 2,22,-1
 631.982802714 243.203739277 l 1,23,-1
 631.339099873 242.92104053 l 2,24,25
 601.710666724 230.197225208 601.710666724 230.197225208 571.485687954 225.28809968 c 0,26,-1
 570.430734655 225.129740181 l 2,27,28
 547.873495009 222.07748562 547.873495009 222.07748562 516 222.013726262 c 2,29,-1
 478 222.013726262 l 1,30,-1
 478 361.986273738 l 1,31,-1
 516 361.986273738 l 2,32,33
 537.861515742 362.072802107 537.861515742 362.072802107 550.066601809 363.626658593 c 0,34,35
 562.742309293 365.965067864 562.742309293 365.965067864 574.118237368 370.72736199 c 0,36,37
 581.035853669 374.42612089 581.035853669 374.42612089 590.061660419 380.478751765 c 0,38,39
 607.81096087 392.744462879 607.81096087 392.744462879 631.761162572 412.254703414 c 0,40,41
 672.18245939 445.204016346 672.18245939 445.204016346 704.887664329 461.489752912 c 2,42,-1
 705.388289358 461.736330554 l 1,43,-1
 705.892863943 461.97485504 l 2,44,45
 756.472649413 485.363707159 756.472649413 485.363707159 808.278765324 483.949447046 c 2,46,-1
 809.08415104 483.923408257 l 1,47,-1
 809.888658764 483.878973671 l 2,48,49
 876.375700571 479.537678987 876.375700571 479.537678987 926.574397323 437.146218984 c 0,50,-1
 927.955337924 435.935259869 l 2,51,52
 932.365272801 431.874356342 932.365272801 431.874356342 935.63562653 428.648767547 c 0,53,54
 976.466851874 386.936467394 976.466851874 386.936467394 989.561141579 328.319562445 c 0,55,-1
 989.893368614 326.703367251 l 1,56,57
 1000.59082519 268.72691841 1000.59082519 268.72691841 980.985946423 209.643000784 c 2,58,-1
 980.783421161 209.040678185 l 1,59,-1
 980.570013323 208.442313221 l 2,60,61
 962.207405971 158.298370249 962.207405971 158.298370249 924.28595311 115.455033564 c 0,62,-1
 923.564889303 114.658593684 l 2,63,64
 918.234202302 108.941602422 918.234202302 108.941602422 913.72408727 104.39417315 c 0,65,66
 849.199391022 40.7161218739 849.199391022 40.7161218739 757.941097029 16.3374222324 c 0,0,-1
145.68568407 673.02812544 m 1,67,-1
 214.31431593 550.97187456 l 1,68,-1
 182.731518621 533.206551074 l 2,69,70
 165.462662497 523.036514118 165.462662497 523.036514118 158.004256657 515.954875942 c 0,71,72
 156.036974074 512.436714989 156.036974074 512.436714989 155.833268393 510.898037582 c 0,73,74
 156.194827231 507.341321085 156.194827231 507.341321085 158.627539719 504.914980968 c 0,75,76
 158.977269836 504.565699778 158.977269836 504.565699778 159.07288923 504.47265631 c 0,77,78
 165.560776007 500.554365878 165.560776007 500.554365878 173.094924085 499.995814813 c 0,79,80
 179.962083313 500.581620165 179.962083313 500.581620165 188.45313292 502.65187013 c 0,81,82
 207.688381428 507.842589329 207.688381428 507.842589329 233.188133857 519.198540939 c 0,83,-1
 233.624882596 519.392769894 l 2,84,85
 270.784431416 535.583545122 270.784431416 535.583545122 300.491635586 543.108507424 c 0,86,87
 328.986249517 549.967413919 328.986249517 549.967413919 352.37029143 549.985301594 c 2,88,-1
 353.26778292 549.980589106 l 1,89,-1
 354.164826504 549.953038589 l 2,90,91
 409.813830026 547.6804452 409.813830026 547.6804452 454.135002491 518.384274838 c 2,92,-1
 454.980441658 517.81824139 l 1,93,-1
 455.809484376 517.227381848 l 2,94,95
 469.884824034 506.933403716 469.884824034 506.933403716 481.371174166 495.596027955 c 0,96,97
 505.055810264 471.369884786 505.055810264 471.369884786 520.624745954 440.95591868 c 2,98,-1
 520.896920646 440.417077599 l 1,99,100
 552.716447738 373.415736648 552.716447738 373.415736648 549.954182447 275.872743809 c 0,101,-1
 549.936086671 275.339938309 l 2,102,103
 547.619811225 220.424651285 547.619811225 220.424651285 535.394971294 179.873026819 c 2,104,-1
 535.20516558 179.25127817 l 1,105,106
 516.621056711 123.922058843 516.621056711 123.922058843 481.004185246 87.8788503859 c 0,107,108
 478.325927505 85.2005926441 478.325927505 85.2005926441 475.554596458 82.6318990404 c 2,109,-1
 474.893301913 82.0189676035 l 1,110,-1
 474.217578606 81.4239580175 l 2,111,112
 426.272814418 40.0483659873 426.272814418 40.0483659873 362.25574621 31.9736773264 c 0,113,-1
 361.040200786 31.8373710268 l 2,114,115
 318.436046672 27.76097017 318.436046672 27.76097017 258.500221924 39.3189620258 c 0,116,117
 216.761198108 47.4241819615 216.761198108 47.4241819615 199.225721202 47.8097734379 c 0,118,119
 181.884155797 46.8164173441 181.884155797 46.8164173441 174.169579627 41.3122315036 c 0,120,121
 172.171482125 38.9519230224 172.171482125 38.9519230224 171.41045672 37.7505420656 c 2,122,-1
 171.347145948 37.4185833338 l 1,123,-1
 171.31240441 37.5407914039 l 1,124,-1
 170.986108102 36.7071569712 l 1,125,-1
 171.288256109 37.6257363237 l 1,126,-1
 171.032214613 38.526396989 l 1,127,-1
 169.606928944 39.6808922437 l 1,128,-1
 158.468528565 -99.7690260279 l 1,129,130
 116.63319041 -95.8442677087 116.63319041 -95.8442677087 83.3074173662 -70.5432639158 c 2,131,-1
 81.9855492392 -69.5237621507 l 1,132,-1
 80.7112743901 -68.4403628541 l 2,133,134
 75.8626204144 -64.1816596921 75.8626204144 -64.1816596921 72.2426984251 -60.6308974933 c 0,135,136
 47.652153188 -35.2843421616 47.652153188 -35.2843421616 36.9282393336 -1.60346499322 c 2,137,-1
 36.4430129314 -0.0372947276246 l 1,138,-1
 36.031446914 1.55112389463 l 2,139,140
 26.3068275095 41.1413510469 26.3068275095 41.1413510469 38.0648563877 80.5968172503 c 2,141,-1
 38.500170428 82.0219982844 l 1,142,-1
 38.9955756018 83.4263558658 l 2,143,144
 50.9150294484 115.687565382 50.9150294484 115.687565382 75.3187490574 140.452133173 c 0,145,146
 78.5001496319 143.555428421 78.5001496319 143.555428421 80.7623330529 145.66006434 c 2,147,-1
 81.8295549723 146.637227061 l 1,148,-1
 82.9335403383 147.567828979 l 2,149,150
 128.636368287 185.223560515 128.636368287 185.223560515 195.334240271 187.733024732 c 2,151,-1
 195.894683188 187.75148213 l 2,152,153
 227.278779364 188.022174048 227.278779364 188.022174048 285.499778076 176.681037974 c 0,154,155
 324.778163107 169.045290479 324.778163107 169.045290479 345.992803406 171.008904154 c 0,156,157
 367.120939163 174.293921512 367.120939163 174.293921512 381.072197764 185.957903826 c 0,158,159
 381.5452638 186.409831176 381.5452638 186.409831176 382.00923588 186.873799752 c 0,160,161
 394.428453033 200.255245303 394.428453033 200.255245303 401.721410389 221.5235063 c 0,162,163
 408.600666521 245.617447451 408.600666521 245.617447451 410.053794086 280.394400437 c 0,164,165
 411.617609839 343.52010381 411.617609839 343.52010381 395.374555123 378.339196288 c 0,166,167
 389.342424094 389.388402904 389.342424094 389.388402904 382.3762248 396.601078589 c 0,168,169
 378.557864768 400.154943709 378.557864768 400.154943709 375.473083048 402.532990568 c 0,170,171
 363.997011971 409.210871641 363.997011971 409.210871641 350.953409606 410.005087911 c 0,172,173
 343.652522672 409.475074406 343.652522672 409.475074406 334.588259863 407.324833738 c 0,174,175
 315.371295732 402.293548763 315.371295732 402.293548763 290.367309812 391.380532494 c 0,176,177
 253.044257445 374.826420756 253.044257445 374.826420756 223.55439267 367.123093644 c 0,178,179
 194.829050885 359.992476168 194.829050885 359.992476168 171.486738723 360.015594031 c 0,180,-1
 169.773025376 360.048897567 l 1,181,182
 112.130354341 362.533690386 112.130354341 362.533690386 69.524391522 396.810123106 c 2,183,-1
 68.5330986108 397.619141287 l 1,184,-1
 67.5702698358 398.465160859 l 2,185,186
 63.1388650217 402.469342366 63.1388650217 402.469342366 59.8943639483 405.658707607 c 0,187,188
 21.4100431155 445.162683441 21.4100431155 445.162683441 16.2747048746 499.939004248 c 2,189,-1
 16.154651885 501.330248997 l 1,190,-1
 16.0897921104 502.725483537 l 2,191,192
 14.2418032283 556.797637433 14.2418032283 556.797637433 46.7937326559 601.109690005 c 2,193,-1
 47.6017604012 602.194195323 l 1,194,-1
 48.4522708369 603.248053998 l 2,195,196
 53.7894633259 609.645983459 53.7894633259 609.645983459 59.0093072908 614.949825308 c 0,197,198
 79.8508948235 635.312324707 79.8508948235 635.312324707 112.90499323 654.582307947 c 0,199,-1
 113.68568407 655.02812544 l 1,200,-1
 145.68568407 673.02812544 l 1,67,-1
171.50289734 36.8707067016 m 1,201,-1
 171.411077623 37.049176972 l 1,202,-1
 171.50289734 36.8707067016 l 1,201,-1
171.50289734 36.8707067016 m 1,203,-1
 171.50289734 36.8707067016 l 1,203,-1
171.305086124 38.2861365503 m 1,204,-1
 171.305086124 38.2861365503 l 1,204,-1
EndSplineSet
Layer: 2
SplineSet
79 0 m 1,0,1
 69 26 69 26 69 56 c 0,2,3
 69 78 69 78 79.5 100.5 c 128,-1,4
 90 123 90 123 113.5 138 c 128,-1,5
 137 153 137 153 176 153 c 0,6,7
 208 153 208 153 232 147.5 c 128,-1,8
 256 142 256 142 278.5 137 c 128,-1,9
 301 132 301 132 327 132 c 0,10,11
 389 132 389 132 418 173.5 c 128,-1,12
 447 215 447 215 447 288 c 0,13,14
 447 365 447 365 421 404 c 128,-1,15
 395 443 395 443 338 443 c 0,16,17
 307 443 307 443 286.5 436 c 128,-1,18
 266 429 266 429 249 420.5 c 128,-1,19
 232 412 232 412 212 405 c 128,-1,20
 192 398 192 398 161 398 c 0,21,22
 115 398 115 398 83.5 423 c 128,-1,23
 52 448 52 448 52 501 c 0,24,25
 52 545 52 545 82.5 577 c 128,-1,26
 113 609 113 609 161 641 c 1,27,-1
 199 584 l 1,28,29
 165 562 165 562 144.5 544.5 c 128,-1,30
 124 527 124 527 124 503 c 0,31,32
 124 491 124 491 132.5 478.5 c 128,-1,33
 141 466 141 466 170 466 c 0,34,35
 184 466 184 466 199 472 c 128,-1,36
 214 478 214 478 227 485 c 0,37,38
 247 496 247 496 272.5 503.5 c 128,-1,39
 298 511 298 511 332 511 c 0,40,41
 394 511 394 511 434.5 486.5 c 128,-1,42
 475 462 475 462 497 420 c 128,-1,43
 519 378 519 378 524 325 c 1,44,45
 562 325 562 325 589.5 336.5 c 128,-1,46
 617 348 617 348 652 381 c 0,47,48
 689 415 689 415 722 431.5 c 128,-1,49
 755 448 755 448 797 448 c 0,50,51
 872 448 872 448 914.5 401.5 c 128,-1,52
 957 355 957 355 957 283 c 0,53,54
 957 215 957 215 926 168 c 128,-1,55
 895 121 895 121 846.5 94 c 128,-1,56
 798 67 798 67 745 57 c 1,57,-1
 728 121 l 1,58,59
 799 138 799 138 842 179 c 128,-1,60
 885 220 885 220 885 284 c 0,61,62
 885 327 885 327 860 353.5 c 128,-1,63
 835 380 835 380 797 380 c 0,64,65
 769 380 769 380 748.5 369 c 128,-1,66
 728 358 728 358 701 331 c 0,67,68
 662 292 662 292 619.5 274.5 c 128,-1,69
 577 257 577 257 524 257 c 1,70,71
 519 194 519 194 491 151 c 128,-1,72
 463 108 463 108 421.5 86 c 128,-1,73
 380 64 380 64 332 64 c 0,74,75
 292 64 292 64 267.5 69.5 c 128,-1,76
 243 75 243 75 224 80 c 128,-1,77
 205 85 205 85 179 85 c 0,78,79
 160 85 160 85 150.5 73 c 128,-1,80
 141 61 141 61 141 44 c 0,81,82
 141 36 141 36 143 25 c 128,-1,83
 145 14 145 14 150 0 c 1,84,-1
 79 0 l 1,0,1
  Spiro
    79 0 v
    71.5 27 o
    69 56 o
    71.625 78.125 o
    79.5 100.5 o
    93.25 121.125 o
    113.5 138 o
    140.875 149.25 o
    176 153 o
    206 151.625 o
    232 147.5 o
    255.625 142.125 o
    278.5 137 o
    301.875 133.25 o
    327 132 o
    380.75 142.375 o
    418 173.5 o
    439.75 222.875 o
    447 288 o
    440.5 355.5 o
    421 404 o
    387.25 433.25 o
    338 443 o
    309.625 441.25 o
    286.5 436 o
    266.875 428.625 o
    249 420.5 o
    231.25 412.375 o
    212 405 o
    189.25 399.75 o
    161 398 o
    118.625 404.25 o
    83.5 423 o
    59.875 455 o
    52 501 o
    59.625 542 o
    82.5 577 o
    117.375 609 o
    161 641 v
    199 584 v
    168.375 563.125 o
    144.5 544.5 o
    129.125 525.375 o
    124 503 o
    126.125 490.875 o
    132.5 478.5 o
    146.125 469.125 o
    170 466 o
    184.25 467.5 o
    199 472 o
    213.5 478.25 o
    227 485 o
    248.375 495.125 o
    272.5 503.5 o
    300.125 509.125 o
    332 511 o
    388.625 504.875 o
    434.5 486.5 o
    470.375 457.625 o
    497 420 o
    514.75 375.25 o
    524 325 v
    559.375 327.875 o
    589.5 336.5 o
    618.875 353.375 o
    652 381 o
    688 410.625 o
    722 431.5 o
    757.25 443.875 o
    797 448 o
    863.875 436.375 o
    914.5 401.5 o
    946.375 348.625 o
    957 283 o
    949.25 220.25 o
    926 168 o
    890.625 126 o
    846.5 94 o
    796.875 71.25 o
    745 57 v
    728 121 v
    792 144 o
    842 179 o
    874.25 225.75 o
    885 284 o
    878.75 322.875 o
    860 353.5 o
    831.75 373.375 o
    797 380 o
    770.875 377.25 o
    748.5 369 o
    726.375 354 o
    701 331 o
    661.125 297.375 o
    619.5 274.5 o
    574.375 261.375 o
    524 257 v
    513.25 199 o
    491 151 o
    459.625 113.25 o
    421.5 86 o
    378.375 69.5 o
    332 64 o
    295.875 65.375 o
    267.5 69.5 o
    244.375 74.875 o
    224 80 o
    203.25 83.75 o
    179 85 o
    162.375 82 o
    150.5 73 o
    143.375 59.75 o
    141 44 o
    141.5 35.25 o
    143 25 o
    145.75 13.25 o
    150 0 v
    0 0 z
  EndSpiro
EndSplineSet
EndChar

StartChar: uni1706
Encoding: 10 5894 11
Width: 975
GlyphClass: 2
InSpiro: 1
Flags: W
AnchorPoint: "Anchor-1" 539 0 basechar 0
AnchorPoint: "Anchor-0" 488 693 basechar 0
LayerCount: 3
Back
SplineSet
128 426 m 0,0,1
 106.612089028 412.962167129 106.612089028 412.962167129 99.9010622383 389.644335634 c 0,2,3
 94.3253039551 365.646502547 94.3253039551 365.646502547 106 344 c 0,4,5
 117.756351631 324.669965649 117.756351631 324.669965649 138.557509099 314.492164531 c 0,6,7
 158.496515311 305.667475759 158.496515311 305.667475759 182 306 c 0,8,9
 217.940721217 307.303846441 217.940721217 307.303846441 258.096754514 328.639647113 c 0,10,11
 287.833359111 344.844754168 287.833359111 344.844754168 324 374 c 0,12,13
 341.614312666 388.239056744 341.614312666 388.239056744 376.185377915 417.65453578 c 0,14,15
 468.436711672 495.857945621 468.436711672 495.857945621 520 526 c 0,16,17
 617.604281165 582.238214654 617.604281165 582.238214654 719.395228579 593.833033577 c 0,18,19
 827.747323696 605.451136558 827.747323696 605.451136558 928 568 c 1,20,21
 835.357474914 602.96733852 835.357474914 602.96733852 736 594 c 0,22,23
 626.312405311 583.38424039 626.312405311 583.38424039 520 521 c 0,24,25
 349.791891702 420.731055154 349.791891702 420.731055154 258.032463551 245.651423145 c 0,26,27
 247.076788006 224.584544833 247.076788006 224.584544833 238 204 c 0,28,29
 195.095276731 105.424583892 195.095276731 105.424583892 186 0 c 1024
  Spiro
    128 426 {
    106 344 o
    182 306 o
    324 374 o
    520 526 o
    928 568 v
    736 594 o
    520 521 o
    238 204 o
    186 0 v
    0 0 z
  EndSpiro
EndSplineSet
Fore
SplineSet
91.5858036593 485.798004975 m 1,0,-1
 164.442465053 366.28030575 l 1,1,-1
 164.828520404 366.627341591 l 1,2,-1
 167.149179773 370.200345158 l 1,3,-1
 168.037801329 373.619743789 l 1,4,-1
 167.623354145 377.233772375 l 1,5,-1
 165.834845429 380.353692026 l 1,6,-1
 166.850353158 378.992398221 l 1,7,-1
 168.291244315 377.930435195 l 1,8,9
 174.21243622 376.115009191 174.21243622 376.115009191 180.220036587 375.973257505 c 0,10,11
 200.432074757 377.582882245 200.432074757 377.582882245 224.920580993 390.295522815 c 0,12,13
 249.751047083 404.187283782 249.751047083 404.187283782 280.046396055 428.486519024 c 0,14,15
 297.959789044 443.023847083 297.959789044 443.023847083 330.969420708 471.095989732 c 0,16,17
 428.06931998 553.199735795 428.06931998 553.199735795 484.685793592 586.454708288 c 2,18,-1
 484.873625626 586.564508178 l 1,19,20
 595.728955713 649.959991867 595.728955713 649.959991867 711.418283976 663.366581606 c 2,21,-1
 711.649205133 663.392885408 l 2,22,23
 794.857462664 672.012418334 794.857462664 672.012418334 873.800400785 656.140871455 c 0,24,25
 914.502085903 647.834881306 914.502085903 647.834881306 952.784952791 633.474937793 c 1,26,-1
 903.436560473 502.441883025 l 1,27,28
 874.651809415 513.028192914 874.651809415 513.028192914 846.554561766 518.924251337 c 0,29,30
 795.579499768 528.935397917 795.579499768 528.935397917 742.563774898 524.319470596 c 0,31,32
 647.858555895 514.60409124 647.858555895 514.60409124 555.516081353 460.663757579 c 0,33,34
 485.168997869 418.864014994 485.168997869 418.864014994 430.487202851 364.408649006 c 0,35,36
 364.827943105 298.207095878 364.827943105 298.207095878 320.145270792 213.341757821 c 0,37,38
 310.088869082 193.857702214 310.088869082 193.857702214 302.110341281 175.865232545 c 0,39,40
 263.944760827 87.2885258069 263.944760827 87.2885258069 255.725409088 -6.05967493945 c 1,41,-1
 116.267009283 5.97179525339 l 1,42,43
 126.729852017 123.36812174 126.729852017 123.36812174 173.823439512 231.982566897 c 0,44,-1
 173.956920027 232.287249739 l 2,45,46
 174.789438439 234.175253796 174.789438439 234.175253796 175.635189381 236.064528811 c 1,47,48
 140.333093459 237.3757199 140.333093459 237.3757199 110.183413498 250.48745025 c 2,49,-1
 108.96424681 251.027034142 l 1,50,-1
 107.767040562 251.612815347 l 2,51,52
 84.8986004648 263.249524665 84.8986004648 263.249524665 67.8554037914 279.997448855 c 0,53,54
 55.2029544691 293.063990702 55.2029544691 293.063990702 46.1651545713 307.646307974 c 2,55,-1
 45.2303935987 309.183261128 l 1,56,-1
 44.3766458552 310.766227625 l 2,57,58
 33.9400779034 330.826241023 33.9400779034 330.826241023 30.1164961593 351.455973048 c 0,59,60
 25.6950135604 378.686468668 25.6950135604 378.686468668 31.7386243296 405.570038924 c 2,61,-1
 32.1502824821 407.341798589 l 1,62,-1
 32.6529447038 409.08832611 l 2,63,64
 42.7466393227 442.094094205 42.7466393227 442.094094205 65.8335710379 465.622290958 c 0,65,66
 77.930503705 477.312145551 77.930503705 477.312145551 91.5858036593 485.798004975 c 1,0,-1
EndSplineSet
Layer: 2
SplineSet
142 0 m 1,0,1
 151 74 151 74 176.5 148.5 c 128,-1,2
 202 223 202 223 242 291 c 1,3,4
 221 281 221 281 203 277 c 128,-1,5
 185 273 185 273 168 273 c 0,6,7
 122 273 122 273 95 299 c 128,-1,8
 68 325 68 325 68 368 c 0,9,10
 68 415 68 415 100 450 c 1,11,-1
 152 406 l 1,12,13
 145 397 145 397 140.5 389 c 128,-1,14
 136 381 136 381 136 371 c 0,15,16
 136 341 136 341 173 341 c 0,17,18
 203 341 203 341 249.5 364.5 c 128,-1,19
 296 388 296 388 372 458 c 0,20,21
 455 534 455 534 557 582.5 c 128,-1,22
 659 631 659 631 778 631 c 0,23,24
 822 631 822 631 864.5 623 c 128,-1,25
 907 615 907 615 943 598 c 1,26,-1
 914 536 l 1,27,28
 892 547 892 547 856 555 c 128,-1,29
 820 563 820 563 778 563 c 0,30,31
 718 563 718 563 649 542 c 128,-1,32
 580 521 580 521 511.5 477.5 c 128,-1,33
 443 434 443 434 383.5 367 c 128,-1,34
 324 300 324 300 281 208.5 c 128,-1,35
 238 117 238 117 221 0 c 1,36,-1
 142 0 l 1,0,1
EndSplineSet
EndChar

StartChar: uni1707
Encoding: 11 5895 12
Width: 1048
GlyphClass: 2
Flags: W
AnchorPoint: "Anchor-1" 552 0 basechar 0
AnchorPoint: "Anchor-0" 527 693 basechar 0
LayerCount: 3
Back
SplineSet
243 459 m 5,0,-1
 227 443 l 6,1,2
 176.60165396 392.153525396 176.60165396 392.153525396 157.612554858 360.783976159 c 4,3,4
 127.586367958 309.356828186 127.586367958 309.356828186 131 258 c 4,5,6
 136.775493895 191.519309326 136.775493895 191.519309326 190.148467775 149.510628891 c 4,7,8
 238.557185632 112.80671383 238.557185632 112.80671383 309 110 c 4,9,10
 376.265569743 107.599978729 376.265569743 107.599978729 497.783663932 147.243262256 c 6,11,-1
 498.784431744 147.56983231 l 5,12,-1
 499.785100001 147.896528347 l 5,13,-1
 500.78566906 148.22333022 l 5,14,-1
 501.786139277 148.550217767 l 5,15,-1
 502.786511008 148.877170815 l 5,16,-1
 503.78678461 149.204169181 l 5,17,-1
 504.78696044 149.531192668 l 5,18,-1
 506.594671409 150.122332086 l 6,19,20
 515.712337141 153.102359377 515.712337141 153.102359377 519.764729205 154.421438368 c 4,21,22
 650.72348137 196.697302038 650.72348137 196.697302038 731 198 c 4,23,24
 869.978141414 199.904171627 869.978141414 199.904171627 972.01894891 116.169559875 c 4,25,26
 975.021064678 113.676335118 975.021064678 113.676335118 977 112 c 1028
  Spiro
    243 459 {
    227 443 ]
    131 258 o
    309 110 o
    731 198 o
    977 112 o
    0 0 z
  EndSpiro
71 540 m 4,28,29
 167.98306952 457.265669028 167.98306952 457.265669028 303.590846995 457.934126761 c 4,30,31
 306.796148295 457.963086528 306.796148295 457.963086528 309 458 c 4,32,33
 385.504982823 459.771615714 385.504982823 459.771615714 520.074868899 501.541408172 c 4,34,35
 657.035077006 543.78436261 657.035077006 543.78436261 731 546 c 4,36,37
 866.738213903 549.72429095 866.738213903 549.72429095 966.248322736 469.114819765 c 4,38,39
 972.210892091 464.212670643 972.210892091 464.212670643 977 460 c 1028
  Spiro
    71 540 {
    309 458 o
    731 546 o
    977 460 o
    0 0 z
  EndSpiro
EndSplineSet
Fore
SplineSet
193.502525317 508.497474683 m 1,0,-1
 292.497474683 409.502525317 l 1,1,-1
 276.720271996 393.726310795 l 2,2,3
 233.187465701 349.600754528 233.187465701 349.600754528 217.783934536 324.982616581 c 0,4,5
 199.35131351 292.211997323 199.35131351 292.211997323 200.787499113 263.369345201 c 0,6,7
 204.362579518 232.923564219 204.362579518 232.923564219 223.997177834 212.864887083 c 0,8,9
 228.690754869 208.387032783 228.690754869 208.387032783 232.894995197 204.956887568 c 0,10,11
 264.642624379 182.082761489 264.642624379 182.082761489 311.51449706 179.94143094 c 0,12,13
 334.712350748 179.382677736 334.712350748 179.382677736 367.150796707 185.06591026 c 0,14,15
 413.845327482 193.561736796 413.845327482 193.561736796 475.989944959 213.770122261 c 2,16,-1
 476.98121794 214.093593215 l 1,17,-1
 477.973604845 214.417585002 l 1,18,-1
 478.967106814 214.742078233 l 1,19,-1
 479.961724831 215.067053382 l 1,20,-1
 480.957459905 215.392490845 l 1,21,-1
 481.954313332 215.718371028 l 1,22,-1
 482.951857184 216.04453389 l 1,23,-1
 484.794307648 216.647023399 l 1,24,-1
 498.181291694 221.016548983 l 2,25,26
 639.327175337 266.323908905 639.327175337 266.323908905 730.033848254 267.979655343 c 0,27,28
 894.871851722 269.533821787 894.871851722 269.533821787 1016.37208362 170.330672179 c 2,29,-1
 1016.53165875 170.199724945 l 2,30,31
 1020.24598764 167.102217343 1020.24598764 167.102217343 1022.19622777 165.458172777 c 0,32,-1
 931.803772226 58.541827223 l 1,33,34
 929.35380762 60.5991976229 929.35380762 60.5991976229 927.510562813 62.13577266 c 0,35,36
 844.441669533 129.227929322 844.441669533 129.227929322 731.966151746 128.020344657 c 0,37,38
 661.463194785 126.474143612 661.463194785 126.474143612 541.348166716 87.8263277531 c 2,39,-1
 528.39503517 83.5976407732 l 1,40,-1
 526.622063696 83.0178514463 l 1,41,-1
 525.619255888 82.6899673342 l 1,42,-1
 524.615562111 82.3618507849 l 1,43,-1
 523.610553723 82.0333821517 l 1,44,-1
 522.604231306 81.7045822067 l 1,45,-1
 521.596595157 81.3754716924 l 1,46,-1
 520.587645548 81.0460714053 l 1,47,-1
 519.577382905 80.7164022509 l 2,48,49
 447.102763667 57.2050498996 447.102763667 57.2050498996 391.865534469 47.2770859191 c 0,50,51
 343.50912195 38.8581097049 343.50912195 38.8581097049 306.48550294 40.0585690604 c 0,52,53
 213.540564694 44.3700284908 213.540564694 44.3700284908 147.908384852 93.6824177967 c 2,54,-1
 147.404775412 94.0642588973 l 2,55,56
 134.8017337 104.180421928 134.8017337 104.180421928 125.002228468 113.869937717 c 0,57,58
 68.6825603108 171.227363483 68.6825603108 171.227363483 61.2782214039 251.898389824 c 2,59,-1
 61.2163632905 252.610427648 l 1,60,61
 56.8983405926 326.578615297 56.8983405926 326.578615297 97.1394230162 396.066646802 c 2,62,-1
 97.4171949419 396.542398784 l 1,63,-1
 97.7025109044 397.013734105 l 2,64,65
 121.929692866 436.317161919 121.929692866 436.317161919 177.279728004 492.273689205 c 2,66,-1
 193.502525317 508.497474683 l 1,0,-1
25.6173932803 486.700264346 m 0,67,-1
 116.38260672 593.299735654 l 1,68,69
 193.656678452 527.378759364 193.656678452 527.378759364 302.953703744 527.917522281 c 0,70,71
 305.703637165 527.942367896 305.703637165 527.942367896 307.588095517 527.972599995 c 0,72,73
 375.218902912 529.994499467 375.218902912 529.994499467 499.362494871 568.411434813 c 0,74,75
 645.575648046 613.287505278 645.575648046 613.287505278 729.065835404 615.95974505 c 0,76,77
 890.956715843 619.694191101 890.956715843 619.694191101 1010.2573671 523.556475224 c 2,78,-1
 1010.45513741 523.396268787 l 1,79,-1
 1010.65179931 523.234582456 l 2,80,81
 1017.90416601 517.22066333 1017.90416601 517.22066333 1023.1902418 512.600100939 c 0,82,-1
 930.809758201 407.399899061 l 1,83,84
 926.298161567 411.306845162 926.298161567 411.306845162 922.045091275 414.830337755 c 0,85,86
 841.8439365 478.695047875 841.8439365 478.695047875 732.934164596 476.04025495 c 0,87,88
 667.696773097 473.703673568 667.696773097 473.703673568 540.787242927 434.671381531 c 0,89,90
 396.768013331 390.201722173 396.768013331 390.201722173 310.632612151 388.03262659 c 2,91,-1
 310.406844111 388.027398509 l 2,92,93
 306.981626427 387.978135447 306.981626427 387.978135447 304.227990246 387.950731241 c 0,94,95
 142.086491862 387.866046053 142.086491862 387.866046053 25.6173932803 486.700264346 c 0,67,-1
EndSplineSet
Layer: 2
SplineSet
290 80 m 0,0,1
 201 80 201 80 147.5 127 c 128,-1,2
 94 174 94 174 94 251 c 0,3,4
 94 308 94 308 118 357.5 c 128,-1,5
 142 407 142 407 183 444 c 1,6,7
 149 456 149 456 116.5 474 c 128,-1,8
 84 492 84 492 51 517 c 1,9,-1
 89 573 l 1,10,11
 129 545 129 545 162 527 c 128,-1,12
 195 509 195 509 228.5 501 c 128,-1,13
 262 493 262 493 304 493 c 0,14,15
 366 493 366 493 425.5 508 c 128,-1,16
 485 523 485 523 529 537 c 0,17,18
 574 551 574 551 629 565 c 128,-1,19
 684 579 684 579 744 579 c 0,20,21
 818 579 818 579 877 555.5 c 128,-1,22
 936 532 936 532 997 487 c 1,23,-1
 955 433 l 1,24,25
 921 459 921 459 888 476 c 128,-1,26
 855 493 855 493 818 502 c 128,-1,27
 781 511 781 511 731 511 c 0,28,29
 685 511 685 511 637 497.5 c 128,-1,30
 589 484 589 484 550 472 c 0,31,32
 501 456 501 456 434.5 440.5 c 128,-1,33
 368 425 368 425 302 425 c 0,34,35
 281 425 281 425 261 427 c 1,36,37
 219 397 219 397 195 352 c 128,-1,38
 171 307 171 307 171 253 c 0,39,40
 171 205 171 205 201 176.5 c 128,-1,41
 231 148 231 148 291 148 c 0,42,43
 350 148 350 148 405 159 c 128,-1,44
 460 170 460 170 527 190 c 0,45,46
 577 205 577 205 630.5 218.5 c 128,-1,47
 684 232 684 232 744 232 c 0,48,49
 818 232 818 232 877 208.5 c 128,-1,50
 936 185 936 185 997 140 c 1,51,-1
 955 86 l 1,52,53
 921 112 921 112 888 129 c 128,-1,54
 855 146 855 146 818 155 c 128,-1,55
 781 164 781 164 731 164 c 0,56,57
 685 164 685 164 639 151 c 128,-1,58
 593 138 593 138 550 126 c 0,59,60
 496 111 496 111 430.5 95.5 c 128,-1,61
 365 80 365 80 290 80 c 0,0,1
  Spiro
    290 80 o
    209.875 91.75 o
    147.5 127 o
    107.375 181.5 o
    94 251 o
    100 306.125 o
    118 357.5 o
    146.25 403.875 o
    183 444 v
    149.375 457.5 o
    116.5 474 o
    83.875 493.75 o
    51 517 v
    89 573 v
    127.25 547.5 o
    162 527 o
    195.125 511.5 o
    228.5 501 o
    264.125 495 o
    304 493 o
    365.375 496.75 o
    425.5 508 o
    481.125 522.75 o
    529 537 o
    576.5 551 o
    629 565 o
    685.25 575.5 o
    744 579 o
    814.25 573.125 o
    877 555.5 o
    936.5 526.625 o
    997 487 v
    955 433 v
    921.25 456.75 o
    888 476 o
    854 491 o
    818 502 o
    777.75 508.75 o
    731 511 o
    684.5 507.625 o
    637 497.5 o
    591.25 484.375 o
    550 472 o
    496.625 456.125 o
    434.5 440.5 o
    368.125 428.875 o
    302 425 o
    281.25 425.5 o
    261 427 v
    223.5 393.25 o
    195 352 o
    177 304.75 o
    171 253 o
    178.5 209.875 o
    201 176.5 o
    238.5 155.125 o
    291 148 o
    349 150.75 o
    405 159 o
    463 172.25 o
    527 190 o
    577.875 204.625 o
    630.5 218.5 o
    685.625 228.625 o
    744 232 o
    814.25 226.125 o
    877 208.5 o
    936.5 179.625 o
    997 140 v
    955 86 v
    921.25 109.75 o
    888 129 o
    854 144 o
    818 155 o
    777.75 161.75 o
    731 164 o
    685 160.75 o
    639 151 o
    593.75 138.25 o
    550 126 o
    493.125 110.875 o
    430.5 95.5 o
    362.625 83.875 o
    0 0 z
  EndSpiro
EndSplineSet
EndChar

StartChar: uni1708
Encoding: 12 5896 13
Width: 850
GlyphClass: 2
Flags: W
AnchorPoint: "Anchor-0" 410 693 basechar 0
AnchorPoint: "Anchor-1" 437 -88 basechar 0
LayerCount: 3
Back
SplineSet
364 -50 m 0,0,1
 381.17413857 -19.0511300482 381.17413857 -19.0511300482 404 8 c 0,2,3
 428.942171171 37.120535207 428.942171171 37.120535207 458 60 c 0,4,5
 463.853588529 64.4717188826 463.853588529 64.4717188826 475.224558173 72.2152010859 c 128,-1,6
 486.38209436 80.4894154837 486.38209436 80.4894154837 490.46778095 86.59080019 c 0,7,8
 493.159608192 91.9402777611 493.159608192 91.9402777611 493.781115096 96.521262441 c 128,-1,9
 493.760761213 102.314236077 493.760761213 102.314236077 491.889395191 106.784226304 c 128,-1,10
 488.920450305 111.630669933 488.920450305 111.630669933 485.171381484 114.805784515 c 128,-1,11
 481.289399712 117.467520809 481.289399712 117.467520809 476 120 c 2,12,-1
 402 155 l 2,13,14
 393.517017826 159.248543652 393.517017826 159.248543652 390.261338425 161.535850715 c 128,-1,15
 384.415816548 166.838801131 384.415816548 166.838801131 382.375404385 172.160961433 c 128,-1,16
 381.034163655 179.275873922 381.034163655 179.275873922 384.066859369 185.114910476 c 0,17,18
 386.398335289 188.194616147 386.398335289 188.194616147 388.486258458 190.150460051 c 128,-1,19
 391.174536116 192.194589462 391.174536116 192.194589462 394 194 c 2,20,-1
 486 252 l 2,21,22
 489.925885266 254.659804136 489.925885266 254.659804136 491.422882711 255.837359535 c 128,-1,23
 494.222607039 258.813534115 494.222607039 258.813534115 495.61198498 260.955283382 c 128,-1,24
 497.054724926 264.511673881 497.054724926 264.511673881 497.39856194 267.304302238 c 128,-1,25
 497.189159236 271.054614375 497.189159236 271.054614375 496.286103799 273.808732595 c 0,26,27
 493.169197681 279.645181623 493.169197681 279.645181623 487.706684228 283.713862332 c 128,-1,28
 483.327907506 286.494171104 483.327907506 286.494171104 476 290 c 2,29,-1
 401 326 l 2,30,31
 394.656979754 329.297571381 394.656979754 329.297571381 392.239923531 331.032798401 c 128,-1,32
 388.024583651 335.25227547 388.024583651 335.25227547 386.531758839 339.187208509 c 128,-1,33
 385.783925474 344.610748746 385.783925474 344.610748746 387.840308566 348.9590247 c 128,-1,34
 390.707056729 352.787005077 390.707056729 352.787005077 395 356 c 2,35,-1
 456 400 l 2,36,37
 469.630948231 409.90937684 469.630948231 409.90937684 470.957210254 410.959581212 c 128,-1,38
 479.475725195 418.663520573 479.475725195 418.663520573 482.406557273 425.267879839 c 0,39,40
 483.858912863 430.298303285 483.858912863 430.298303285 483.704725529 434.368324493 c 128,-1,41
 482.761267056 439.392082654 482.761267056 439.392082654 480.655884502 443.026927587 c 128,-1,42
 477.46555892 446.956800601 477.46555892 446.956800601 474.098144785 449.496657905 c 128,-1,43
 471.068489439 451.392192794 471.068489439 451.392192794 466 454 c 0,44,45
 434.117841253 471.655334163 434.117841253 471.655334163 419.829696007 505.52682697 c 128,-1,46
 410.055207333 530.61118382 410.055207333 530.61118382 410 575 c 2,47,-1
 410 599 l 1025
  Spiro
    364 -50 {
    404 8 c
    458 60 ]
    476 120 [
    402 155 ]
    394 194 [
    486 252 ]
    476 290 [
    401 326 ]
    395 356 [
    456 400 ]
    466 454 [
    410 575 [
    410 599 v
    0 0 z
  EndSpiro
144 0 m 0,49,50
 102.16892872 118.175652345 102.16892872 118.175652345 109 238 c 0,51,52
 117.981634872 380.55527939 117.981634872 380.55527939 191.284176789 477.746446416 c 0,53,54
 232.505081088 531.180820215 232.505081088 531.180820215 286.891028942 562.419522344 c 128,-1,55
 344.993274648 594.903752497 344.993274648 594.903752497 409 599 c 0,56,57
 478.538347762 602.691985029 478.538347762 602.691985029 542.244312833 573.684563868 c 128,-1,58
 604.055648388 544.672694502 604.055648388 544.672694502 649.880790817 490.7165914 c 0,59,60
 734.050533562 389.831772481 734.050533562 389.831772481 743 238 c 0,61,62
 749.4854807 116.7374308 749.4854807 116.7374308 706 0 c 1024
  Spiro
    144 0 {
    109 238 o
    409 599 o
    743 238 o
    706 0 v
    0 0 z
  EndSpiro
EndSplineSet
Fore
SplineSet
382.325607616 86.8563039317 m 1,0,-1
 372.038738514 91.7217149933 l 1,1,-1
 371.331829698 92.0560637576 l 2,2,3
 356.877027287 99.5267109461 356.877027287 99.5267109461 350.066232044 104.214747433 c 2,4,-1
 346.504279421 106.717229523 l 1,5,-1
 343.264440207 109.656352337 l 2,6,7
 340.684723717 112.077208314 340.684723717 112.077208314 339.181798892 113.543464107 c 0,8,9
 324.085968447 129.43365299 324.085968447 129.43365299 317.028874495 147.038456458 c 2,10,-1
 314.776135128 152.914445754 l 1,11,-1
 313.607033692 159.116206722 l 2,12,13
 308.374910411 190.388867301 308.374910411 190.388867301 321.937422678 217.392578411 c 2,14,-1
 324.649035943 222.613415076 l 1,15,-1
 328.207450516 227.313815129 l 2,16,17
 333.703841967 234.253809253 333.703841967 234.253809253 338.356768031 239.035735818 c 0,18,19
 340.016942673 240.64528033 340.016942673 240.64528033 340.657599136 241.263191341 c 2,20,-1
 343.300487953 243.738894498 l 1,21,-1
 346.169304287 245.920303039 l 2,22,23
 351.658204432 249.975342572 351.658204432 249.975342572 356.339322465 253.019965912 c 2,24,-1
 356.517666429 253.133923861 l 1,25,-1
 371.427720262 262.533740409 l 1,26,-1
 369.681119855 263.372108604 l 1,27,-1
 368.698511533 263.882941134 l 2,28,29
 357.167851907 270.120168111 357.167851907 270.120168111 351.465034141 274.123461235 c 2,30,-1
 346.804400631 277.469373142 l 1,31,-1
 342.71769984 281.560084868 l 2,32,33
 327.868447995 297.267420806 327.868447995 297.267420806 321.098512648 314.292080054 c 2,34,-1
 318.290695163 321.693198858 l 1,35,-1
 317.205669217 329.562173619 l 2,36,37
 314.14697598 356.072812127 314.14697598 356.072812127 324.560718076 378.917525865 c 2,38,-1
 327.555733129 385.250563705 l 1,39,-1
 331.762302056 390.867612148 l 2,40,41
 336.650375643 397.09861472 336.650375643 397.09861472 341.359131194 401.925459915 c 0,42,43
 347.387804555 407.707109044 347.387804555 407.707109044 353.107775479 412.090256856 c 2,44,-1
 353.599929494 412.458602826 l 1,45,-1
 354.098249334 412.818046645 l 1,46,-1
 382.598725796 433.375488972 l 1,47,48
 365.716193124 454.105447474 365.716193124 454.105447474 355.342782819 478.26849632 c 2,49,-1
 354.96935644 479.153741307 l 1,50,-1
 354.620400376 480.049270342 l 2,51,52
 340.191905561 518.162229807 340.191905561 518.162229807 340.013726262 575 c 2,53,-1
 340.013726262 599 l 1,54,-1
 479.986273738 599 l 1,55,-1
 479.986273738 575 l 2,56,57
 480.139205796 546.191968233 480.139205796 546.191968233 484.785645024 531.706050157 c 0,58,59
 488.112537932 525.136919852 488.112537932 525.136919852 491.781586303 521.226923927 c 0,60,61
 495.686851783 517.833242019 495.686851783 517.833242019 499.230654848 515.637086251 c 0,62,63
 506.47348477 511.772359666 506.47348477 511.772359666 511.199972829 508.86998418 c 2,64,-1
 513.771565207 507.261041077 l 1,65,-1
 516.197720618 505.431124027 l 2,66,67
 522.305196775 500.611379477 522.305196775 500.611379477 527.102764885 495.9240036 c 0,68,69
 531.626975445 491.22004121 531.626975445 491.22004121 535.050888542 487.093499668 c 2,70,-1
 538.509000869 482.833764427 l 1,71,-1
 541.249950357 478.10164278 l 2,72,73
 549.285472688 463.600758079 549.285472688 463.600758079 552.482023056 447.365635224 c 2,74,-1
 553.443065411 442.248245838 l 1,75,-1
 553.640452346 437.0379021 l 2,76,77
 553.968630459 421.178933394 553.968630459 421.178933394 549.638446955 405.767593563 c 2,78,-1
 548.314928817 401.183415475 l 1,79,-1
 546.383305093 396.830679903 l 2,80,81
 538.121625985 379.146920542 538.121625985 379.146920542 523.362784611 364.222363471 c 0,82,83
 520.194208204 361.142084958 520.194208204 361.142084958 517.873356696 359.006939663 c 2,84,-1
 516.16243493 357.459623302 l 1,85,-1
 514.359499289 356.031963563 l 2,86,87
 511.201701646 353.589316257 511.201701646 353.589316257 508.881653868 351.869062332 c 1,88,89
 518.48217988 347.02926048 518.48217988 347.02926048 525.199408553 342.840808214 c 2,90,-1
 527.387617649 341.451402603 l 1,91,-1
 529.469587641 339.900674863 l 2,92,93
 535.831703456 334.929139861 535.831703456 334.929139861 540.636818192 330.250983179 c 0,94,95
 551.239540651 319.152001679 551.239540651 319.152001679 558.044337427 306.791185264 c 2,96,-1
 560.893946605 301.455253387 l 1,97,-1
 562.78212942 295.696715782 l 2,98,99
 566.490569791 283.665696932 566.490569791 283.665696932 567.275181762 271.235346708 c 2,100,-1
 567.62650048 264.943379955 l 1,101,-1
 566.85682655 258.692123822 l 2,102,103
 565.093904408 246.201417108 565.093904408 246.201417108 560.465781991 234.583721907 c 2,104,-1
 557.976155112 228.446728609 l 1,105,-1
 554.37300431 222.892411558 l 2,106,107
 548.939586924 214.868384592 548.939586924 214.868384592 542.433156325 207.899554645 c 2,108,-1
 538.794577436 204.031657407 l 1,109,-1
 534.647664048 200.769647664 l 2,110,111
 530.092721285 197.298968638 530.092721285 197.298968638 525.222307257 194.007703719 c 2,112,-1
 524.272910415 193.364483279 l 1,113,-1
 523.303312387 192.753214957 l 1,114,-1
 507.272955503 182.6471204 l 1,115,116
 517.221064569 177.610244647 517.221064569 177.610244647 524.714161891 172.579653742 c 2,117,-1
 527.642974303 170.571471645 l 1,118,-1
 530.361926627 168.268770472 l 2,119,120
 533.91955152 165.121621102 533.91955152 165.121621102 536.38161825 162.72487598 c 0,121,122
 545.237752322 153.482981988 545.237752322 153.482981988 551.607917624 143.328488449 c 2,123,-1
 554.390905689 138.785596851 l 1,124,-1
 556.449194469 133.869118393 l 2,125,126
 563.528223472 116.057123515 563.528223472 116.057123515 563.766953535 96.7690463039 c 2,127,-1
 563.784116148 91.8843486722 l 1,128,-1
 563.127939815 87.047823588 l 2,129,130
 560.574405424 70.4252875555 560.574405424 70.4252875555 553.002790874 55.1064110309 c 2,131,-1
 551.067639781 51.2606785826 l 1,132,-1
 548.670579976 47.6810148676 l 2,133,134
 542.596169268 39.0062511785 542.596169268 39.0062511785 535.405953272 31.7046656471 c 0,135,136
 526.880600096 23.4400855216 526.880600096 23.4400855216 516.86993299 15.9410404163 c 2,137,-1
 515.742799879 15.1051801632 l 1,138,-1
 514.58407691 14.3161049157 l 2,139,140
 505.580011051 8.14861946113 505.580011051 8.14861946113 500.795498343 4.59355066856 c 0,141,142
 486.544739892 -6.86958601129 486.544739892 -6.86958601129 474.292928557 -19.0162832006 c 0,143,144
 465.162123153 -28.2925686984 465.162123153 -28.2925686984 457.379036747 -37.2903872051 c 0,145,146
 438.84150757 -59.6594064871 438.84150757 -59.6594064871 425.215216412 -83.9795535924 c 1,147,-1
 302.77627932 -16.0357716301 l 1,148,149
 323.727901661 21.2383120513 323.727901661 21.2383120513 350.454860151 53.0933624099 c 2,150,-1
 350.622174329 53.2916479203 l 2,151,152
 363.138007924 67.7464119417 363.138007924 67.7464119417 375.29797919 79.9786661655 c 0,153,154
 378.779746997 83.4604339725 378.779746997 83.4604339725 382.325607616 86.8563039317 c 1,0,-1
209.970265521 23.4303492576 m 0,155,-1
 78.029734479 -23.4303492576 l 1,156,157
 31.4906588936 108.045738936 31.4906588936 108.045738936 39.1280233166 242.013336736 c 0,158,-1
 39.1532464819 242.433679225 l 1,159,160
 50.0451811583 406.182450717 50.0451811583 406.182450717 135.348753771 519.84475354 c 2,161,-1
 135.577804754 520.148450134 l 2,162,163
 153.322921594 542.878011786 153.322921594 542.878011786 171.832393143 561.508102523 c 0,164,165
 209.029830407 598.2444285 209.029830407 598.2444285 252.034402837 623.139382674 c 0,166,-1
 252.733905429 623.535800102 l 2,167,168
 325.192593692 663.526806091 325.192593692 663.526806091 404.496781191 668.842337696 c 2,169,-1
 404.87900039 668.866798632 l 1,170,171
 492.405617671 673.035317027 492.405617671 673.035317027 571.291048586 637.387301036 c 2,172,-1
 571.65645521 637.220919382 l 1,173,174
 632.900573205 608.010673659 632.900573205 608.010673659 680.540777536 560.666795484 c 0,175,176
 692.727466312 548.326352691 692.727466312 548.326352691 703.280365498 535.981904718 c 0,177,-1
 703.677478398 535.510152921 l 1,178,179
 802.289351195 416.239712739 802.289351195 416.239712739 812.864111456 242.148999981 c 0,180,-1
 812.885646327 241.765903627 l 2,181,182
 819.763723009 105.431592003 819.763723009 105.431592003 771.580785731 -24.5026714108 c 1,183,-1
 640.371202708 24.3737836484 l 1,184,-1
 640.419214269 24.5026714108 l 2,185,186
 678.551705252 128.030290786 678.551705252 128.030290786 673.124563846 234.042544598 c 0,187,188
 664.895979498 362.7551794 664.895979498 362.7551794 596.282273238 445.685267635 c 0,189,190
 588.635299597 454.509520743 588.635299597 454.509520743 581.545828169 461.671846118 c 0,191,192
 550.428976795 492.201632456 550.428976795 492.201632456 512.832555178 510.147673737 c 0,193,194
 464.460284879 531.548342974 464.460284879 531.548342974 413.122551263 529.13297481 c 0,195,196
 364.899550177 525.483763181 364.899550177 525.483763181 321.400894622 501.500098561 c 0,197,198
 293.64490602 485.106884694 293.64490602 485.106884694 270.827342509 462.513153156 c 0,199,200
 257.978908623 449.421212738 257.978908623 449.421212738 246.990664435 435.34421114 c 0,201,202
 186.765263721 354.15117903 186.765263721 354.15117903 178.860042511 233.776596395 c 0,203,204
 173.266998423 127.694964509 173.266998423 127.694964509 209.970265521 23.4303492576 c 0,155,-1
EndSplineSet
Layer: 2
SplineSet
174.594667294 10.9750279132 m 1,0,-1
 113.405332706 -10.9750279132 l 1,1,2
 69.3407761019 113.451788513 69.3407761019 113.451788513 76.5628500776 239.922227831 c 0,3,4
 86.1367635762 392.361944256 86.1367635762 392.361944256 165.3744473 497.371769204 c 0,5,6
 181.152197267 517.862999241 181.152197267 517.862999241 198.246299011 535.083563068 c 0,7,8
 232.116593488 568.480384407 232.116593488 568.480384407 270.837247723 590.684958106 c 0,9,10
 335.48652973 626.886056344 335.48652973 626.886056344 407.037575596 631.434760842 c 0,11,12
 484.741575025 635.618102972 484.741575025 635.618102972 555.837561584 603.211756763 c 0,13,14
 610.215772919 577.745703237 610.215772919 577.745703237 653.848582156 534.407154249 c 0,15,16
 665.160876326 522.93536606 665.160876326 522.93536606 674.754162632 511.637227044 c 0,17,18
 765.879845728 402.512625358 765.879845728 402.512625358 775.440815784 239.858853356 c 0,19,20
 782.317938121 111.727292563 782.317938121 111.727292563 736.429176208 -11.4272376164 c 1,21,-1
 675.548626016 11.3679526206 l 1,22,23
 716.788259441 122.674099813 716.788259441 122.674099813 710.559184216 236.141146644 c 0,24,25
 701.858405188 377.956207878 701.858405188 377.956207878 625.007419002 469.795955756 c 0,26,27
 616.301198439 479.952775425 616.301198439 479.952775425 607.886641379 488.445213471 c 0,28,29
 571.560288899 524.177281545 571.560288899 524.177281545 528.651064082 544.157370974 c 0,30,31
 486.540042728 563.129605363 486.540042728 563.129605363 442.655481863 566.312434405 c 1,32,33
 443.625416456 533.919831213 443.625416456 533.919831213 449.935854052 517.781935249 c 0,34,35
 455.934885629 504.211335725 455.934885629 504.211335725 465.443657828 494.357925608 c 0,36,37
 473.15355541 487.149285571 473.15355541 487.149285571 481.058982525 482.807817047 c 2,38,-1
 482.474269884 482.077398627 l 2,39,40
 489.233696701 478.417250388 489.233696701 478.417250388 492.355962638 476.389436137 c 0,41,42
 497.448156777 472.632093381 497.448156777 472.632093381 500.915662129 469.327524863 c 0,43,44
 505.131101381 464.747809924 505.131101381 464.747809924 507.838356242 460.851306643 c 0,45,46
 514.678125163 449.513686511 514.678125163 449.513686511 516.058805373 437.387777381 c 0,47,48
 516.798664598 424.899096819 516.798664598 424.899096819 512.797306772 413.738538405 c 0,49,50
 507.752042076 401.56466462 507.752042076 401.56466462 498.295922815 391.872792725 c 0,51,52
 494.599488032 388.348371598 494.599488032 388.348371598 491.40091562 385.691960087 c 0,53,54
 486.167735641 381.541355068 486.167735641 381.541355068 478.874616768 376.385209881 c 0,55,56
 475.962013828 374.315033116 475.962013828 374.315033116 474.990098523 373.620192629 c 2,57,-1
 435.800787969 345.352493212 l 1,58,-1
 490.077297015 319.29976887 l 2,59,60
 490.544378885 319.075569573 490.544378885 319.075569573 491.049627932 318.834083699 c 0,61,62
 501.128363304 313.781695961 501.128363304 313.781695961 506.010874521 310.575043874 c 0,63,64
 511.290841351 306.67426674 511.290841351 306.67426674 514.857044039 303.272532225 c 0,65,66
 522.627152226 294.769597878 522.627152226 294.769597878 526.457835942 285.901105833 c 0,67,68
 530.126455154 275.548317897 530.126455154 275.548317897 529.851101789 265.664552395 c 0,69,70
 528.865318425 254.607168451 528.865318425 254.607168451 524.237756189 245.553028991 c 0,71,72
 520.267515989 238.852360186 520.267515989 238.852360186 515.497962291 233.87598278 c 0,73,74
 513.634109675 232.120875793 513.634109675 232.120875793 512.731233767 231.295945061 c 0,75,76
 508.323616049 227.627049448 508.323616049 227.627049448 503.319395037 224.492564087 c 2,77,-1
 429.497759886 177.952837579 l 1,78,-1
 489.91058569 149.379203753 l 2,79,80
 499.716766596 144.405902487 499.716766596 144.405902487 504.855893773 140.670479 c 0,81,82
 508.38391898 137.771084488 508.38391898 137.771084488 510.685733024 135.575646251 c 0,83,84
 517.359781486 128.312832302 517.359781486 128.312832302 521.155396567 120.931655153 c 0,85,86
 527.035529519 107.569212579 527.035529519 107.569212579 526.16308048 93.8196643334 c 0,87,88
 524.655215382 80.7878809224 524.655215382 80.7878809224 518.34679123 69.8754159195 c 0,89,90
 513.843066545 62.9012595867 513.843066545 62.9012595867 508.534951046 57.4223763041 c 0,91,92
 502.028218665 51.1826658133 502.028218665 51.1826658133 493.522093683 45.3494779395 c 0,93,94
 492.454768822 44.6212695332 492.454768822 44.6212695332 491.417936726 43.9163003169 c 0,95,96
 481.862350738 37.3343774089 481.862350738 37.3343774089 477.982487485 34.3653074481 c 0,97,98
 461.633216169 21.3905632696 461.633216169 21.3905632696 447.737674359 7.60681430663 c 0,99,100
 437.461969015 -2.82717114244 437.461969015 -2.82717114244 428.860243501 -12.9362039761 c 0,101,102
 407.877573708 -38.1638765141 407.877573708 -38.1638765141 392.421350477 -65.7762213106 c 1,103,-1
 335.574701113 -34.2308939713 l 1,104,105
 354.275890199 -0.53018364928 354.275890199 -0.53018364928 379.139756499 28.9362039761 c 0,106,107
 390.446897744 42.1620874171 390.446897744 42.1620874171 401.775733582 53.5687550838 c 0,108,109
 419.51070122 71.0765872702 419.51070122 71.0765872702 438.017512515 85.6346925519 c 0,110,111
 444.217728379 90.3871853038 444.217728379 90.3871853038 451.712221835 95.528927823 c 1,112,-1
 388.08941431 125.620796247 l 2,113,114
 376.331225673 131.506012453 376.331225673 131.506012453 370.699504279 135.57805266 c 0,115,116
 366.952940213 138.625845692 366.952940213 138.625845692 364.492650698 140.973440086 c 0,117,118
 354.998545878 151.346523764 354.998545878 151.346523764 351.238158139 162.84283685 c 0,119,120
 345.783051792 183.83541247 345.783051792 183.83541247 356.269541851 201.965667922 c 0,121,122
 359.988268942 207.572942073 359.988268942 207.572942073 363.965676993 211.723232959 c 0,123,124
 366.244750589 213.861326333 366.244750589 213.861326333 367.616941573 215.066989986 c 0,125,126
 371.875981424 218.492920902 371.875981424 218.492920902 376.680604963 221.507435913 c 2,127,-1
 448.822619531 266.988271184 l 1,128,-1
 386.901877973 296.710227115 l 2,129,130
 376.97276904 301.853113701 376.97276904 301.853113701 372.056050481 305.556705514 c 0,131,132
 369.251848717 307.96066248 369.251848717 307.96066248 367.581854547 309.545034271 c 0,133,134
 358.558655343 319.485863246 358.558655343 319.485863246 355.185505661 330.601931873 c 0,135,136
 350.880849472 349.123721702 350.880849472 349.123721702 359.67201754 365.182560684 c 0,137,138
 363.29104422 370.914833961 363.29104422 370.914833961 367.437660761 375.232444061 c 0,139,140
 370.903682747 378.698466047 370.903682747 378.698466047 375.849094174 382.263854352 c 2,141,-1
 437.009901477 426.379807371 l 2,142,143
 438.503621718 427.457244922 438.503621718 427.457244922 441.2786894 429.420031555 c 0,144,145
 441.85236099 429.825790826 441.85236099 429.825790826 442.308748045 430.149338671 c 1,146,147
 429.620259916 438.447812878 429.620259916 438.447812878 419.48171705 448.395984831 c 0,148,149
 400.043913173 468.492044442 400.043913173 468.492044442 389.723537962 493.27171869 c 0,150,151
 379.120966427 520.154979998 379.120966427 520.154979998 377.719696657 562.122299429 c 1,152,153
 338.6605609 554.252440377 338.6605609 554.252440377 302.944810162 534.154086582 c 0,154,155
 270.844961081 515.528597945 270.844961081 515.528597945 244.208239788 489.121622291 c 0,156,157
 229.41181438 474.073843498 229.41181438 474.073843498 217.193906278 458.121123628 c 0,158,159
 149.476233938 367.905257014 149.476233938 367.905257014 141.437149922 236.077772169 c 0,160,161
 135.124776386 121.967504037 135.124776386 121.967504037 174.594667294 10.9750279132 c 1,0,-1
  Spiro
    174.595 10.975 v
    113.405 -10.975 v
    82.1624 113.963 o
    76.5629 239.922 o
    103.553 380.504 o
    165.374 497.372 o
    181.481 517.045 o
    198.246 535.084 o
    233.329 565.682 o
    270.837 590.685 o
    337.212 618.973 o
    407.038 631.435 o
    483.09 626.471 o
    555.838 603.212 o
    607.529 573.278 o
    653.849 534.407 o
    664.731 522.979 o
    674.754 511.637 o
    745.489 389.13 o
    775.441 239.859 o
    769.126 112.972 o
    736.429 -11.4272 v
    675.549 11.368 v
    704.921 123.214 o
    710.559 236.141 o
    684.821 365.462 o
    625.007 469.796 o
    616.374 479.537 o
    607.887 488.445 o
    569.915 520.239 o
    528.651 544.157 o
    486.097 559.182 o
    442.655 566.312 v
    444.961 537.984 o
    449.936 517.782 o
    456.812 505.141 o
    465.444 494.358 o
    473.202 487.866 o
    481.059 482.808 [
    482.474 482.077 ]
    488.324 478.825 o
    492.356 476.389 o
    497.042 472.745 o
    500.916 469.328 o
    504.754 464.919 o
    507.838 460.851 o
    513.313 449.317 o
    516.059 437.388 o
    515.613 425.231 o
    512.797 413.739 o
    506.649 402.185 o
    498.296 391.873 o
    494.724 388.565 o
    491.401 385.692 o
    485.653 381.29 o
    478.875 376.385 o
    476.447 374.659 o
    474.99 373.62 [
    435.801 345.352 v
    490.077 319.3 ]
    490.554 319.071 o
    491.05 318.834 o
    499.829 314.243 o
    506.011 310.575 o
    510.862 306.799 o
    514.857 303.273 o
    521.642 294.678 o
    526.458 285.901 o
    529.14 275.666 o
    529.851 265.665 o
    527.955 255.108 o
    524.238 245.553 o
    520.068 239.283 o
    515.498 233.876 o
    513.874 232.353 o
    512.731 231.296 o
    508.174 227.761 o
    503.319 224.493 [
    429.498 177.953 v
    489.911 149.379 ]
    498.55 144.715 o
    504.856 140.67 o
    508.077 137.947 o
    510.686 135.576 o
    516.64 128.283 o
    521.155 120.932 o
    525.347 107.472 o
    526.163 93.8197 o
    523.455 81.3177 o
    518.347 69.8754 o
    513.642 63.2751 o
    508.535 57.4224 o
    501.528 51.2843 o
    493.522 45.3495 o
    492.462 44.6271 o
    491.418 43.9163 o
    483.281 38.2376 o
    477.982 34.3653 o
    462.247 21.1883 o
    447.738 7.60681 o
    437.88 -2.74593 o
    428.86 -12.9362 o
    409.259 -38.76 o
    392.421 -65.7762 v
    335.575 -34.2309 v
    355.817 -1.58876 o
    379.14 28.9362 o
    390.452 41.7073 o
    401.776 53.5688 o
    419.704 70.3392 o
    438.018 85.6347 o
    444.541 90.4845 o
    451.712 95.5289 v
    388.089 125.621 ]
    377.863 131.053 o
    370.7 135.578 o
    367.275 138.451 o
    364.493 140.973 o
    356.432 151.627 o
    351.238 162.843 o
    349.768 183.12 o
    356.27 201.966 o
    360.053 207.209 o
    363.966 211.723 o
    366.018 213.628 o
    367.617 215.067 o
    372.012 218.39 o
    376.681 221.507 [
    448.823 266.988 v
    386.902 296.71 ]
    378.226 301.493 o
    372.056 305.557 o
    369.535 307.756 o
    367.582 309.545 o
    359.971 319.78 o
    355.186 330.602 o
    354.155 348.508 o
    359.672 365.183 o
    363.423 370.561 o
    367.438 375.232 o
    371.274 378.723 o
    375.849 382.264 [
    437.01 426.38 ]
    438.824 427.679 o
    441.279 429.42 o
    441.823 429.805 o
    442.309 430.149 v
    430.258 438.86 o
    419.482 448.396 o
    402.323 469.663 o
    389.724 493.272 o
    381.421 523.926 o
    377.72 562.122 v
    339.496 551.195 o
    302.945 534.154 o
    272.211 513.583 o
    244.208 489.122 o
    230.056 473.848 o
    217.194 458.121 o
    164.396 357.502 o
    141.437 236.078 o
    146.57 122.747 o
    0 0 z
  EndSpiro
EndSplineSet
EndChar

StartChar: uni1709
Encoding: 13 5897 14
Width: 1070
GlyphClass: 2
Flags: W
AnchorPoint: "Anchor-1" 590 0 basechar 0
AnchorPoint: "Anchor-0" 488 693 basechar 0
LayerCount: 3
Back
SplineSet
705 404 m 0,0,1
 755.074251183 344.50898045 755.074251183 344.50898045 793 278 c 0,2,3
 809.34331003 249.062626723 809.34331003 249.062626723 823 220 c 1024
  Spiro
    705 404 {
    793 278 o
    823 220 o
    0 0 z
  EndSpiro
57 406 m 1,5,-1
 179 406 l 2,6,7
 182.819056997 406 182.819056997 406 190.457516472 406.085579901 c 0,8,9
 203.607937874 406.232914813 203.607937874 406.232914813 210.181422246 406.088211406 c 0,10,11
 229.486011607 405.274846682 229.486011607 405.274846682 240.649982267 400.540922094 c 0,12,13
 248.36364721 396.614267677 248.36364721 396.614267677 253.444672405 391.788286203 c 0,14,15
 259.00625429 385.493329843 259.00625429 385.493329843 261.818710823 378.770534679 c 0,16,17
 264.315110523 371.236790895 264.315110523 371.236790895 264.512986054 363.499762186 c 0,18,19
 264.390492078 357.13832739 264.390492078 357.13832739 263 348 c 2,20,-1
 251 270 l 2,21,22
 240.493750936 200.999364879 240.493750936 200.999364879 239.367190907 176.930101916 c 0,23,24
 237.478468783 121.739791953 237.478468783 121.739791953 257 86 c 0,25,26
 271.615127282 61.1142088948 271.615127282 61.1142088948 293.729414662 46.5436422083 c 0,27,28
 317.453938996 31.9751688263 317.453938996 31.9751688263 345 30 c 0,29,30
 385.155220758 28.0927399886 385.155220758 28.0927399886 427 52 c 0,31,32
 483.898954522 85.5025881842 483.898954522 85.5025881842 551.727137657 171.887246013 c 0,33,34
 594.89807711 227.182378265 594.89807711 227.182378265 649 316 c 2,35,-1
 761 500 l 2,36,37
 794.482207702 554.023045655 794.482207702 554.023045655 823.718990299 575.257807187 c 0,38,39
 866.507578347 605.711153442 866.507578347 605.711153442 917 600 c 0,40,41
 952.284351807 595.467908566 952.284351807 595.467908566 980.398558712 575.134200555 c 0,42,43
 1008.7350763 553.481484724 1008.7350763 553.481484724 1023 522 c 1024
  Spiro
    57 406 {
    179 406 ]
    263 348 [
    251 270 ]
    257 86 o
    345 30 o
    427 52 o
    649 316 [
    761 500 ]
    917 600 o
    1023 522 [
    0 0 z
  EndSpiro
EndSplineSet
Fore
SplineSet
662.046875 342.168945312 m 5,0,-1
 769.161132812 432.327148438 l 5,1,2
 832.647460938 357.196289062 832.647460938 357.196289062 864.616210938 295.615234375 c 4,3,4
 880.647460938 264.196289062 880.647460938 264.196289062 897 233 c 4,5,-1
 770.294921875 173.392578125 l 5,6,7
 757.647460938 200.196289062 757.647460938 200.196289062 742.678710938 226.77734375 c 4,8,9
 707.647460938 288.196289062 707.647460938 288.196289062 662.046875 342.168945312 c 5,0,-1
57 336.013726262 m 1,10,-1
 57 475.986273738 l 1,11,-1
 179 475.986273738 l 2,12,13
 183.40974665 476.001080476 183.40974665 476.001080476 189.667444812 476.067427881 c 0,14,15
 204.178487438 476.204302531 204.178487438 476.204302531 211.733446756 476.05740489 c 0,16,-1
 213.149907501 476.01197945 l 2,17,18
 245.625209224 474.248294238 245.625209224 474.248294238 268.027944461 464.977238976 c 2,19,-1
 270.261925354 464.029950829 l 1,20,-1
 272.423210301 462.929745006 l 2,21,22
 289.505827599 453.817155878 289.505827599 453.817155878 301.6301126 442.564482812 c 2,23,-1
 303.888129913 440.419807417 l 1,24,-1
 305.943405799 438.093513877 l 2,25,26
 319.186381333 422.506487573 319.186381333 422.506487573 326.385472454 405.838790269 c 2,27,-1
 327.410256531 403.389183187 l 1,28,-1
 328.246371175 400.865919986 l 2,29,30
 333.872278509 382.95401464 333.872278509 382.95401464 334.476208055 365.302751736 c 2,31,-1
 334.51662239 363.722531761 l 1,32,-1
 334.486189424 362.142067711 l 2,33,34
 334.13143835 350.466604247 334.13143835 350.466604247 332.167466005 337.287433285 c 2,35,-1
 320.183921129 259.394944804 l 2,36,37
 310.522459604 195.704433749 310.522459604 195.704433749 309.296066245 174.030725475 c 0,38,39
 308.484314009 139.32636692 308.484314009 139.32636692 317.971315735 120.452566137 c 0,40,41
 322.051674138 114.21041014 322.051674138 114.21041014 325.842506173 110.231018556 c 0,42,43
 329.018593785 107.349845962 329.018593785 107.349845962 331.342643348 105.618727028 c 0,44,45
 340.427176949 100.812994002 340.427176949 100.812994002 349.195924826 99.8726169277 c 0,46,47
 369.175798724 99.9730542334 369.175798724 99.9730542334 391.88399053 112.572645154 c 0,48,49
 416.457887037 127.610648889 416.457887037 127.610648889 444.364727824 155.311932524 c 0,50,51
 469.731590474 180.932687093 469.731590474 180.932687093 496.502297662 214.911524455 c 0,52,53
 537.642909733 267.881627733 537.642909733 267.881627733 589.178453528 352.375549375 c 2,54,-1
 701.178453528 536.375549375 l 1,55,-1
 701.323743289 536.614239695 l 2,56,57
 730.263632664 582.80614896 730.263632664 582.80614896 757.494712552 610.271853973 c 0,58,59
 770.517535279 623.008477258 770.517535279 623.008477258 782.632187767 631.941912484 c 0,60,-1
 783.176536949 632.333291615 l 2,61,62
 811.823467256 652.294720041 811.823467256 652.294720041 842.39564522 662.00212775 c 0,63,64
 882.674685381 674.111511518 882.674685381 674.111511518 924.921759632 669.539811999 c 2,65,-1
 925.45039879 669.480018088 l 1,66,-1
 925.977992611 669.412251406 l 2,67,68
 979.206176015 662.053090375 979.206176015 662.053090375 1021.37247045 631.90012654 c 2,69,-1
 1022.11669088 631.361866263 l 1,70,-1
 1022.84705333 630.80377614 l 2,71,72
 1034.89365327 621.381424635 1034.89365327 621.381424635 1044.64432438 611.752527679 c 0,73,74
 1071.3144438 584.478624346 1071.3144438 584.478624346 1086.75542551 550.930740009 c 0,75,-1
 959.244574491 493.069259991 l 1,76,77
 953.565762449 504.568699124 953.565762449 504.568699124 945.649375012 512.757578313 c 0,78,79
 941.827386292 516.353506061 941.827386292 516.353506061 938.680938754 518.899854314 c 0,80,81
 924.657019093 528.136401525 924.657019093 528.136401525 908.554138834 530.517840661 c 0,82,83
 895.062971672 531.581357604 895.062971672 531.581357604 884.154426171 528.365559098 c 0,84,85
 873.813700132 524.73060466 873.813700132 524.73060466 864.57044205 518.401326294 c 0,86,87
 860.245555108 514.910026775 860.245555108 514.910026775 856.489661918 511.276904607 c 0,88,89
 839.960485349 494.213832404 839.960485349 494.213832404 820.671256223 463.377545216 c 2,90,-1
 708.821546472 279.624450625 l 2,91,92
 652.361477034 187.158834445 652.361477034 187.158834445 606.951977652 128.862967571 c 0,93,94
 573.81161616 86.8924291715 573.81161616 86.8924291715 543.35967719 56.3169831578 c 0,95,96
 501.379084455 14.7585479658 501.379084455 14.7585479658 462.503302396 -8.34376861731 c 2,97,-1
 462.112109217 -8.57410648673 l 1,98,99
 401.719168841 -42.4277278282 401.719168841 -42.4277278282 341.654473992 -39.9068710159 c 2,100,-1
 340.805235709 -39.8665345868 l 1,101,-1
 339.957326157 -39.8057358935 l 2,102,103
 295.003818656 -36.0960014432 295.003818656 -36.0960014432 257.122103074 -13.136209781 c 2,104,-1
 256.177809813 -12.5563494202 l 1,105,-1
 255.252112772 -11.94643013 l 2,106,107
 239.564640279 -1.30242541242 239.564640279 -1.30242541242 226.847556807 11.2360691898 c 0,108,109
 209.350219577 29.1760451748 209.350219577 29.1760451748 196.616466184 50.5643199702 c 2,110,-1
 196.06990597 51.4949710053 l 1,111,-1
 195.552588152 52.4420704392 l 2,112,113
 167.115636717 105.639629667 167.115636717 105.639629667 169.422173899 179.341995848 c 2,114,-1
 169.437321137 179.784612983 l 2,115,116
 170.962390133 209.204884494 170.962390133 209.204884494 181.816078871 280.605055196 c 2,117,-1
 190.352754312 336.093838576 l 1,118,119
 183.004572586 336.013726262 183.004572586 336.013726262 179 336.013726262 c 2,120,-1
 57 336.013726262 l 1,10,-1
  Spiro
    57 336.014 v
    57 475.986 v
    179 475.986 ]
    183.872 476.014 o
    189.667 476.067 o
    202.439 476.133 o
    211.733 476.057 o
    213.15 476.012 ]
    243.107 472.371 o
    268.028 464.977 [
    270.262 464.03 v
    272.423 462.93 ]
    288.266 453.282 o
    301.63 442.564 [
    303.888 440.42 v
    305.943 438.094 ]
    317.675 422.236 o
    326.385 405.839 [
    327.41 403.389 v
    328.246 400.866 ]
    332.617 383.019 o
    334.476 365.303 [
    334.517 363.723 v
    334.486 362.142 ]
    333.729 350.091 o
    332.167 337.287 [
    320.184 259.395 ]
    312.631 206.209 o
    309.296 174.031 o
    311.059 143.284 o
    317.971 120.453 o
    321.979 114.776 o
    325.843 110.231 o
    328.806 107.637 o
    331.343 105.619 o
    340.348 101.779 o
    349.196 99.8726 o
    369.858 103.098 o
    391.884 112.573 o
    417.291 130.776 o
    444.365 155.312 o
    470.083 183.022 o
    496.502 214.912 o
    540.242 275.763 o
    589.178 352.376 [
    701.178 536.376 v
    701.324 536.614 ]
    729.836 578.125 o
    757.495 610.272 o
    770.29 622.058 o
    782.632 631.942 o
    783.177 632.333 ]
    812.305 649.731 o
    842.396 662.002 o
    883.167 669.941 o
    924.922 669.54 [
    925.45 669.48 v
    925.978 669.412 ]
    976.441 656.355 o
    1021.37 631.9 [
    1022.12 631.362 v
    1022.85 630.804 ]
    1034.32 621.33 o
    1044.64 611.753 o
    1068.51 582.91 o
    1086.76 550.931 ]
    959.245 493.069 v
    953.006 503.741 o
    945.649 512.758 o
    941.996 516.091 o
    938.681 518.9 o
    924.137 526.423 o
    908.554 530.518 o
    895.709 530.512 o
    884.154 528.366 o
    874.088 524.057 o
    864.57 518.401 o
    860.388 514.875 o
    856.49 511.277 o
    839.27 490.771 o
    820.671 463.378 [
    708.822 279.624 ]
    655.124 195.701 o
    606.952 128.863 o
    574.484 89.7412 o
    543.36 56.317 o
    502.155 19.3726 o
    462.503 -8.34377 [
    462.112 -8.57411 v
    401.801 -33.3341 o
    341.654 -39.9069 [
    340.805 -39.8665 v
    339.957 -39.8057 ]
    296.772 -31.2835 o
    257.122 -13.1362 [
    256.178 -12.5563 v
    255.252 -11.9464 ]
    240.307 -0.828803 o
    226.848 11.2361 o
    210.541 30.0381 o
    196.616 50.5643 [
    196.07 51.495 v
    195.553 52.4421 ]
    174.802 110.766 o
    169.422 179.342 [
    169.437 179.785 ]
    173.295 219.7 o
    181.816 280.605 [
    190.353 336.094 v
    183.84 336.034 o
    179 336.014 [
    0 0 z
  EndSpiro
215.216197896 335.387344691 m 1,121,-1
 215.216197896 335.387344691 l 1,121,-1
  Spiro
    215.216 335.387 v
    0 0 z
  EndSpiro
EndSplineSet
Layer: 2
SplineSet
327 0 m 0,0,1
 259 0 259 0 226.5 42 c 128,-1,2
 194 84 194 84 194 151 c 0,3,4
 194 186 194 186 202.5 231 c 128,-1,5
 211 276 211 276 218 311 c 0,6,7
 222 328 222 328 223 343 c 128,-1,8
 224 358 224 358 224 374 c 1,9,-1
 58 374 l 1,10,-1
 58 442 l 1,11,-1
 199 442 l 2,12,13
 256 442 256 442 278.5 422.5 c 128,-1,14
 301 403 301 403 301 364 c 0,15,16
 301 343 301 343 296.5 320 c 128,-1,17
 292 297 292 297 288 280 c 0,18,19
 279 241 279 241 275 211.5 c 128,-1,20
 271 182 271 182 271 144 c 0,21,22
 271 107 271 107 287.5 87.5 c 128,-1,23
 304 68 304 68 332 68 c 0,24,25
 387 68 387 68 435.5 106.5 c 128,-1,26
 484 145 484 145 532 208 c 0,27,28
 557 241 557 241 583.5 280 c 128,-1,29
 610 319 610 319 643 371 c 128,-1,30
 676 423 676 423 719 492 c 0,31,32
 765 566 765 566 807.5 600 c 128,-1,33
 850 634 850 634 910 634 c 0,34,35
 962 634 962 634 999.5 607 c 128,-1,36
 1037 580 1037 580 1056 533 c 1,37,-1
 993 506 l 1,38,39
 980 539 980 539 958 552.5 c 128,-1,40
 936 566 936 566 906 566 c 0,41,42
 872 566 872 566 843 542 c 128,-1,43
 814 518 814 518 780 461 c 2,44,-1
 746 404 l 1,45,46
 764 382 764 382 784 352 c 128,-1,47
 804 322 804 322 822 291 c 128,-1,48
 840 260 840 260 852 235 c 1,49,-1
 789 202 l 1,50,51
 773 233 773 233 751 271.5 c 128,-1,52
 729 310 729 310 706 340 c 1,53,54
 681 300 681 300 651 253.5 c 128,-1,55
 621 207 621 207 586.5 162.5 c 128,-1,56
 552 118 552 118 512 81 c 128,-1,57
 472 44 472 44 426 22 c 128,-1,58
 380 0 380 0 327 0 c 0,0,1
EndSplineSet
EndChar

StartChar: uni170A
Encoding: 14 5898 15
Width: 847
GlyphClass: 2
Flags: W
AnchorPoint: "Anchor-1" 516 -79 basechar 0
AnchorPoint: "Anchor-0" 484 693 basechar 0
LayerCount: 3
Back
SplineSet
102 261 m 0,0,1
 135.628268255 400.840284487 135.628268255 400.840284487 235 502 c 0,2,3
 284.94133751 551.95213732 284.94133751 551.95213732 342.901832744 577.402502805 c 128,-1,4
 406.549654684 604.53926961 406.549654684 604.53926961 472 601 c 0,5,6
 536.800574643 596.762266852 536.800574643 596.762266852 592.357894087 564.413832109 c 128,-1,7
 646.918341673 531.673990933 646.918341673 531.673990933 684 478 c 0,8,9
 724.037810652 418.712186729 724.037810652 418.712186729 738.644627953 343.398764965 c 128,-1,10
 752.820933636 267.202013318 752.820933636 267.202013318 739 198 c 0,11,12
 729.58304416 153.310805313 729.58304416 153.310805313 709.887065917 119.254990881 c 128,-1,13
 686.568524884 80.590762771 686.568524884 80.590762771 653 58 c 0,14,15
 599.277817088 23.3691477101 599.277817088 23.3691477101 538 34 c 0,16,17
 470.161280305 46.2642315505 470.161280305 46.2642315505 433.142365037 105.161788673 c 0,18,19
 430.169362317 110.032500089 430.169362317 110.032500089 428 114 c 1,20,21
 378.828716733 70.2804638552 378.828716733 70.2804638552 324 48 c 0,22,23
 289.076551864 34.2913995342 289.076551864 34.2913995342 257.601287877 31.5295983194 c 128,-1,24
 220.941596908 28.940694027 220.941596908 28.940694027 190 40 c 0,25,26
 158.463639156 52.110630157 158.463639156 52.110630157 135.960873173 75.8046466969 c 128,-1,27
 113.992878191 100.055542924 113.992878191 100.055542924 103.141376274 131.824230143 c 0,28,29
 84.9720867463 187.957469243 84.9720867463 187.957469243 102 261 c 0,0,1
  Spiro
    102 261 o
    235 502 o
    472 601 o
    684 478 o
    739 198 o
    653 58 o
    538 34 o
    428 114 v
    324 48 o
    190 40 o
    0 0 z
  EndSpiro
EndSplineSet
Fore
SplineSet
33.961717816 277.450882717 m 1,0,1
 72.783723497 436.309973042 72.783723497 436.309973042 185.054957725 551.045899987 c 0,2,-1
 185.497068887 551.492017663 l 2,3,4
 185.51638169 551.511334643 185.51638169 551.511334643 185.535696038 551.53064899 c 0,5,6
 245.419156604 610.80077807 245.419156604 610.80077807 314.713355221 641.489044994 c 2,7,-1
 315.054874456 641.639005572 l 1,8,9
 394.534559643 675.035854923 394.534559643 675.035854923 475.807504753 670.883409047 c 0,10,-1
 476.601236429 670.835996269 l 2,11,12
 558.214511398 665.026738177 558.214511398 665.026738177 627.568704264 624.928862607 c 0,13,-1
 628.357707175 624.462463235 l 2,14,15
 667.068498308 600.875009755 667.068498308 600.875009755 698.201740496 569.960208021 c 0,16,17
 722.30109846 545.530427707 722.30109846 545.530427707 741.634472833 517.745313957 c 2,18,-1
 741.844338244 517.441543448 l 1,19,20
 789.940408513 445.441591992 789.940408513 445.441591992 807.343845259 356.805148233 c 0,21,-1
 807.443750829 356.279315062 l 2,22,23
 823.8126131 266.29457259 823.8126131 266.29457259 807.623896108 184.21094768 c 0,24,-1
 807.474976397 183.485265785 l 2,25,26
 795.359137892 127.559659019 795.359137892 127.559659019 770.504006234 84.2197973423 c 2,27,-1
 770.184971654 83.668162774 l 1,28,-1
 769.85582866 83.1224142304 l 2,29,30
 751.320906156 52.9725050367 751.320906156 52.9725050367 728.713232074 30.140187332 c 0,31,32
 711.062561863 12.835560953 711.062561863 12.835560953 692.042871854 -0.11345772345 c 2,33,-1
 691.47247488 -0.497320367618 l 1,34,-1
 690.894784064 -0.869716354926 l 2,35,36
 656.91713258 -22.3605936273 656.91713258 -22.3605936273 621.089899211 -31.6618719018 c 0,37,38
 574.319243372 -43.1299426339 574.319243372 -43.1299426339 525.960741448 -34.9503534609 c 0,39,-1
 525.471216792 -34.8636424055 l 2,40,41
 462.030254724 -22.8000295248 462.030254724 -22.8000295248 416.270532105 17.3922054242 c 1,42,43
 383.76069126 -3.17288736097 383.76069126 -3.17288736097 350.40972027 -16.8383037744 c 0,44,-1
 349.63882638 -17.1462233441 l 2,45,46
 304.853250469 -34.4207754992 304.853250469 -34.4207754992 263.763522513 -38.1868871594 c 2,47,-1
 263.166260561 -38.2392939887 l 1,48,49
 210.779763897 -41.5331988608 210.779763897 -41.5331988608 166.368441536 -25.8986957172 c 0,50,-1
 164.84118825 -25.3325989524 l 1,51,52
 121.062363169 -7.99729129269 121.062363169 -7.99729129269 89.0939801237 23.6077598432 c 0,53,54
 87.1107692743 25.5909706925 87.1107692743 25.5909706925 85.1825917966 27.6214015387 c 0,55,-1
 84.0470119815 28.8456546781 l 1,56,57
 52.4274209787 64.4385547394 52.4274209787 64.4385547394 36.917864135 109.122095579 c 2,58,-1
 36.7361799435 109.653991375 l 1,59,60
 12.762346808 185.502165353 12.762346808 185.502165353 33.8493018575 276.976146201 c 0,61,-1
 33.961717816 277.450882717 l 1,0,1
284.723273565 452.728188642 m 0,62,63
 199.318270439 364.789284919 199.318270439 364.789284919 170.096466224 244.790809966 c 0,64,65
 158.030281332 191.095614629 158.030281332 191.095614629 169.547753517 153.995432603 c 0,66,67
 176.18210902 136.210418006 176.18210902 136.210418006 187.301952118 123.401637344 c 0,68,69
 187.69454814 122.99705939 187.69454814 122.99705939 188.08892949 122.602709209 c 0,70,71
 199.828218366 111.600243772 199.828218366 111.600243772 214.38365459 105.63402838 c 0,72,73
 231.700250402 100.132294446 231.700250402 100.132294446 252.02602821 101.299083236 c 0,74,75
 273.677658186 103.649329553 273.677658186 103.649329553 297.975262837 112.995119826 c 0,76,77
 341.964744323 131.425608834 341.964744323 131.425608834 381.528288371 166.351177156 c 2,78,-1
 447.230031749 224.768398623 l 1,79,-1
 489.432790236 147.584684669 l 2,80,81
 491.181724655 144.50942276 491.181724655 144.50942276 492.672029019 142.01663666 c 0,82,83
 499.29883764 132.007983966 499.29883764 132.007983966 506.012935027 125.105979213 c 0,84,85
 524.242589503 107.956865261 524.242589503 107.956865261 550.2821312 102.908479812 c 0,86,87
 569.833206604 99.9503174669 569.833206604 99.9503174669 586.419055938 103.977079517 c 0,88,89
 601.026466251 108.091062182 601.026466251 108.091062182 614.514934536 116.491494224 c 0,90,91
 623.001749342 122.575582302 623.001749342 122.575582302 629.718282708 129.135136698 c 0,92,93
 640.823515063 140.705624275 640.823515063 140.705624275 649.584877381 154.837087781 c 0,94,95
 663.417532405 179.748457635 663.417532405 179.748457635 670.448527829 212.152938543 c 0,96,97
 681.184193524 268.37226856 681.184193524 268.37226856 669.894579827 330.253942649 c 0,98,99
 657.544162755 391.560490348 657.544162755 391.560490348 626.156488002 438.556791559 c 0,100,101
 613.318001851 456.693212516 613.318001851 456.693212516 599.20679113 470.965258655 c 0,102,103
 579.481090452 490.254868123 579.481090452 490.254868123 556.751518373 504.128584544 c 0,104,105
 515.044020359 527.742329657 515.044020359 527.742329657 467.796919245 531.137623295 c 0,106,107
 418.525442239 533.225362257 418.525442239 533.225362257 370.75102375 513.166672177 c 0,108,109
 324.663088874 492.311919108 324.663088874 492.311919108 284.723273565 452.728188642 c 0,62,63
EndSplineSet
Layer: 2
SplineSet
70.4107975575 268.637909833 m 2,0,1
 106.815344608 417.443480572 106.815344608 417.443480572 212.016496269 524.978436772 c 0,2,3
 329.001410062 640.789495204 329.001410062 640.789495204 473.767770064 633.445868486 c 2,4,-1
 474.136288342 633.423855411 l 2,5,6
 547.053516625 628.175701044 547.053516625 628.175701044 608.389897972 592.207290685 c 0,7,8
 642.93549745 571.420087357 642.93549745 571.420087357 671.038898127 543.536856231 c 0,9,10
 693.836936771 520.395019795 693.836936771 520.395019795 712.338460119 493.498447454 c 0,11,12
 754.619260429 430.7560384 754.619260429 430.7560384 770.348978848 349.058854699 c 0,13,14
 785.652408344 266.655120857 785.652408344 266.655120857 773.036338264 203.72186592 c 0,15,16
 752.950602601 108.144466026 752.950602601 108.144466026 700.899859095 55.5688917786 c 0,17,18
 686.492248398 41.5062375547 686.492248398 41.5062375547 671.127047646 31.0187517712 c 2,19,-1
 670.594006887 30.6676316923 l 2,20,21
 606.175940705 -10.8580922043 606.175940705 -10.8580922043 529.010364021 2.82499124717 c 0,22,23
 472.663717707 13.484241189 472.663717707 13.484241189 434.075145691 51.5719402526 c 0,24,25
 427.292442366 58.3546435783 427.292442366 58.3546435783 421.026828386 66.1134186707 c 1,26,27
 382.95417847 37.0997898697 382.95417847 37.0997898697 346.075649714 22.1264683698 c 0,28,29
 283.93363448 -2.38085456568 283.93363448 -2.38085456568 232.738046505 -0.808351105965 c 0,30,31
 163.905788532 2.41081968949 163.905788532 2.41081968949 115.918826545 49.8075955578 c 0,32,33
 114.132274908 51.5941471952 114.132274908 51.5941471952 112.385242534 53.4338543021 c 2,34,-1
 112.118085804 53.7151537647 l 2,35,36
 39.7124096668 135.133168562 39.7124096668 135.133168562 70.3586044339 268.41749645 c 2,37,-1
 70.4107975575 268.637909833 l 2,0,1
470.047544165 568.564057888 m 0,38,39
 353.352029684 573.823974087 353.352029684 573.823974087 258.016212068 479.054275101 c 0,40,41
 165.285031581 383.775962441 165.285031581 383.775962441 133.615911079 253.473107889 c 0,42,43
 110.959065206 152.84177633 110.959065206 152.84177633 159.803207658 97.8954392369 c 0,44,45
 160.838671076 96.8115076634 160.838671076 96.8115076634 161.880767322 95.769536335 c 0,46,47
 192.811755514 65.9976016175 192.811755514 65.9976016175 235.056211368 64.1378579516 c 0,48,49
 273.544712324 63.2834399991 273.544712324 63.2834399991 321.829618883 82.4453950196 c 0,50,51
 362.07502012 99.1125388945 362.07502012 99.1125388945 406.423848172 138.305903679 c 2,52,-1
 436.928229028 165.428185076 l 1,53,-1
 456.522366896 129.592889309 l 2,54,55
 467.316307092 110.506059688 467.316307092 110.506059688 480.037086469 97.5338810297 c 0,56,57
 505.2054089 73.3691492492 505.2054089 73.3691492492 540.428733372 66.8083880134 c 0,58,59
 592.64798753 58.3010410345 592.64798753 58.3010410345 635.135185499 85.1581788074 c 0,60,61
 646.137184862 92.894112321 646.137184862 92.894112321 654.937918318 101.530832556 c 0,62,63
 693.703054691 141.391289597 693.703054691 141.391289597 709.367639531 216.790952711 c 0,64,65
 719.38593739 268.173744772 719.38593739 268.173744772 706.509765439 336.855345348 c 0,66,67
 692.915071328 406.245577419 692.915071328 406.245577419 658.617692206 456.887730208 c 0,68,69
 642.730922178 479.750901141 642.730922178 479.750901141 625.076957349 497.574915454 c 0,70,71
 601.82158281 520.388456241 601.82158281 520.388456241 575.329018344 536.2289671 c 0,72,73
 526.354602386 564.607453913 526.354602386 564.607453913 470.047544165 568.564057888 c 0,38,39
EndSplineSet
EndChar

StartChar: uni170B
Encoding: 15 5899 16
Width: 1030
GlyphClass: 2
InSpiro: 1
Flags: W
AnchorPoint: "Anchor-1" 577 0 basechar 0
AnchorPoint: "Anchor-0" 488 693 basechar 0
LayerCount: 3
Back
SplineSet
238 342 m 0,0,1
 325.091989013 377.043601988 325.091989013 377.043601988 418 374 c 0,2,3
 518.083352824 370.030298468 518.083352824 370.030298468 606 324 c 1024
  Spiro
    238 342 {
    418 374 o
    606 324 o
    0 0 z
  EndSpiro
62 464 m 1,5,-1
 164 464 l 2,6,7
 193.782526148 463.95551121 193.782526148 463.95551121 197.489053129 463.798587972 c 0,8,9
 217.872634061 462.407944428 217.872634061 462.407944428 229.837848537 456.294031028 c 0,10,11
 237.758530359 451.49365554 237.758530359 451.49365554 242.751721489 445.800838939 c 0,12,13
 248.056448004 438.612424344 248.056448004 438.612424344 250.303052555 430.998556843 c 0,14,15
 252.117853976 422.747885731 252.117853976 422.747885731 251.394509493 414.380952856 c 0,16,17
 250.557125605 407.861237717 250.557125605 407.861237717 248 398 c 0,18,19
 225.782044967 311.831149461 225.782044967 311.831149461 220.114880312 240.258870943 c 0,20,21
 216.785434618 194.924185475 216.785434618 194.924185475 220.782217187 160.196408717 c 0,22,23
 226.548224441 114.9902006 226.548224441 114.9902006 244 84 c 0,24,25
 259.396692986 58.3182201639 259.396692986 58.3182201639 280.468091755 43.8839906745 c 0,26,27
 304.761575114 28.4244110707 304.761575114 28.4244110707 332 28 c 0,28,29
 360.00610903 28.4276690559 360.00610903 28.4276690559 387.011623522 43.7885922787 c 0,30,31
 408.429319865 56.5763249581 408.429319865 56.5763249581 432 80 c 0,32,33
 491.245650159 139.611951816 491.245650159 139.611951816 546 226 c 2,34,-1
 718 498 l 2,35,36
 752.350006531 551.401017432 752.350006531 551.401017432 781.232917412 572.461520942 c 0,37,38
 824.558909619 602.581934036 824.558909619 602.581934036 874 598 c 0,39,40
 909.516906593 593.850490382 909.516906593 593.850490382 937.682553583 573.511038808 c 0,41,42
 966.123944529 551.788440028 966.123944529 551.788440028 980 520 c 1024
  Spiro
    62 464 {
    164 464 ]
    248 398 [
    244 84 o
    332 28 o
    432 80 o
    546 226 [
    718 498 ]
    874 598 o
    980 520 [
    0 0 z
  EndSpiro
EndSplineSet
Fore
SplineSet
264.188499246 277.072241458 m 0,0,-1
 211.811500754 406.927758542 l 1,1,2
 313.125262065 447.246722388 313.125262065 447.246722388 420.308930414 443.948465321 c 2,3,-1
 420.551908429 443.94050553 l 1,4,5
 537.046230661 438.870548392 537.046230661 438.870548392 638.48017082 386.023836825 c 1,6,-1
 573.51982918 261.976163175 l 1,7,8
 498.997644996 300.476283441 498.997644996 300.476283441 415.448434442 304.05940846 c 0,9,10
 337.013072056 306.156624625 337.013072056 306.156624625 264.188499246 277.072241458 c 0,0,-1
62 394.013726262 m 1,11,-1
 62 533.986273738 l 1,12,-1
 164.105346171 533.986195055 l 2,13,14
 195.412861384 533.918035842 195.412861384 533.918035842 200.471867024 533.721750844 c 2,15,-1
 201.380750942 533.683271424 l 1,16,-1
 202.288223401 533.621360285 l 2,17,18
 237.404169127 530.779679338 237.404169127 530.779679338 261.705419709 518.634737763 c 2,19,-1
 263.946407615 517.489651228 l 1,20,-1
 266.098917963 516.185109757 l 2,21,22
 280.143691088 507.304696853 280.143691088 507.304696853 290.321976378 497.353670729 c 0,23,24
 293.400236113 494.159764207 293.400236113 494.159764207 295.418330372 491.915363196 c 2,25,-1
 297.370848866 489.689265816 l 1,26,-1
 299.12316167 487.314713442 l 2,27,28
 311.665818783 469.651047101 311.665818783 469.651047101 317.420291233 450.891634129 c 2,29,-1
 318.117702967 448.528067057 l 1,30,-1
 318.647695196 446.118551881 l 2,31,32
 322.572269706 426.900244014 322.572269706 426.900244014 321.118835875 408.308741192 c 2,33,-1
 320.992943629 406.852544322 l 1,34,-1
 320.806814475 405.403377365 l 2,35,36
 319.181559283 393.76825509 319.181559283 393.76825509 315.761472269 380.438057074 c 0,37,38
 295.168261463 299.964256735 295.168261463 299.964256735 289.897145245 234.894670007 c 0,39,40
 287.229716333 196.394661284 287.229716333 196.394661284 290.257766894 168.681546091 c 0,41,42
 294.508908572 137.945520063 294.508908572 137.945520063 304.566029104 119.146243534 c 0,43,44
 309.631519473 111.309113223 309.631519473 111.309113223 314.3094692 106.434362661 c 0,45,46
 317.172628179 103.809645783 317.172628179 103.809645783 319.101050836 102.300909779 c 0,47,48
 326.335985578 98.4258551852 326.335985578 98.4258551852 332.011085084 98.0088333745 c 0,49,50
 341.957510146 99.0560403983 341.957510146 99.0560403983 351.765670645 104.291388041 c 0,51,52
 366.243784451 113.563608176 366.243784451 113.563608176 382.507766912 129.503294509 c 0,53,54
 436.60332224 184.413546973 436.60332224 184.413546973 486.804096952 263.383899214 c 2,55,-1
 658.804096952 535.383899214 l 1,56,-1
 658.947917339 535.611336105 l 2,57,58
 687.927572844 580.20906161 687.927572844 580.20906161 714.457543196 606.958069437 c 0,59,60
 727.768854835 619.986789653 727.768854835 619.986789653 740.040457625 629.068735789 c 2,61,-1
 740.675243368 629.531601441 l 1,62,63
 806.110454485 674.181086975 806.110454485 674.181086975 880.50530225 667.685537595 c 0,64,-1
 882.178737677 667.510267204 l 1,65,66
 936.061993614 660.6841851 936.061993614 660.6841851 978.614991398 630.306937799 c 0,67,-1
 980.118402523 629.190275022 l 2,68,69
 992.005585161 619.893730068 992.005585161 619.893730068 1001.61252339 610.408743156 c 0,70,71
 1028.83547576 582.562316744 1028.83547576 582.562316744 1044.14703519 548.050304116 c 0,72,-1
 915.852964813 491.949695884 l 1,73,74
 910.390401831 503.362224448 910.390401831 503.362224448 902.617574024 511.41379379 c 0,75,76
 898.953912152 514.852548564 898.953912152 514.852548564 895.990963179 517.256566884 c 0,77,78
 882.338984361 526.190295093 882.338984361 526.190295093 866.654490098 528.388521998 c 0,79,80
 842.933511617 529.536205426 842.933511617 529.536205426 821.884040034 515.452601563 c 0,81,82
 817.388397597 511.783386906 817.388397597 511.783386906 813.452492562 507.96312007 c 0,83,84
 796.772912443 490.788959363 796.772912443 490.788959363 777.047438905 460.381320282 c 2,85,-1
 605.195903048 188.616100786 l 2,86,87
 545.863238625 95.4795315856 545.863238625 95.4795315856 481.652731493 30.6582612887 c 2,88,-1
 481.496550113 30.5011142765 l 1,89,-1
 481.339396671 30.3449409653 l 2,90,91
 451.107575219 0.717816795291 451.107575219 0.717816795291 422.879756324 -16.3388578858 c 2,92,-1
 422.25105603 -16.7142321168 l 1,93,94
 378.527579384 -40.9982397186 378.527579384 -40.9982397186 333.076787578 -41.9780526843 c 2,95,-1
 331.989043092 -41.9946631552 l 1,96,-1
 330.901304294 -41.9777147307 l 2,97,98
 283.506811433 -40.6927254955 283.506811433 -40.6927254955 242.916200648 -15.2053453122 c 2,99,-1
 241.922714811 -14.5731233634 l 1,100,-1
 240.950672046 -13.9072592462 l 2,101,102
 226.93346049 -4.01985351075 226.93346049 -4.01985351075 215.314519834 7.43941329513 c 0,103,104
 197.480434472 25.7037495015 197.480434472 25.7037495015 183.936990006 48.0241600112 c 2,105,-1
 183.451559574 48.833860996 l 1,106,-1
 182.988384941 49.6563489296 l 2,107,108
 158.938029324 93.2029704052 158.938029324 93.2029704052 151.36209128 151.279937145 c 2,109,-1
 151.30741651 151.708594085 l 2,110,111
 146.628227323 194.126319574 146.628227323 194.126319574 150.317959684 245.423012708 c 2,112,-1
 150.332686118 245.62353205 l 2,113,114
 155.995311951 314.990290443 155.995311951 314.990290443 174.868500995 393.989112779 c 1,115,116
 169.060916451 394.00536925 169.060916451 394.00536925 163.894653829 394.013804945 c 2,117,-1
 62 394.013726262 l 1,11,-1
EndSplineSet
Layer: 2
SplineSet
324 0 m 0,0,1
 263 0 263 0 226.5 53.5 c 128,-1,2
 190 107 190 107 190 198 c 0,3,4
 190 234 190 234 192.5 261 c 128,-1,5
 195 288 195 288 199 317 c 0,6,7
 205 358 205 358 211 383.5 c 128,-1,8
 217 409 217 409 217 434 c 1,9,-1
 58 434 l 1,10,-1
 58 502 l 1,11,-1
 186 502 l 2,12,13
 239 502 239 502 266.5 490.5 c 128,-1,14
 294 479 294 479 294 429 c 0,15,16
 294 416 294 416 293 406 c 128,-1,17
 292 396 292 396 290 389 c 1,18,19
 322 399 322 399 359.5 403 c 128,-1,20
 397 407 397 407 421 407 c 0,21,22
 473 407 473 407 516 396 c 128,-1,23
 559 385 559 385 594 368 c 1,24,25
 604 382 604 382 620.5 408 c 128,-1,26
 637 434 637 434 673 492 c 0,27,28
 719 566 719 566 761.5 600 c 128,-1,29
 804 634 804 634 864 634 c 0,30,31
 916 634 916 634 953.5 607 c 128,-1,32
 991 580 991 580 1010 533 c 1,33,-1
 947 506 l 1,34,35
 934 540 934 540 911.5 553 c 128,-1,36
 889 566 889 566 860 566 c 0,37,38
 826 566 826 566 797.5 542 c 128,-1,39
 769 518 769 518 734 461 c 0,40,41
 684 377 684 377 653 325.5 c 128,-1,42
 622 274 622 274 602.5 242 c 128,-1,43
 583 210 583 210 565 184 c 0,44,45
 532 135 532 135 494 93 c 128,-1,46
 456 51 456 51 414 25.5 c 128,-1,47
 372 0 372 0 324 0 c 0,0,1
  Spiro
    324 0 o
    269.125 13.375 o
    226.5 53.5 o
    199.125 116.375 o
    190 198 o
    190.625 231.75 o
    192.5 261 o
    195.375 288.5 o
    199 317 o
    205 354.125 o
    211 383.5 o
    215.5 408.875 o
    217 434 v
    58 434 v
    58 502 v
    186 502 ]
    232.625 499.125 o
    266.5 490.5 o
    287.125 469.375 o
    294 429 o
    293.75 416.75 o
    293 406 o
    291.75 396.75 o
    290 389 v
    323.375 397.5 o
    359.5 403 o
    393.625 406 o
    421 407 o
    470.75 404.25 o
    516 396 o
    557 383.5 o
    594 368 v
    605.625 385 o
    620.5 408 o
    641.875 442 o
    673 492 o
    718.125 556 o
    761.5 600 o
    808.375 625.5 o
    864 634 o
    912.375 627.25 o
    953.5 607 o
    986.375 575 o
    1010 533 v
    947 506 v
    931.625 534.75 o
    911.5 553 o
    887.375 562.75 o
    860 566 o
    827.375 560 o
    797.5 542 o
    767.375 509.75 o
    734 461 o
    688.75 385.125 o
    653 325.5 o
    624.875 278.875 o
    602.5 242 o
    583.375 211.5 o
    565 184 o
    530.75 136.75 o
    494 93 o
    455 55.125 o
    414 25.5 o
    370.5 6.375 o
    0 0 z
  EndSpiro
324 68 m 0,48,49
 362 68 362 68 400.5 100 c 128,-1,50
 439 132 439 132 478.5 186.5 c 128,-1,51
 518 241 518 241 559 310 c 1,52,53
 528 324 528 324 490.5 331.5 c 128,-1,54
 453 339 453 339 418 339 c 0,55,56
 381 339 381 339 345 332.5 c 128,-1,57
 309 326 309 326 277 315 c 1,58,59
 272 290 272 290 269.5 259 c 128,-1,60
 267 228 267 228 267 196 c 0,61,62
 267 137 267 137 284.5 102.5 c 128,-1,63
 302 68 302 68 324 68 c 0,48,49
  Spiro
    324 68 o
    362.125 76 o
    400.5 100 o
    439.25 137.625 o
    478.5 186.5 o
    518.375 244.625 o
    559 310 v
    526.375 322.375 o
    490.5 331.5 o
    453.625 337.125 o
    418 339 o
    381.25 337.375 o
    345 332.5 o
    310 324.875 o
    277 315 v
    272.625 288.5 o
    269.5 259 o
    267.625 227.75 o
    267 196 o
    271.375 143.125 o
    284.5 102.5 o
    303.125 76.625 o
    0 0 z
  EndSpiro
EndSplineSet
EndChar

StartChar: uni170C
Encoding: 16 5900 17
Width: 1029
GlyphClass: 2
Flags: W
AnchorPoint: "Anchor-1" 583 0 basechar 0
AnchorPoint: "Anchor-0" 520 693 basechar 0
LayerCount: 3
Back
SplineSet
57 406 m 1,0,-1
 179 406 l 2,1,2
 182.819056997 406 182.819056997 406 190.457516472 406.085579901 c 0,3,4
 203.607937874 406.232914813 203.607937874 406.232914813 210.181422246 406.088211406 c 0,5,6
 229.486011607 405.274846682 229.486011607 405.274846682 240.649982267 400.540922094 c 0,7,8
 248.36364721 396.614267677 248.36364721 396.614267677 253.444672405 391.788286203 c 0,9,10
 259.00625429 385.493329843 259.00625429 385.493329843 261.818710823 378.770534679 c 0,11,12
 264.315110523 371.236790895 264.315110523 371.236790895 264.512986054 363.499762186 c 0,13,14
 264.390492078 357.13832739 264.390492078 357.13832739 263 348 c 2,15,-1
 251 270 l 2,16,17
 240.493750936 200.999364879 240.493750936 200.999364879 239.367190907 176.930101916 c 0,18,19
 237.478468783 121.739791953 237.478468783 121.739791953 257 86 c 0,20,21
 271.615127282 61.1142088948 271.615127282 61.1142088948 293.729414662 46.5436422083 c 0,22,23
 317.453938996 31.9751688263 317.453938996 31.9751688263 345 30 c 0,24,25
 385.155220758 28.0927399886 385.155220758 28.0927399886 427 52 c 0,26,27
 483.898954522 85.5025881842 483.898954522 85.5025881842 551.727137657 171.887246013 c 0,28,29
 594.89807711 227.182378265 594.89807711 227.182378265 649 316 c 2,30,-1
 761 500 l 2,31,32
 794.473215605 554.013572356 794.473215605 554.013572356 823.719470415 575.345334251 c 0,33,34
 867.567185771 605.811047643 867.567185771 605.811047643 917 600 c 0,35,36
 964.724583968 593.121387976 964.724583968 593.121387976 992.618938827 557.892120378 c 0,37,38
 1021.30914331 519.432663809 1021.30914331 519.432663809 1011 474 c 0,39,40
 1004.84537608 450.411956823 1004.84537608 450.411956823 989.547770186 431.821170473 c 0,41,42
 973.660922241 413.708196402 973.660922241 413.708196402 952.143398536 402.674910674 c 0,43,44
 910.18965167 382.360664476 910.18965167 382.360664476 859 390 c 0,45,46
 831.576507692 394.549647039 831.576507692 394.549647039 807 406 c 1024
  Spiro
    57 406 {
    179 406 ]
    263 348 [
    251 270 ]
    257 86 o
    345 30 o
    427 52 o
    649 316 [
    761 500 ]
    917 600 o
    1011 474 o
    859 390 o
    807 406 v
    0 0 z
  EndSpiro
EndSplineSet
Fore
SplineSet
57 336.013726262 m 1,0,-1
 57 475.986273738 l 1,1,-1
 179 475.986273738 l 2,2,3
 183.40974665 476.001080476 183.40974665 476.001080476 189.667444812 476.067427881 c 0,4,5
 204.178487438 476.204302531 204.178487438 476.204302531 211.733446756 476.05740489 c 0,6,-1
 213.149907501 476.01197945 l 2,7,8
 245.625209224 474.248294238 245.625209224 474.248294238 268.027944461 464.977238976 c 2,9,-1
 270.261925354 464.029950829 l 1,10,-1
 272.423210301 462.929745006 l 2,11,12
 289.505827599 453.817155878 289.505827599 453.817155878 301.6301126 442.564482812 c 2,13,-1
 303.888129913 440.419807417 l 1,14,-1
 305.943405799 438.093513877 l 2,15,16
 319.186381333 422.506487573 319.186381333 422.506487573 326.385472454 405.838790269 c 2,17,-1
 327.410256531 403.389183187 l 1,18,-1
 328.246371175 400.865919986 l 2,19,20
 333.872278509 382.95401464 333.872278509 382.95401464 334.476208055 365.302751736 c 2,21,-1
 334.51662239 363.722531761 l 1,22,-1
 334.486189424 362.142067711 l 2,23,24
 334.13143835 350.466604247 334.13143835 350.466604247 332.167466005 337.287433285 c 2,25,-1
 320.183921129 259.394944804 l 2,26,27
 310.522459604 195.704433749 310.522459604 195.704433749 309.296066245 174.030725475 c 0,28,29
 308.484314009 139.32636692 308.484314009 139.32636692 317.971315735 120.452566137 c 0,30,31
 322.051674138 114.21041014 322.051674138 114.21041014 325.842506173 110.231018556 c 0,32,33
 329.018593785 107.349845962 329.018593785 107.349845962 331.342643348 105.618727028 c 0,34,35
 340.427176949 100.812994002 340.427176949 100.812994002 349.195924826 99.8726169277 c 0,36,37
 369.175798724 99.9730542334 369.175798724 99.9730542334 391.88399053 112.572645154 c 0,38,39
 416.457887037 127.610648889 416.457887037 127.610648889 444.364727824 155.311932524 c 0,40,41
 469.731590474 180.932687093 469.731590474 180.932687093 496.502297662 214.911524455 c 0,42,43
 537.642909733 267.881627733 537.642909733 267.881627733 589.178453528 352.375549375 c 2,44,-1
 701.178453528 536.375549375 l 1,45,-1
 701.322989372 536.613001118 l 2,46,47
 730.329841511 582.917329034 730.329841511 582.917329034 757.625753063 610.447920299 c 0,48,49
 770.528605065 623.068162168 770.528605065 623.068162168 782.519059807 631.946750753 c 0,50,-1
 783.821804636 632.87425225 l 2,51,52
 812.713338911 652.539072931 812.713338911 652.539072931 843.016332701 662.10866505 c 0,53,54
 883.461400328 674.202414875 883.461400328 674.202414875 925.228569035 669.504427308 c 2,55,-1
 926.141737488 669.397080287 l 1,56,-1
 927.051531165 669.265950433 l 2,57,58
 990.661171764 659.402818337 990.661171764 659.402818337 1033.16372103 617.458932564 c 0,59,60
 1041.13651416 609.27506565 1041.13651416 609.27506565 1047.54810475 601.292454092 c 0,61,-1
 1048.77493055 599.69637119 l 2,62,63
 1069.32953935 571.453486505 1069.32953935 571.453486505 1077.92024158 540.865801692 c 0,64,65
 1088.50827825 500.346646114 1088.50827825 500.346646114 1079.24340792 458.426914267 c 2,66,-1
 1078.99454918 457.330187291 l 1,67,-1
 1078.71076669 456.242570266 l 2,68,69
 1068.11976043 417.525922884 1068.11976043 417.525922884 1043.64876489 387.394875858 c 2,70,-1
 1042.94547953 386.54019128 l 1,71,-1
 1042.21453955 385.706829178 l 2,72,73
 1037.3933652 380.338978389 1037.3933652 380.338978389 1033.30759681 376.19615823 c 0,74,75
 1010.92925924 354.349417498 1010.92925924 354.349417498 984.098336287 340.378923899 c 2,76,-1
 983.391862924 340.016673921 l 1,77,78
 920.717133392 310.319347052 920.717133392 310.319347052 848.600755337 320.78505311 c 2,79,-1
 848.035281188 320.869442174 l 1,80,-1
 847.471369513 320.962996964 l 2,81,82
 810.198656532 327.429326744 810.198656532 327.429326744 777.402836334 342.550794798 c 1,83,-1
 836.538381478 469.476592201 l 1,84,85
 852.911070922 462.162900063 852.911070922 462.162900063 869.96667798 459.131362608 c 0,86,87
 899.279232202 455.384308091 899.279232202 455.384308091 920.865008456 465.322791933 c 0,88,89
 928.792951694 469.899792266 928.792951694 469.899792266 934.312647445 475.191107597 c 2,90,-1
 936.124234161 477.089143606 l 1,91,92
 940.882721114 483.865699891 940.882721114 483.865699891 942.999179552 490.690225411 c 0,93,94
 944.22895941 498.470794844 944.22895941 498.470794844 942.915294296 503.791224525 c 0,95,96
 940.70914782 509.912921348 940.70914782 509.912921348 937.075459924 515.252604229 c 0,97,98
 935.191125983 517.377500457 935.191125983 517.377500457 934.16877166 518.463983198 c 0,99,100
 923.439677995 527.922106285 923.439677995 527.922106285 907.879478286 530.595255118 c 0,101,102
 895.243294028 531.536494516 895.243294028 531.536494516 884.580560909 528.411711789 c 0,103,104
 874.046830674 524.750731295 874.046830674 524.750731295 864.3607987 518.328396629 c 0,105,106
 860.159736757 514.879050619 860.159736757 514.879050619 856.620702429 511.452970933 c 0,107,108
 840.028879542 494.327322479 840.028879542 494.327322479 820.672051531 463.378851794 c 2,109,-1
 708.821546472 279.624450625 l 2,110,111
 652.361477034 187.158834445 652.361477034 187.158834445 606.951977652 128.862967571 c 0,112,113
 573.81161616 86.8924291715 573.81161616 86.8924291715 543.35967719 56.3169831578 c 0,114,115
 501.379084455 14.7585479658 501.379084455 14.7585479658 462.503302396 -8.34376861731 c 2,116,-1
 462.112109217 -8.57410648673 l 1,117,118
 401.719168841 -42.4277278282 401.719168841 -42.4277278282 341.654473992 -39.9068710159 c 2,119,-1
 340.805235709 -39.8665345868 l 1,120,-1
 339.957326157 -39.8057358935 l 2,121,122
 295.003818656 -36.0960014432 295.003818656 -36.0960014432 257.122103074 -13.136209781 c 2,123,-1
 256.177809813 -12.5563494202 l 1,124,-1
 255.252112772 -11.94643013 l 2,125,126
 239.564640279 -1.30242541242 239.564640279 -1.30242541242 226.847556807 11.2360691898 c 0,127,128
 209.350219577 29.1760451748 209.350219577 29.1760451748 196.616466184 50.5643199702 c 2,129,-1
 196.06990597 51.4949710053 l 1,130,-1
 195.552588152 52.4420704392 l 2,131,132
 167.115636717 105.639629667 167.115636717 105.639629667 169.422173899 179.341995848 c 2,133,-1
 169.437321137 179.784612983 l 2,134,135
 170.962390133 209.204884494 170.962390133 209.204884494 181.816078871 280.605055196 c 2,136,-1
 190.352754312 336.093838576 l 1,137,138
 183.004572586 336.013726262 183.004572586 336.013726262 179 336.013726262 c 2,139,-1
 57 336.013726262 l 1,0,-1
  Spiro
    57 336.014 v
    57 475.986 v
    179 475.986 ]
    183.872 476.014 o
    189.667 476.067 o
    202.439 476.133 o
    211.733 476.057 o
    213.15 476.012 ]
    243.107 472.371 o
    268.028 464.977 [
    270.262 464.03 v
    272.423 462.93 ]
    288.266 453.282 o
    301.63 442.564 [
    303.888 440.42 v
    305.943 438.094 ]
    317.675 422.236 o
    326.385 405.839 [
    327.41 403.389 v
    328.246 400.866 ]
    332.617 383.019 o
    334.476 365.303 [
    334.517 363.723 v
    334.486 362.142 ]
    333.729 350.091 o
    332.167 337.287 [
    320.184 259.395 ]
    312.631 206.209 o
    309.296 174.031 o
    311.059 143.284 o
    317.971 120.453 o
    321.979 114.776 o
    325.843 110.231 o
    328.806 107.637 o
    331.343 105.619 o
    340.348 101.779 o
    349.196 99.8726 o
    369.858 103.098 o
    391.884 112.573 o
    417.291 130.776 o
    444.365 155.312 o
    470.083 183.022 o
    496.502 214.912 o
    540.242 275.763 o
    589.178 352.376 [
    701.178 536.376 v
    701.323 536.613 ]
    729.902 578.224 o
    757.626 610.448 o
    770.301 622.133 o
    782.519 631.947 o
    783.822 632.874 ]
    813.066 650.015 o
    843.016 662.109 o
    883.792 670.004 o
    925.229 669.504 [
    926.142 669.397 v
    927.052 669.266 ]
    985.384 651.383 o
    1033.16 617.459 o
    1040.75 609.325 o
    1047.55 601.292 o
    1048.77 599.696 ]
    1066.34 570.867 o
    1077.92 540.866 o
    1083.55 499.997 o
    1079.24 458.427 [
    1078.99 457.33 v
    1078.71 456.243 ]
    1064.65 419.672 o
    1043.65 387.395 [
    1042.95 386.54 v
    1042.21 385.707 ]
    1037.58 380.645 o
    1033.31 376.196 o
    1009.82 356.318 o
    984.098 340.379 [
    983.392 340.017 v
    918.357 320.36 o
    848.601 320.785 [
    848.035 320.869 v
    847.471 320.963 ]
    811.318 329.593 o
    777.403 342.551 v
    836.538 469.477 v
    853.082 463.233 o
    869.967 459.131 o
    897.348 458.806 o
    920.865 465.323 o
    928.191 470.078 o
    934.313 475.191 [
    936.124 477.089 v
    940.222 483.878 o
    942.999 490.69 o
    943.593 497.856 o
    942.915 503.791 o
    940.352 509.717 o
    937.075 515.253 o
    935.407 517.118 o
    934.169 518.464 o
    922.232 526.226 o
    907.879 530.595 o
    895.737 530.52 o
    884.581 528.412 o
    874.259 524.06 o
    864.361 518.328 o
    860.325 514.885 o
    856.621 511.453 o
    839.338 490.872 o
    820.672 463.379 [
    708.822 279.624 ]
    655.124 195.701 o
    606.952 128.863 o
    574.484 89.7412 o
    543.36 56.317 o
    502.155 19.3726 o
    462.503 -8.34377 [
    462.112 -8.57411 v
    401.801 -33.3341 o
    341.654 -39.9069 [
    340.805 -39.8665 v
    339.957 -39.8057 ]
    296.772 -31.2835 o
    257.122 -13.1362 [
    256.178 -12.5563 v
    255.252 -11.9464 ]
    240.307 -0.828803 o
    226.848 11.2361 o
    210.541 30.0381 o
    196.616 50.5643 [
    196.07 51.495 v
    195.553 52.4421 ]
    174.802 110.766 o
    169.422 179.342 [
    169.437 179.785 ]
    173.295 219.7 o
    181.816 280.605 [
    190.353 336.094 v
    183.84 336.034 o
    179 336.014 [
    0 0 z
  EndSpiro
215.216197896 335.387344691 m 1,140,-1
 215.216197896 335.387344691 l 1,140,-1
  Spiro
    215.216 335.387 v
    0 0 z
  EndSpiro
EndSplineSet
Layer: 2
SplineSet
331 0 m 0,0,1
 281 0 281 0 250.5 20 c 128,-1,2
 220 40 220 40 207 74.5 c 128,-1,3
 194 109 194 109 194 151 c 0,4,5
 194 186 194 186 202.5 231 c 128,-1,6
 211 276 211 276 218 311 c 0,7,8
 222 328 222 328 223 343 c 128,-1,9
 224 358 224 358 224 374 c 1,10,-1
 58 374 l 1,11,-1
 58 442 l 1,12,-1
 199 442 l 2,13,14
 256 442 256 442 278.5 422.5 c 128,-1,15
 301 403 301 403 301 364 c 0,16,17
 301 343 301 343 296.5 320 c 128,-1,18
 292 297 292 297 288 280 c 0,19,20
 279 241 279 241 275 211.5 c 128,-1,21
 271 182 271 182 271 144 c 0,22,23
 271 113 271 113 284.5 90.5 c 128,-1,24
 298 68 298 68 335 68 c 0,25,26
 373 68 373 68 411 91 c 128,-1,27
 449 114 449 114 485 152.5 c 128,-1,28
 521 191 521 191 554.5 238.5 c 128,-1,29
 588 286 588 286 619 336.5 c 128,-1,30
 650 387 650 387 677 433 c 0,31,32
 714 495 714 495 743.5 540 c 128,-1,33
 773 585 773 585 810 609.5 c 128,-1,34
 847 634 847 634 906 634 c 0,35,36
 947 634 947 634 978 616.5 c 128,-1,37
 1009 599 1009 599 1026.5 569.5 c 128,-1,38
 1044 540 1044 540 1044 504 c 0,39,40
 1044 472 1044 472 1029 438 c 128,-1,41
 1014 404 1014 404 981.5 381.5 c 128,-1,42
 949 359 949 359 895 359 c 0,43,44
 864 359 864 359 837.5 365 c 128,-1,45
 811 371 811 371 792 380 c 1,46,-1
 820 442 l 1,47,48
 832 436 832 436 850.5 431.5 c 128,-1,49
 869 427 869 427 892 427 c 0,50,51
 928 427 928 427 950 449.5 c 128,-1,52
 972 472 972 472 972 504 c 0,53,54
 972 527 972 527 954.5 546.5 c 128,-1,55
 937 566 937 566 902 566 c 0,56,57
 869 566 869 566 843 545.5 c 128,-1,58
 817 525 817 525 793.5 488 c 128,-1,59
 770 451 770 451 741 401 c 0,60,61
 695 320 695 320 647.5 248 c 128,-1,62
 600 176 600 176 549.5 120 c 128,-1,63
 499 64 499 64 445 32 c 128,-1,64
 391 0 391 0 331 0 c 0,0,1
EndSplineSet
EndChar

StartChar: uni170E
Encoding: 18 5902 18
Width: 913
GlyphClass: 2
Flags: W
AnchorPoint: "Anchor-1" 507 -49 basechar 0
AnchorPoint: "Anchor-0" 488 693 basechar 0
LayerCount: 3
Back
SplineSet
50 532 m 4,0,1
 116.044487621 461.370657145 116.044487621 461.370657145 216.391115729 456.22362197 c 0,2,3
 219.696584946 456.074899266 219.696584946 456.074899266 222 456 c 0,4,5
 309.794873545 454.017334933 309.794873545 454.017334933 435.871904822 519.548544515 c 0,6,7
 548.340559432 578.110176611 548.340559432 578.110176611 596.763037153 592.872183685 c 0,7,8
 621.486260902 600.265916793 621.486260902 600.265916793 644 604 c 0,9,10
 759.580149438 622.789835676 759.580149438 622.789835676 852.215194798 561.368607365 c 0,11,12
 856.645412384 558.381316836 856.645412384 558.381316836 860 556 c 1,13,14
 793.117574173 598.393827228 793.117574173 598.393827228 714 604 c 0,15,16
 601.111700948 610.967055771 601.111700948 610.967055771 512 552 c 0,17,18
 470.911874407 523.871724553 470.911874407 523.871724553 449.592391424 488.81423904 c 0,19,20
 424.47639599 445.33377234 424.47639599 445.33377234 432 403 c 0,20,21
 441.09446973 354.760036438 441.09446973 354.760036438 485.002191628 331.867091072 c 0,22,23
 488.480972604 330.133044405 488.480972604 330.133044405 491 329 c 0,24,25
 499.370723315 325.2628357 499.370723315 325.2628357 500.409865869 324.73092109 c 0,26,27
 505.590813844 321.446939869 505.590813844 321.446939869 508.539227904 318.432769373 c 0,28,29
 511.982709415 313.785704914 511.982709415 313.785704914 513.397849219 309.413418265 c 0,30,31
 514.407660552 303.923148214 514.407660552 303.923148214 513.64918344 299.170695665 c 0,29,30
 510.987027223 289.672156559 510.987027223 289.672156559 502.827406173 281.97326472 c 0,31,32
 497.146258499 277.14277761 497.146258499 277.14277761 486 270 c 2,32,-1
 458 252 l 2,33,34
 447.245465711 244.714783207 447.245465711 244.714783207 443.051796222 240.367518543 c 0,35,36
 436.364382804 231.928390912 436.364382804 231.928390912 435.526714117 223.331088687 c 0,37,38
 435.816235076 213.341656605 435.816235076 213.341656605 442.025291778 206.017860005 c 0,39,40
 447.692810071 200.605239599 447.692810071 200.605239599 458 196 c 2,38,-1
 508 174 l 2,39,40
 516.219719692 170.181711081 516.219719692 170.181711081 519.838660122 167.885166801 c 0,41,42
 525.894685337 163.157353507 525.894685337 163.157353507 529.193627378 158.504352106 c 0,43,44
 532.649809447 152.1549791 532.649809447 152.1549791 533.359508282 145.96946049 c 0,45,46
 533.442892326 138.951491712 533.442892326 138.951491712 531.24177237 132.912161705 c 0,44,45
 526.116237832 121.999759754 526.116237832 121.999759754 514.177101535 112.840128492 c 0,46,47
 509.829405879 109.605967751 509.829405879 109.605967751 500.717614709 103.733015767 c 0,47,48
 494.550913252 99.7233622577 494.550913252 99.7233622577 492 98 c 0,49,50
 467.206697673 80.7179265139 467.206697673 80.7179265139 447 60 c 0,51,52
 423.848317284 35.6447094483 423.848317284 35.6447094483 407 8 c 1024
  Spiro
    50 532 {
    222 456 o
    644 604 o
    860 556 v
    714 604 o
    512 552 o
    432 403 c
    491 329 ]
    486 270 [
    458 252 ]
    458 196 [
    508 174 ]
    492 98 [
    447 60 o
    407 8 v
    0 0 z
  EndSpiro
EndSplineSet
Fore
SplineSet
-1.15548782841 484.217024978 m 1,0,-1
 101.103814775 579.838235256 l 1,1,2
 103.869415363 576.940873292 103.869415363 576.940873292 105.639063225 575.145223078 c 0,3,4
 151.967805173 530.011090591 151.967805173 530.011090591 219.789907161 526.12835792 c 0,5,6
 222.221041039 526.0198517 222.221041039 526.0198517 223.934835114 525.960972372 c 0,7,8
 294.536199981 525.239233589 294.536199981 525.239233589 403.53072906 581.64495474 c 0,9,10
 521.784382333 643.063849322 521.784382333 643.063849322 576.268802964 659.809101707 c 0,11,-1
 576.624192071 659.916413918 l 2,12,13
 606.035724889 668.583025403 606.035724889 668.583025403 632.696493684 673.073976536 c 0,14,15
 711.663733442 685.515120322 711.663733442 685.515120322 782.442134094 667.999606044 c 0,16,17
 840.147930501 653.155766065 840.147930501 653.155766065 890.860878059 619.747386599 c 0,18,-1
 891.310638827 619.446650553 l 2,19,20
 896.801892835 615.713022351 896.801892835 615.713022351 900.472714597 613.125054193 c 1,21,-1
 822.55309661 496.843985162 l 1,22,23
 769.979788569 529.554744182 769.979788569 529.554744182 709.333016211 534.167434458 c 0,24,25
 620.026633599 538.962297677 620.026633599 538.962297677 551.054779503 493.89123359 c 0,26,27
 536.499266403 483.628506655 536.499266403 483.628506655 526.265193916 473.561301657 c 0,28,29
 516.185421839 463.113645744 516.185421839 463.113645744 509.824772946 453.108500396 c 0,30,31
 498.299003014 431.870722624 498.299003014 431.870722624 500.838671263 415.677274987 c 0,32,33
 503.31334714 405.452010126 503.31334714 405.452010126 508.072475645 400.451017591 c 0,34,35
 512.363977385 396.795263697 512.363977385 396.795263697 516.888088291 394.203835576 c 0,36,37
 518.73168729 393.313701433 518.73168729 393.313701433 519.579445065 392.913432554 c 0,38,39
 530.540268067 387.947055201 530.540268067 387.947055201 532.321746991 387.04896656 c 2,40,-1
 535.161445849 385.595386101 l 1,41,-1
 537.856819664 383.886903978 l 2,42,43
 549.855356615 375.90319418 549.855356615 375.90319418 557.836637336 368.132512322 c 0,44,45
 558.212376089 367.75677357 558.212376089 367.75677357 558.58955985 367.371258617 c 2,46,-1
 561.969845849 363.915584441 l 1,47,-1
 564.828931298 360.05717709 l 2,48,49
 575.061340241 345.576621743 575.061340241 345.576621743 579.976572735 331.047552213 c 2,50,-1
 581.390714123 326.678350319 l 1,51,-1
 582.223173101 322.152331999 l 2,52,53
 585.150937944 304.269727233 585.150937944 304.269727233 582.755551456 288.068275011 c 2,54,-1
 582.118862676 284.078921653 l 1,55,-1
 581.030529352 280.195762363 l 2,56,57
 572.991376166 253.513065407 572.991376166 253.513065407 553.333338912 233.45515831 c 0,58,59
 552.095929627 232.217749025 552.095929627 232.217749025 550.842436174 231.035746659 c 1,60,61
 554.524483987 228.760076617 554.524483987 228.760076617 557.316294854 227.021691113 c 2,62,-1
 560.180750063 225.203935791 l 1,63,-1
 562.860969913 223.111543738 l 2,64,65
 569.690418393 217.572304179 569.690418393 217.572304179 574.657751117 212.718731541 c 0,66,67
 581.555427065 205.502562491 581.555427065 205.502562491 586.342192031 198.943926794 c 2,68,-1
 588.723387539 195.585363381 l 1,69,-1
 590.689154349 191.974041272 l 2,70,71
 600.466022173 173.132621639 600.466022173 173.132621639 602.886525522 154.003531442 c 2,72,-1
 603.297903294 150.41808824 l 1,73,-1
 603.340804728 146.807314403 l 2,74,75
 603.215266685 126.5228992 603.215266685 126.5228992 596.993124656 108.872382528 c 2,76,-1
 595.92461373 105.940652214 l 1,77,-1
 594.599411094 103.119259886 l 2,78,79
 585.370221617 84.4025810278 585.370221617 84.4025810278 570.704959338 69.4711793123 c 0,80,81
 563.675558557 62.6738311139 563.675558557 62.6738311139 556.732890957 57.2527042096 c 2,82,-1
 556.321418137 56.9370248167 l 2,83,84
 548.704407104 51.3867010538 548.704407104 51.3867010538 538.841949102 45.0119139688 c 0,85,86
 534.085411244 41.9102309696 534.085411244 41.9102309696 531.526381731 40.2114720777 c 0,87,88
 513.325906066 27.206107762 513.325906066 27.206107762 499.091432307 13.1290608538 c 0,89,90
 498.260163439 12.2977902302 498.260163439 12.2977902302 497.439381125 11.4596370456 c 0,91,92
 479.455661702 -7.89629058576 479.455661702 -7.89629058576 466.801428351 -28.4085798653 c 0,93,-1
 347.198571649 44.4085798653 l 1,94,95
 368.478905346 78.8101577351 368.478905346 78.8101577351 396.243762763 108.206445795 c 2,96,-1
 396.558061755 108.537084538 l 2,97,98
 398.475483241 110.503016729 398.475483241 110.503016729 400.096482941 112.12401022 c 0,99,100
 412.261301717 124.122833785 412.261301717 124.122833785 424.440040211 134.395596718 c 1,101,102
 406.32972985 143.596573631 406.32972985 143.596573631 393.699091142 155.375725267 c 2,103,-1
 390.993460736 157.959669347 l 1,104,-1
 388.585713598 160.799690168 l 2,105,106
 366.950074402 187.327616821 366.950074402 187.327616821 365.570039601 221.2880785 c 2,107,-1
 365.441068365 225.73801332 l 1,108,-1
 365.872614814 230.167133451 l 2,109,110
 369.254219135 259.534526649 369.254219135 259.534526649 388.139584956 283.789256615 c 2,111,-1
 390.266733981 286.473595236 l 1,112,-1
 392.656689378 288.951083906 l 1,113,-1
 393.921699278 290.238882709 l 2,114,115
 401.218146543 297.297466036 401.218146543 297.297466036 408.054275338 302.488785063 c 1,116,117
 373.186081983 338.900502942 373.186081983 338.900502942 363.231810557 389.954283846 c 0,118,-1
 363.099564917 390.676472746 l 2,119,120
 361.381494439 400.970035635 361.381494439 400.970035635 360.728046106 410.428703943 c 1,121,122
 284.783385597 384.776479813 284.783385597 384.776479813 220.407829272 386.031701699 c 0,123,-1
 219.708154924 386.050977049 l 2,124,125
 216.258666696 386.176079723 216.258666696 386.176079723 213.221581811 386.308612205 c 0,126,-1
 212.778994414 386.329919344 l 1,127,128
 90.00432956 393.388693306 90.00432956 393.388693306 6.64411385845 476.150273712 c 0,129,130
 2.22809285235 480.62827912 2.22809285235 480.62827912 -1.15548782841 484.217024978 c 1,0,-1
EndSplineSet
Layer: 2
SplineSet
26.2492377939 509.815047311 m 1,0,-1
 73.7507622061 554.184952689 l 2,1,2
 76.4321417523 551.378304948 76.4321417523 551.378304948 78.1858849688 549.598844437 c 0,3,4
 137.499727189 491.363818645 137.499727189 491.363818645 222.930623356 488.480398974 c 0,5,6
 302.281251357 486.769613151 302.281251357 486.769613151 420.856358932 548.379020691 c 0,7,8
 427.364882301 551.771326412 427.364882301 551.771326412 437.536933328 557.101796576 c 0,9,10
 551.267251109 616.701462816 551.267251109 616.701462816 614.512559327 631.297117349 c 0,11,12
 627.216254091 634.161193976 627.216254091 634.161193976 638.751943496 636.070060534 c 0,13,14
 765.70798265 656.709271726 765.70798265 656.709271726 868.401144592 589.63121885 c 0,15,16
 874.223172343 585.768397601 874.223172343 585.768397601 878.915321643 582.433583242 c 1,17,-1
 842.437954278 528.647055244 l 1,18,19
 782.563754517 566.535583551 782.563754517 566.535583551 711.799004935 571.580440579 c 0,20,21
 609.980919311 577.808614363 609.980919311 577.808614363 530.014594173 524.94341525 c 0,22,23
 512.578146577 513.024690757 512.578146577 513.024690757 499.745565781 500.381848425 c 0,24,25
 486.182496892 486.394079487 486.182496892 486.394079487 477.52137981 472.182420149 c 0,26,27
 458.680074624 439.352752067 458.680074624 439.352752067 463.928087956 409.056939643 c 0,28,29
 468.490287604 388.358495196 468.490287604 388.358495196 483.321650184 373.019934838 c 0,30,31
 493.185873182 363.757656894 493.185873182 363.757656894 504.004775392 358.79065555 c 0,32,33
 505.480975006 358.159844505 505.480975006 358.159844505 506.042029296 357.920735623 c 0,34,35
 512.837060817 354.909457975 512.837060817 354.909457975 515.964594914 353.274119955 c 0,36,37
 524.603513214 348.133728722 524.603513214 348.133728722 530.464049264 342.539029177 c 0,38,39
 532.196118883 340.705644389 532.196118883 340.705644389 532.962844197 339.875804736 c 0,40,41
 541.44368909 329.446006617 541.44368909 329.446006617 544.805661636 317.769534312 c 0,42,43
 547.76880358 304.894154005 547.76880358 304.894154005 545.480567308 292.62163492 c 0,44,45
 541.261165934 274.66988418 541.261165934 274.66988418 527.645418394 260.730755367 c 0,46,47
 525.5982461 258.771893545 525.5982461 258.771893545 524.506580928 257.759350933 c 0,48,49
 516.959004886 251.204174358 516.959004886 251.204174358 505.116247668 243.64375448 c 0,50,51
 504.315151314 243.130626157 504.315151314 243.130626157 503.56001825 242.645751762 c 2,52,-1
 475.56001825 224.645751762 l 2,53,54
 475.154938248 224.38534319 475.154938248 224.38534319 474.769389075 224.134448152 c 1,55,-1
 521.109828994 203.744654588 l 2,56,57
 532.205712406 198.600225638 532.205712406 198.600225638 537.984364015 194.853850413 c 0,58,59
 543.904323378 190.567575483 543.904323378 190.567575483 548.095423604 186.543693542 c 0,60,61
 553.2713673 180.976541059 553.2713673 180.976541059 556.651415178 175.902248629 c 0,62,63
 564.447354993 162.673708748 564.447354993 162.673708748 565.763752124 148.38702097 c 0,64,65
 566.416423979 133.834590554 566.416423979 133.834590554 561.391874581 120.765827115 c 0,66,67
 555.548665951 107.347414828 555.548665951 107.347414828 545.033970147 96.580338115 c 0,68,69
 539.361946418 91.150902829 539.361946418 91.150902829 533.551000382 86.7414690461 c 0,70,71
 527.402610892 82.2578671357 527.402610892 82.2578671357 518.310004813 76.3996053037 c 0,72,73
 512.603957348 72.6902812169 512.603957348 72.6902812169 510.334649541 71.1596366477 c 0,74,75
 490.087962147 57.0185228848 490.087962147 57.0185228848 473.448278806 40.5457757607 c 0,76,77
 471.898727947 38.9962249024 471.898727947 38.9962249024 470.375232766 37.4200482119 c 0,78,79
 449.791232238 15.7211784376 449.791232238 15.7211784376 434.823341915 -8.80781822666 c 1,80,-1
 379.162277075 24.7839891322 l 1,81,82
 398.661053309 56.5498992659 398.661053309 56.5498992659 423.624767234 82.5799517881 c 0,83,84
 425.538618142 84.5600079825 425.538618142 84.5600079825 427.486338028 86.5077165378 c 0,85,86
 449.417573643 108.103737372 449.417573643 108.103737372 473.665350459 124.840363352 c 0,87,88
 476.911549472 127.06178447 476.911549472 127.06178447 482.82626167 130.873742719 c 0,89,90
 491.47621206 136.524151237 491.47621206 136.524151237 494.803202689 138.938787938 c 0,91,92
 497.47342786 141.082165437 497.47342786 141.082165437 498.924734926 142.396394492 c 1,93,94
 496.4740277 143.541899536 496.4740277 143.541899536 494.890171006 144.255345412 c 2,95,-1
 444.890171006 166.255345412 l 2,96,97
 428.279429881 174.173778931 428.279429881 174.173778931 419.705821823 182.350635041 c 2,98,-1
 418.197631276 183.915426985 l 2,99,100
 402.440143454 202.092913844 402.440143454 202.092913844 403.070538477 224.896655425 c 0,101,102
 404.700458181 245.906100805 404.700458181 245.906100805 418.896026208 262.111362545 c 0,103,104
 420.62330444 263.941221921 420.62330444 263.941221921 421.435218609 264.784147154 c 0,105,106
 428.916787016 271.985196884 428.916787016 271.985196884 440.43998175 279.354248238 c 2,107,-1
 468.43998175 297.354248238 l 2,108,109
 469.28422603 297.896976699 469.28422603 297.896976699 470.085660151 298.409649854 c 0,110,111
 472.689291015 300.096126952 472.689291015 300.096126952 474.066268928 301.000869884 c 1,112,113
 453.405247273 311.293910596 453.405247273 311.293910596 437.359709407 327.057994061 c 0,114,115
 407.885800493 357.461633671 407.885800493 357.461633671 400.071912044 396.943060357 c 0,116,117
 393.893122985 432.208192779 393.893122985 432.208192779 404.828350083 467.955536893 c 1,118,119
 302.970784513 421.489284684 302.970784513 421.489284684 221.069376644 423.519601026 c 0,120,121
 109.045297448 427.475169792 109.045297448 427.475169792 32.2239441917 503.63690366 c 0,122,123
 28.7199597358 507.201527134 28.7199597358 507.201527134 26.2492377939 509.815047311 c 1,0,-1
  Spiro
    26.2492 509.815 v
    73.7508 554.185 ]
    76.2002 551.635 o
    78.1859 549.599 o
    144.029 505.202 o
    222.931 488.48 o
    312.087 502.6 o
    420.856 548.379 o
    428.281 552.256 o
    437.537 557.102 o
    538.646 605.45 o
    614.513 631.297 o
    626.924 633.922 o
    638.752 636.07 o
    759.642 634.78 o
    868.401 589.631 o
    873.941 585.9 o
    878.915 582.434 v
    842.438 528.647 v
    779.841 558.325 o
    711.799 571.58 o
    615.444 563.035 o
    530.015 524.943 o
    513.729 512.844 o
    499.746 500.382 o
    487.408 486.338 o
    477.521 472.182 o
    464.702 439.986 o
    463.928 409.057 o
    471.058 389.698 o
    483.322 373.02 o
    493.425 364.831 o
    504.005 358.791 o
    505.252 358.258 o
    506.042 357.921 o
    511.92 355.253 o
    515.965 353.274 o
    523.909 348.02 o
    530.464 342.539 o
    531.955 340.957 o
    532.963 339.876 o
    540.164 329.134 o
    544.806 317.77 o
    546.456 305.045 o
    545.481 292.622 o
    538.912 275.673 o
    527.645 260.731 o
    525.837 259.008 o
    524.507 257.759 o
    515.885 250.953 o
    505.116 243.644 o
    504.327 243.138 o
    503.56 242.646 [
    475.56 224.646 ]
    475.16 224.388 o
    474.769 224.134 v
    521.11 203.745 ]
    530.876 198.95 o
    537.984 194.854 o
    543.472 190.633 o
    548.095 186.544 o
    552.822 181.1 o
    556.651 175.902 o
    562.827 162.409 o
    565.764 148.387 o
    564.997 134.206 o
    561.392 120.766 o
    554.381 108.01 o
    545.034 96.5803 o
    539.327 91.4059 o
    533.551 86.7415 o
    526.667 81.9142 o
    518.31 76.3996 o
    513.463 73.235 o
    510.335 71.1596 o
    490.99 56.4356 o
    473.448 40.5458 o
    471.905 38.9896 o
    470.375 37.42 o
    451.195 15.0136 o
    434.823 -8.80782 v
    379.162 24.784 v
    400.027 55.1159 o
    423.625 82.58 o
    425.547 84.5519 o
    427.486 86.5077 o
    449.997 106.889 o
    473.665 124.84 o
    477.579 127.459 o
    482.826 130.874 o
    490.145 135.715 o
    494.803 138.939 o
    497.169 140.875 o
    498.925 142.396 v
    496.691 143.434 o
    494.89 144.255 [
    444.89 166.255 ]
    430.289 174.238 o
    419.706 182.351 [
    418.198 183.915 ]
    406.537 203.249 o
    403.071 224.897 o
    407.842 244.705 o
    418.896 262.111 o
    420.394 263.694 o
    421.435 264.784 o
    429.927 272.027 o
    440.44 279.354 [
    468.44 297.354 ]
    469.274 297.889 o
    470.086 298.41 o
    472.383 299.901 o
    474.066 301.001 v
    454.559 312.662 o
    437.36 327.058 o
    413.301 359.731 o
    400.072 396.943 o
    398.172 432.329 o
    404.828 467.956 v
    307.96 433.613 o
    221.069 423.52 o
    117.846 445.527 o
    32.2239 503.637 o
    28.9783 506.964 o
    0 0 z
  EndSpiro
EndSplineSet
EndChar

StartChar: uni170F
Encoding: 19 5903 19
Width: 761
GlyphClass: 2
InSpiro: 1
Flags: W
AnchorPoint: "Anchor-1" 457 -30 basechar 0
AnchorPoint: "Anchor-0" 537 742 basechar 0
LayerCount: 3
Back
SplineSet
58 408 m 1,0,-1
 186 408 l 2,1,2
 207.964854783 407.843292601 207.964854783 407.843292601 217.67315579 406.358314533 c 128,-1,3
 235.520226546 402.892404007 235.520226546 402.892404007 246.620691545 394.234260079 c 128,-1,4
 259.108480119 383.030479168 259.108480119 383.030479168 262.358477016 367.432252116 c 128,-1,5
 264.185797539 355.093641993 264.185797539 355.093641993 260 336 c 2,6,-1
 248 282 l 2,7,8
 231.688877574 207.906052491 231.688877574 207.906052491 229.657484255 179.659869544 c 128,-1,9
 226.152927568 119.155831727 226.152927568 119.155831727 252 80 c 0,10,11
 281.40771894 37.9130630126 281.40771894 37.9130630126 332.780003599 29.4332635063 c 128,-1,12
 378.84337446 22.900644442 378.84337446 22.900644442 428 46 c 0,13,14
 484.631908145 73.5352975228 484.631908145 73.5352975228 537.631094833 135.393270775 c 128,-1,15
 582.408624961 188.331607635 582.408624961 188.331607635 616 254 c 0,16,17
 664.476327822 350.020027498 664.476327822 350.020027498 674 444 c 0,18,19
 678.598250312 493.845837573 678.598250312 493.845837573 669.909224022 529.833247201 c 128,-1,20
 658.151483954 574.765120054 658.151483954 574.765120054 628 604 c 0,21,22
 603.368220284 626.76338176 603.368220284 626.76338176 571.383017436 637.082409571 c 128,-1,23
 540.103761374 646.511120045 540.103761374 646.511120045 506 644 c 0,24,25
 416.531207747 636.937314521 416.531207747 636.937314521 353.273680035 564.63709692 c 0,26,27
 351.704135902 562.819585008 351.704135902 562.819585008 351 562 c 1024
  Spiro
    58 408 {
    186 408 ]
    260 336 [
    248 282 ]
    252 80 o
    428 46 o
    616 254 c
    674 444 c
    628 604 o
    506 644 o
    351 562 v
    0 0 z
  EndSpiro
EndSplineSet
Fore
SplineSet
299.494666911 175.032346003 m 0,0,1
 297.889335316 138.773678253 297.889335316 138.773678253 309.97419652 119.271915906 c 0,2,3
 313.338531194 114.892848322 313.338531194 114.892848322 316.060187123 112.041876817 c 0,4,5
 327.615989431 101.642799932 327.615989431 101.642799932 343.453816651 98.6149506192 c 0,6,7
 368.954960138 95.9787818831 368.954960138 95.9787818831 397.778283886 109.156801651 c 0,8,9
 430.987055395 125.942853937 430.987055395 125.942853937 463.195714175 157.885199432 c 0,10,11
 474.220453804 169.061265618 474.220453804 169.061265618 484.284063668 180.721004821 c 0,12,13
 523.922795879 228.065885209 523.922795879 228.065885209 553.589166707 285.730551856 c 0,14,15
 595.932340805 370.428961075 595.932340805 370.428961075 604.340500844 450.789260774 c 0,16,17
 607.549627233 488.354579148 607.549627233 488.354579148 602.034453949 512.695634327 c 0,18,19
 594.79418047 537.86306063 594.79418047 537.86306063 580.110605259 552.919090278 c 0,20,21
 566.294635987 564.816044129 566.294635987 564.816044129 550.444104732 570.276968586 c 0,22,23
 532.007151127 575.710059618 532.007151127 575.710059618 511.358431561 574.217262734 c 0,24,25
 456.19722881 568.982479515 456.19722881 568.982479515 415.537572971 528.800204694 c 0,26,27
 410.327153592 523.465463151 410.327153592 523.465463151 406.154487462 518.767117088 c 2,28,-1
 404.059205953 516.336933277 l 1,29,-1
 297.940794047 607.663066723 l 1,30,-1
 300.214474082 610.300163643 l 1,31,-1
 300.549899243 610.686357607 l 2,32,33
 308.860039067 620.050778268 308.860039067 620.050778268 316.542623605 627.79515406 c 0,34,35
 394.817190498 705.017627147 394.817190498 705.017627147 500.451723598 713.767653328 c 2,36,-1
 500.637099019 713.782286903 l 2,37,38
 548.365563954 716.936285217 548.365563954 716.936285217 591.667727617 704.082844104 c 0,39,-1
 592.954461419 703.681390719 l 2,40,41
 639.821139114 688.044871473 639.821139114 688.044871473 675.478467317 655.438558904 c 2,42,-1
 676.102684194 654.86169084 l 1,43,-1
 676.713841907 654.269112299 l 2,44,45
 677.918131059 653.101433494 677.918131059 653.101433494 679.105554625 651.914039644 c 0,46,47
 721.277415385 608.906799921 721.277415385 608.906799921 737.607436364 547.638722597 c 2,48,-1
 737.776070515 546.994291933 l 1,49,-1
 737.932460451 546.346570487 l 2,50,51
 749.168680854 498.339168973 749.168680854 498.339168973 743.688271782 437.52426867 c 2,52,-1
 743.659143833 437.208516609 l 1,53,54
 732.346899959 329.496312946 732.346899959 329.496312946 678.493595476 222.433443415 c 0,55,-1
 678.326768138 222.105165183 l 2,56,57
 640.613265385 148.965184848 640.613265385 148.965184848 591.122252786 90.2360111017 c 0,58,-1
 590.832868246 89.8960793044 l 2,59,60
 576.207718864 72.9816113332 576.207718864 72.9816113332 562.190663541 58.8902500657 c 0,61,62
 511.984219732 9.23447543332 511.984219732 9.23447543332 458.635437627 -16.9549657817 c 2,63,-1
 458.221050191 -17.1564472735 l 1,64,65
 389.740477861 -49.3363837864 389.740477861 -49.3363837864 322.88632357 -39.8552556213 c 2,66,-1
 322.095628215 -39.7431207199 l 1,67,-1
 321.307903909 -39.6130944962 l 2,68,69
 259.352833057 -28.7069507748 259.352833057 -28.7069507748 217.065237757 13.046927451 c 0,70,71
 204.516402221 25.9110748742 204.516402221 25.9110748742 194.576430439 39.9511389294 c 2,72,-1
 194.049433688 40.7053517639 l 1,73,74
 155.255883909 100.639765683 155.255883909 100.639765683 159.789190369 183.737292983 c 0,75,-1
 159.852819158 184.717454732 l 2,76,77
 162.536162273 219.235291528 162.536162273 219.235291528 179.657988547 297.131952289 c 2,78,-1
 188.734965011 337.978826418 l 1,79,80
 186.72896588 338.003425265 186.72896588 338.003425265 185.737953019 338.013726262 c 2,81,-1
 58 338.013726262 l 1,82,-1
 58 477.986273738 l 1,83,-1
 186 477.986273738 l 1,84,-1
 186.503128976 477.984478986 l 2,85,86
 213.970576864 477.651041185 213.970576864 477.651041185 228.325525703 475.5350149 c 2,87,-1
 229.716133355 475.322308077 l 1,88,-1
 231.096372086 475.054264989 l 2,89,90
 265.643265013 467.803625123 265.643265013 467.803625123 289.619034902 449.479338737 c 2,91,-1
 291.524198761 447.993348474 l 1,92,-1
 293.328255295 446.374786946 l 2,93,94
 296.399570493 443.528464638 296.399570493 443.528464638 298.388638559 441.582201906 c 0,95,96
 323.450253903 415.628278287 323.450253903 415.628278287 330.866038993 381.791475259 c 2,97,-1
 331.284297992 379.784058317 l 1,98,-1
 331.584939529 377.754037496 l 2,99,100
 335.062635476 351.964721536 335.062635476 351.964721536 328.311966718 320.732210192 c 2,101,-1
 316.342011453 266.868047711 l 2,102,103
 301.564364281 199.504732135 301.564364281 199.504732135 299.494666911 175.032346003 c 0,0,1
206.555262548 337.133847618 m 1,104,-1
 206.555262548 337.133847618 l 1,104,-1
EndSplineSet
Layer: 2
SplineSet
351 0 m 0,0,1
 274 0 274 0 234 41 c 128,-1,2
 194 82 194 82 194 152 c 0,3,4
 194 187 194 187 202.5 231.5 c 128,-1,5
 211 276 211 276 218 311 c 0,6,7
 222 328 222 328 223 343 c 128,-1,8
 224 358 224 358 224 374 c 1,9,-1
 58 374 l 1,10,-1
 58 442 l 1,11,-1
 199 442 l 2,12,13
 256 442 256 442 278.5 422.5 c 128,-1,14
 301 403 301 403 301 364 c 0,15,16
 301 335 301 335 293.5 303 c 128,-1,17
 286 271 286 271 278.5 235.5 c 128,-1,18
 271 200 271 200 271 159 c 0,19,20
 271 111 271 111 293 89.5 c 128,-1,21
 315 68 315 68 357 68 c 0,22,23
 397 68 397 68 437 93 c 128,-1,24
 477 118 477 118 512.5 160.5 c 128,-1,25
 548 203 548 203 576 255.5 c 128,-1,26
 604 308 604 308 620 364 c 128,-1,27
 636 420 636 420 636 471 c 0,28,29
 636 532 636 532 607.5 569 c 128,-1,30
 579 606 579 606 514 606 c 0,31,32
 473 606 473 606 438 588 c 128,-1,33
 403 570 403 570 378 538 c 1,34,-1
 327 582 l 1,35,36
 359 623 359 623 406 648.5 c 128,-1,37
 453 674 453 674 519 674 c 0,38,39
 575 674 575 674 619 653 c 128,-1,40
 663 632 663 632 688 587 c 128,-1,41
 713 542 713 542 713 469 c 0,42,43
 713 407 713 407 693.5 341.5 c 128,-1,44
 674 276 674 276 639 215 c 128,-1,45
 604 154 604 154 558 105.5 c 128,-1,46
 512 57 512 57 459 28.5 c 128,-1,47
 406 0 406 0 351 0 c 0,0,1
  Spiro
    351 0 o
    283.25 10.25 o
    234 41 o
    204 89.25 o
    194 152 o
    196.125 189.375 o
    202.5 231.5 o
    210.625 273.625 o
    218 311 o
    221.25 327.5 o
    223 343 o
    223.75 358.25 o
    224 374 v
    58 374 v
    58 442 v
    199 442 ]
    247.375 437.125 o
    278.5 422.5 o
    295.375 398.125 o
    301 364 o
    299.125 334.25 o
    293.5 303 o
    286 270.125 o
    278.5 235.5 o
    272.875 198.625 o
    271 159 o
    276.5 117.625 o
    293 89.5 o
    320 73.375 o
    357 68 o
    397 74.25 o
    437 93 o
    475.875 122.375 o
    512.5 160.5 o
    546.125 205.5 o
    576 255.5 o
    601 308.875 o
    620 364 o
    632 418.75 o
    636 471 o
    628.875 526 o
    607.5 569 o
    569.875 596.75 o
    514 606 o
    474.5 601.5 o
    438 588 o
    405.5 566.5 o
    378 538 v
    327 582 v
    362.75 619.125 o
    406 648.5 o
    457.75 667.625 o
    519 674 o
    572 668.75 o
    619 653 o
    658.25 626 o
    688 587 o
    706.75 535 o
    713 469 o
    708.125 406.125 o
    693.5 341.5 o
    670.125 277.125 o
    639 215 o
    601.25 157.125 o
    558 105.5 o
    510.25 62 o
    459 28.5 o
    405.5 7.125 o
    0 0 z
  EndSpiro
EndSplineSet
EndChar

StartChar: uni1710
Encoding: 20 5904 20
Width: 922
GlyphClass: 2
InSpiro: 1
Flags: W
AnchorPoint: "Anchor-1" 609 -79 basechar 0
AnchorPoint: "Anchor-0" 488 693 basechar 0
LayerCount: 3
Back
SplineSet
20 600 m 1,0,-1
 212 600 l 1,1,-1
 212 20 l 1,2,-1
 432 406 l 2,3,4
 488.315417986 504.807960648 488.315417986 504.807960648 530.237101458 543.991010985 c 0,5,6
 532.55913914 546.13310371 532.55913914 546.13310371 533.882436258 547.338700801 c 0,7,8
 569.304545213 578.701411546 569.304545213 578.701411546 607.895449233 593.00972677 c 0,9,10
 651.816845539 608.465124737 651.816845539 608.465124737 694 602 c 0,11,12
 743.690278471 593.351307927 743.690278471 593.351307927 776.904834079 559.219776877 c 0,13,14
 811.216218734 522.30338265 811.216218734 522.30338265 814 474 c 0,15,16
 815.100344808 441.167786382 815.100344808 441.167786382 801.419701464 412.636458703 c 0,17,18
 786.613744303 383.84389002 786.613744303 383.84389002 760.720898669 364.995397006 c 0,19,20
 735.522551314 347.57008152 735.522551314 347.57008152 702.907229558 340.289931299 c 0,21,22
 680.306142671 335.563185423 680.306142671 335.563185423 640 334 c 2,23,-1
 588 332 l 1,24,-1
 598 332 l 2,25,26
 704.181968046 332 704.181968046 332 753.443464743 308.996291061 c 0,27,28
 755.789037367 307.877359465 755.789037367 307.877359465 757.121434274 307.228653869 c 0,29,30
 796.177729461 287.177946197 796.177729461 287.177946197 818.092886913 254.89794583 c 0,31,32
 841.254523564 218.928795845 841.254523564 218.928795845 840 178 c 0,33,34
 837.459205819 131.039654495 837.459205819 131.039654495 805.525587923 94.2722663399 c 0,35,36
 775.78567546 61.4508399651 775.78567546 61.4508399651 728.841160186 44.6332492377 c 0,37,38
 675.147813894 25.7234674892 675.147813894 25.7234674892 560.168104477 25.9788346257 c 0,39,40
 550.638340297 26 550.638340297 26 546 26 c 2,41,-1
 516 26 l 1025
  Spiro
    20 600 {
    212 600 v
    212 20 v
    432 406 ]
    694 602 o
    814 474 o
    640 334 [
    588 332 v
    598 332 ]
    840 178 o
    546 26 [
    516 26 v
    0 0 z
  EndSpiro
EndSplineSet
Fore
SplineSet
281.986273738 284.18726422 m 1,0,-1
 371.164787915 440.655020912 l 2,1,2
 429.043950584 541.676590309 429.043950584 541.676590309 475.610355891 588.525032084 c 0,3,4
 479.55239306 592.406107985 479.55239306 592.406107985 482.46554039 595.157169481 c 2,5,-1
 482.692865794 595.369644316 l 1,6,-1
 482.921925942 595.580001488 l 1,7,-1
 486.567260742 598.927691304 l 1,8,-1
 487.520834471 599.787574208 l 2,9,10
 533.311464677 639.77351821 533.311464677 639.77351821 583.492469834 658.627561809 c 2,11,-1
 584.038035472 658.829840696 l 1,12,-1
 584.58703855 659.023028112 l 2,13,14
 645.543878431 679.967525364 645.543878431 679.967525364 704.672985339 671.17354391 c 0,15,-1
 706.077279205 670.943746648 l 1,16,17
 776.626620753 657.992325396 776.626620753 657.992325396 824.942677349 610.196922839 c 0,18,19
 826.021051077 609.118549111 826.021051077 609.118549111 827.083793504 608.026429229 c 2,20,-1
 827.652301528 607.442226042 l 1,21,22
 879.268453627 550.853033615 879.268453627 550.853033615 883.869475193 478.056977448 c 2,23,-1
 883.918285738 477.210030722 l 1,24,-1
 883.946704415 476.362070992 l 2,25,26
 885.16165938 425.947907816 885.16165938 425.947907816 864.539215701 382.341806307 c 2,27,-1
 864.121037789 381.469685696 l 1,28,29
 851.48780035 357.537591143 851.48780035 357.537591143 835.433790953 338.979007865 c 1,30,31
 843.485288739 332.078898711 843.485288739 332.078898711 849.98787912 325.655662412 c 0,32,33
 864.851172404 310.453570058 864.851172404 310.453570058 876.047617417 294.175643005 c 2,34,-1
 876.523076384 293.475314219 l 1,35,36
 911.522518683 238.0089719 911.522518683 238.0089719 909.953170822 175.839483289 c 2,37,-1
 909.927884254 175.014509746 l 1,38,-1
 909.883297223 174.190427879 l 2,39,40
 905.350547627 103.009740191 905.350547627 103.009740191 858.417700625 48.4161077212 c 0,41,-1
 857.432945068 47.3060953662 l 2,42,43
 852.990389418 42.4985665811 852.990389418 42.4985665811 849.355604083 38.8213899084 c 0,44,45
 809.075290759 -0.732791307449 809.075290759 -0.732791307449 752.520351552 -21.2484017821 c 2,46,-1
 752.343721122 -21.311678573 l 2,47,48
 720.574261117 -32.2539587707 720.574261117 -32.2539587707 677.982967151 -37.8023505915 c 0,49,50
 627.735237459 -44.1062011808 627.735237459 -44.1062011808 560.062752207 -44.0073604206 c 2,51,-1
 546 -43.9862737378 l 1,52,-1
 516 -43.9862737378 l 1,53,-1
 516 95.9862737378 l 1,54,-1
 546 95.9862737378 l 1,55,-1
 560.273456747 95.965029672 l 2,56,57
 619.797465707 95.9335623129 619.797465707 95.9335623129 660.032618825 101.022876135 c 0,58,59
 688.466221824 104.811015305 688.466221824 104.811015305 705.349264492 110.582119383 c 0,60,61
 733.275433481 121.078481214 733.275433481 121.078481214 750.360654716 137.816339275 c 0,62,63
 752.229523614 139.752730718 752.229523614 139.752730718 753.125973591 140.699296429 c 0,64,65
 768.448655004 159.617554331 768.448655004 159.617554331 770.067749365 180.973821776 c 0,66,67
 769.77025011 199.871802586 769.77025011 199.871802586 759.676165201 216.29295098 c 0,68,69
 755.276295259 222.231949947 755.276295259 222.231949947 750.992929754 226.660713046 c 0,70,71
 740.050313176 236.998095632 740.050313176 236.998095632 725.776083837 244.617583613 c 0,72,73
 724.175015228 245.38555682 724.175015228 245.38555682 723.580228878 245.670751242 c 0,74,75
 709.199550995 251.90571079 709.199550995 251.90571079 686.512623679 255.925600179 c 0,76,77
 650.196679281 261.939631075 650.196679281 261.939631075 598 262.013726262 c 2,78,-1
 588 262.013726262 l 1,79,-1
 585.289766286 401.934174867 l 1,80,-1
 637.289766286 403.934174867 l 2,81,82
 670.834607797 405.319868301 670.834607797 405.319868301 688.062616356 408.69737837 c 0,83,84
 706.918989793 413.341429579 706.918989793 413.341429579 720.240253586 422.12673957 c 0,85,86
 724.463739206 425.488735639 724.463739206 425.488735639 727.325252367 428.235183716 c 0,87,88
 734.210275039 435.666241369 734.210275039 435.666241369 738.708499169 443.797289031 c 0,89,90
 744.216591317 456.893204224 744.216591317 456.893204224 744.077536 470.79443643 c 0,91,92
 741.723563161 493.572522531 741.723563161 493.572522531 726.175319545 510.973470067 c 0,93,94
 707.993213232 528.076945238 707.993213232 528.076945238 682.636354466 532.929937653 c 0,95,96
 657.783743183 536.013558536 657.783743183 536.013558536 631.761987911 527.191649011 c 0,97,98
 605.357498127 516.748407592 605.357498127 516.748407592 580.693185484 495.286470884 c 2,99,-1
 577.807026895 492.635969834 l 2,100,101
 575.707678278 490.611644378 575.707678278 490.611644378 574.605305257 489.530082718 c 0,102,103
 540.599165293 454.882914516 540.599165293 454.882914516 492.835212085 371.344979088 c 2,104,-1
 272.835212085 -14.6550209124 l 1,105,-1
 142.013726262 -244.18726422 l 1,106,-1
 142.013726262 20 l 1,107,-1
 142.013726262 530.013726262 l 1,108,-1
 20 530.013726262 l 1,109,-1
 20 669.986273738 l 1,110,-1
 212 669.986273738 l 1,111,-1
 281.986273738 669.986273738 l 1,112,-1
 281.986273738 600 l 1,113,-1
 281.986273738 284.18726422 l 1,0,-1
EndSplineSet
Layer: 2
SplineSet
512 -10 m 1,0,-1
 512 58 l 1,1,-1
 544 58 l 2,2,3
 621 58 621 58 677.5 70.5 c 128,-1,4
 734 83 734 83 765.5 112.5 c 128,-1,5
 797 142 797 142 797 192 c 0,6,7
 797 211 797 211 786.5 234.5 c 128,-1,8
 776 258 776 258 746.5 275 c 128,-1,9
 717 292 717 292 659 292 c 2,10,-1
 585 292 l 1,11,-1
 585 360 l 1,12,-1
 631 360 l 2,13,14
 683 360 683 360 715.5 376.5 c 128,-1,15
 748 393 748 393 763 418.5 c 128,-1,16
 778 444 778 444 778 472 c 0,17,18
 778 511 778 511 753.5 538.5 c 128,-1,19
 729 566 729 566 674 566 c 0,20,21
 622 566 622 566 575.5 530 c 128,-1,22
 529 494 529 494 490 435 c 0,23,24
 430 345 430 345 371.5 234.5 c 128,-1,25
 313 124 313 124 240 0 c 1,26,-1
 173 0 l 1,27,-1
 171 566 l 1,28,-1
 19 566 l 1,29,-1
 19 634 l 1,30,-1
 147 634 l 2,31,32
 194 634 194 634 215 624.5 c 128,-1,33
 236 615 236 615 242 596.5 c 128,-1,34
 248 578 248 578 248 550 c 2,35,-1
 250 151 l 1,36,-1
 252 151 l 1,37,38
 300 250 300 250 340 324 c 128,-1,39
 380 398 380 398 422 463 c 0,40,41
 474 543 474 543 536.5 588.5 c 128,-1,42
 599 634 599 634 682 634 c 0,43,44
 762 634 762 634 808.5 592 c 128,-1,45
 855 550 855 550 855 482 c 0,46,47
 855 435 855 435 836 397.5 c 128,-1,48
 817 360 817 360 767 337 c 1,49,50
 813 324 813 324 843.5 284.5 c 128,-1,51
 874 245 874 245 874 192 c 0,52,53
 874 96 874 96 798.5 43 c 128,-1,54
 723 -10 723 -10 553 -10 c 2,55,-1
 512 -10 l 1,0,-1
EndSplineSet
EndChar

StartChar: uni1711
Encoding: 21 5905 21
Width: 1049
GlyphClass: 2
InSpiro: 1
Flags: W
AnchorPoint: "Anchor-1" 507 0 basechar 0
AnchorPoint: "Anchor-0" 532 693 basechar 0
LayerCount: 3
Back
SplineSet
70 353 m 0,0,1
 165.918537713 269.2664062 165.918537713 269.2664062 301.924127861 268.785035688 c 0,2,3
 309.469116838 268.794634096 309.469116838 268.794634096 316 269 c 0,4,5
 389.712788568 271.515834128 389.712788568 271.515834128 528.489287239 315.511424748 c 2,6,-1
 529.489414621 315.828507258 l 1,7,-1
 531.429363683 316.443614533 l 1,8,-1
 532.429495391 316.760736352 l 1,9,-1
 533.429562443 317.077824349 l 1,10,-1
 534.476662171 317.409796062 l 2,11,12
 672.785212213 360.906869213 672.785212213 360.906869213 754 359 c 0,13,14
 881.311252317 355.6571124 881.311252317 355.6571124 970.765294494 273.842089843 c 0,15,16
 974.923400329 269.981005506 974.923400329 269.981005506 978 267 c 1024
  Spiro
    70 353 {
    316 269 o
    754 359 o
    978 267 o
    0 0 z
  EndSpiro
EndSplineSet
Fore
SplineSet
24.0098030523 300.224600648 m 0,0,-1
 115.990196948 405.775399352 l 1,1,2
 193.073207836 339.542657206 193.073207836 339.542657206 302.006007439 338.771497094 c 0,3,4
 308.771411911 338.807993112 308.771411911 338.807993112 313.594565046 338.945237751 c 0,5,6
 378.637124318 341.555949275 378.637124318 341.555949275 507.254225551 382.217990405 c 2,7,-1
 508.252429529 382.534463084 l 1,8,-1
 510.192008143 383.149452898 l 1,9,-1
 511.192945328 383.466830112 l 1,10,-1
 512.194674555 383.784445107 l 1,11,-1
 513.395930914 384.165094188 l 2,12,13
 662.785568622 431.147092028 662.785568622 431.147092028 755.851066134 428.961976031 c 0,14,15
 909.498553002 424.196704623 909.498553002 424.196704623 1017.97428575 325.528395552 c 2,16,-1
 1018.17148079 325.348040184 l 2,17,18
 1023.43668185 320.424416175 1023.43668185 320.424416175 1026.72466206 317.258634282 c 1,19,-1
 929.303842219 216.713747109 l 1,20,21
 926.109000796 219.765761933 926.109000796 219.765761933 923.36427157 222.331261787 c 0,22,23
 852.37858457 286.063082124 852.37858457 286.063082124 752.148933866 289.038023969 c 0,24,25
 681.854211627 290.234491234 681.854211627 290.234491234 555.557393428 250.654497936 c 2,26,-1
 554.664450331 250.371203591 l 1,27,-1
 553.666045454 250.054642592 l 1,28,-1
 552.666719223 249.737776168 l 1,29,-1
 550.726399713 249.122551432 l 1,30,-1
 549.724348927 248.804859091 l 2,31,32
 401.597318662 202.068234329 401.597318662 202.068234329 318.405434954 199.054762249 c 0,33,34
 310.067631344 198.822839362 310.067631344 198.822839362 302.013843971 198.798819017 c 0,35,-1
 301.674524759 198.799203664 l 1,36,37
 139.320440143 200.093690504 139.320440143 200.093690504 24.0098030523 300.224600648 c 0,0,-1
EndSplineSet
Layer: 2
SplineSet
303 236 m 0,0,1
 230 236 230 236 171.5 259.5 c 128,-1,2
 113 283 113 283 52 328 c 1,3,-1
 90 384 l 1,4,5
 130 356 130 356 163 338 c 128,-1,6
 196 320 196 320 229.5 312 c 128,-1,7
 263 304 263 304 305 304 c 0,8,9
 367 304 367 304 426.5 319 c 128,-1,10
 486 334 486 334 530 348 c 0,11,12
 575 362 575 362 630 376 c 128,-1,13
 685 390 685 390 745 390 c 0,14,15
 819 390 819 390 878 366.5 c 128,-1,16
 937 343 937 343 998 298 c 1,17,-1
 956 244 l 1,18,19
 922 270 922 270 889 287 c 128,-1,20
 856 304 856 304 819 313 c 128,-1,21
 782 322 782 322 732 322 c 0,22,23
 686 322 686 322 638 308.5 c 128,-1,24
 590 295 590 295 551 283 c 0,25,26
 502 267 502 267 435.5 251.5 c 128,-1,27
 369 236 369 236 303 236 c 0,0,1
  Spiro
    303 236 o
    233.625 241.875 o
    171.5 259.5 o
    112.375 288.375 o
    52 328 v
    90 384 v
    128.25 358.5 o
    163 338 o
    196.125 322.5 o
    229.5 312 o
    265.125 306 o
    305 304 o
    366.375 307.75 o
    426.5 319 o
    482.125 333.75 o
    530 348 o
    577.5 362 o
    630 376 o
    686.25 386.5 o
    745 390 o
    815.25 384.125 o
    878 366.5 o
    937.5 337.625 o
    998 298 v
    956 244 v
    922.25 267.75 o
    889 287 o
    855 302 o
    819 313 o
    778.75 319.75 o
    732 322 o
    685.5 318.625 o
    638 308.5 o
    592.25 295.375 o
    551 283 o
    497.625 267.125 o
    435.5 251.5 o
    369.125 239.875 o
    0 0 z
  EndSpiro
EndSplineSet
EndChar

StartChar: uni1712
Encoding: 22 5906 22
Width: 0
GlyphClass: 4
Flags: W
AnchorPoint: "Anchor-0" -171 693 mark 0
LayerCount: 3
Fore
SplineSet
-168 703 m 0,0,1
 -199.432617188 702.767578125 -199.432617188 702.767578125 -221.002929688 721.165039062 c 0,2,3
 -242.432617188 739.767578125 -242.432617188 739.767578125 -242.490234375 775.66015625 c 0,4,5
 -242.432617188 813.767578125 -242.432617188 813.767578125 -221.002929688 830.803710938 c 0,6,7
 -199.432617188 848.767578125 -199.432617188 848.767578125 -168 848.3203125 c 0,8,9
 -139.432617188 848.767578125 -139.432617188 848.767578125 -117.146484375 830.803710938 c 0,10,11
 -95.4326171875 813.767578125 -95.4326171875 813.767578125 -94.9423828125 775.66015625 c 0,12,13
 -95.4326171875 739.767578125 -95.4326171875 739.767578125 -117.146484375 721.165039062 c 0,14,15
 -139.432617188 702.767578125 -139.432617188 702.767578125 -168 703 c 0,0,1
EndSplineSet
EndChar

StartChar: uni1713
Encoding: 23 5907 23
Width: 0
GlyphClass: 4
Flags: W
AnchorPoint: "Anchor-1" -98 0 mark 0
LayerCount: 3
Fore
SplineSet
-98 -171.3203125 m 0,0,1
 -129.432617188 -171.552734375 -129.432617188 -171.552734375 -151.002929688 -153.155273438 c 0,2,3
 -172.432617188 -134.552734375 -172.432617188 -134.552734375 -172.490234375 -98.66015625 c 0,4,5
 -172.432617188 -60.552734375 -172.432617188 -60.552734375 -151.002929688 -43.5166015625 c 0,6,7
 -129.432617188 -25.552734375 -129.432617188 -25.552734375 -98 -26 c 0,8,9
 -69.4326171875 -25.552734375 -69.4326171875 -25.552734375 -47.146484375 -43.5166015625 c 0,10,11
 -25.4326171875 -60.552734375 -25.4326171875 -60.552734375 -24.9423828125 -98.66015625 c 0,12,13
 -25.4326171875 -134.552734375 -25.4326171875 -134.552734375 -47.146484375 -153.155273438 c 0,14,15
 -69.4326171875 -171.552734375 -69.4326171875 -171.552734375 -98 -171.3203125 c 0,0,1
EndSplineSet
EndChar

StartChar: uni1714
Encoding: 24 5908 24
Width: 0
GlyphClass: 4
Flags: W
AnchorPoint: "Anchor-1" -264 0 mark 0
LayerCount: 3
Fore
SplineSet
-292.530273438 -183.124023438 m 5,0,-1
 -292.530273438 -124.875 l 5,1,-1
 -351.967773438 -124.875 l 5,2,-1
 -351.967773438 -65.4375 l 5,3,-1
 -292.530273438 -65.4375 l 5,4,-1
 -292.530273438 -6 l 5,5,-1
 -233.092773438 -6 l 5,6,-1
 -233.092773438 -65.4375 l 5,7,-1
 -174.84375 -65.4375 l 5,8,-1
 -174.84375 -124.875 l 5,9,-1
 -233.092773438 -124.875 l 5,10,-1
 -233.092773438 -183.124023438 l 5,11,-1
 -292.530273438 -183.124023438 l 5,0,-1
EndSplineSet
EndChar

StartChar: uni1735
Encoding: 28 5941 25
Width: 329
GlyphClass: 2
Flags: W
LayerCount: 3
Back
SplineSet
54 -138 m 29,0,-1
 256 750 l 1053
EndSplineSet
Fore
SplineSet
122.235032981 -153.609948267 m 1,0,-1
 -14.2731057672 -122.55742121 l 1,1,-1
 -14.2350329808 -122.390051733 l 1,2,-1
 187.764967019 765.609948267 l 1,3,-1
 324.273105767 734.55742121 l 1,4,-1
 324.235032981 734.390051733 l 1,5,-1
 122.235032981 -153.609948267 l 1,0,-1
EndSplineSet
EndChar

